SplineFontDB: 3.0
FontName: Ayanna-ExtraBold
FullName: AyannaNarrow-ExtraBold
FamilyName: Ayanna
Weight: Bold
Copyright: Copyright (c) 2015 mooniak (http://mooniak.com)
UComments: "2015-3-5: Created with FontForge (http://fontforge.org)"
Version: 
ItalicAngle: 0
UnderlinePosition: 0
UnderlineWidth: 0
Ascent: 819
Descent: 205
InvalidEm: 0
LayerCount: 5
Layer: 0 0 "Back" 1
Layer: 1 0 "Fore" 0
Layer: 2 0 "Back 2" 1
Layer: 3 0 "Back 3" 1
Layer: 4 0 "Back 4" 1
XUID: [1021 417 1726274797 7187508]
OS2Version: 0
OS2_WeightWidthSlopeOnly: 0
OS2_UseTypoMetrics: 1
CreationTime: 1425560291
ModificationTime: 1502854062
OS2TypoAscent: 0
OS2TypoAOffset: 1
OS2TypoDescent: 0
OS2TypoDOffset: 1
OS2TypoLinegap: 0
OS2WinAscent: 0
OS2WinAOffset: 1
OS2WinDescent: 0
OS2WinDOffset: 1
HheadAscent: 0
HheadAOffset: 1
HheadDescent: 0
HheadDOffset: 1
OS2Vendor: 'PfEd'
MarkAttachClasses: 1
DEI: 91125
LangName: 1033
Encoding: Custom
UnicodeInterp: none
NameList: AGL For New Fonts
DisplaySize: -48
AntiAlias: 1
FitToEm: 1
WinInfo: 0 13 10
BeginPrivate: 0
EndPrivate
Grid
297.5 1331 m 0
 297.5 -717 l 1024
-1024 110 m 0
 2048 110 l 1024
-1024 -154 m 0
 2048 -154 l 1024
-1024 1584.5 m 0
 2048 1584.5 l 1024
-1024 79 m 0
 2048 79 l 1024
-1024 496 m 0
 2048 496 l 1024
-1024 -89 m 0
 2048 -89 l 1024
-1024 318 m 0
 2048 318 l 1024
-1024 416 m 0
 2048 416 l 1024
-1024 594 m 0
 2048 594 l 1024
-1024 811 m 0
 2048 811 l 1024
-1024 527 m 0
 2048 527 l 1024
-1024 755 m 0
 2048 755 l 1024
-1024 819 m 0
 2048 819 l 1024
-1024 0 m 0
 2048 0 l 1024
EndSplineSet
BeginChars: 581 581

StartChar: si_Tta
Encoding: 34 3495 0
Width: 535
VWidth: 0
Flags: HMW
LayerCount: 5
Fore
SplineSet
21.8544921875 252.395507812 m 4
 21.8544921875 381.537109375 88.8544921875 472 186.547851562 472 c 4
 214.314453125 472 243.345703125 465.063476562 271.719726562 445.2578125 c 5
 233.854492188 345 l 5
 220.006835938 352.989257812 207.336914062 356.607421875 195.991210938 356.607421875 c 4
 155.474609375 356.607421875 131.854492188 310.458984375 131.854492188 252.395507812 c 4
 131.854492188 189.243164062 159.080078125 115 252 115 c 4
 356.452148438 115 397 195.017578125 397 354 c 4
 397 583 325.6796875 640 242.854492188 640 c 4
 201.750976562 640 161.666015625 618.959960938 144.610351562 576.85546875 c 5
 35.578125 613.029296875 l 5
 71.5625 707.868164062 156.133789062 755 242.854492188 755 c 4
 382.326171875 755 513 675.859375 513 354 c 4
 513 118 432 0 252 0 c 4
 74 0 21.8544921875 136.287109375 21.8544921875 252.395507812 c 4
EndSplineSet
Layer: 3
SplineSet
22.1455078125 252.395507812 m 0
 22.1455078125 421.909179688 152.875 528.416992188 272.010742188 445.2578125 c 1
 234.145507812 345 l 1
 170.845703125 381.518554688 132.145507812 326.717773438 132.145507812 252.395507812 c 0
 132.145507812 189.243164062 159.37109375 115 252.291015625 115 c 0
 356.743164062 115 397.291015625 195.017578125 397.291015625 354 c 0
 397.291015625 583 325.970703125 640 243.145507812 640 c 0
 202.041992188 640 161.95703125 618.959960938 144.901367188 576.85546875 c 1
 35.869140625 613.029296875 l 1
 71.853515625 707.868164062 156.424804688 755 243.145507812 755 c 0
 382.6171875 755 513.291015625 675.859375 513.291015625 354 c 0
 513.291015625 118 432.291015625 0 252.291015625 0 c 0
 74.291015625 0 22.1455078125 136.287109375 22.1455078125 252.395507812 c 0
EndSplineSet
EndChar

StartChar: si_Sa
Encoding: 58 3523 1
Width: 589
VWidth: 0
Flags: HW
LayerCount: 5
Fore
SplineSet
259.600585938 467.353515625 m 4
 259.600585938 473.071289062 260.165039062 478.329101562 261.416015625 483 c 4
 281.044921875 556.276367188 340.134765625 594 402.953125 594 c 4
 489.512695312 594 541.612304688 532.13671875 541.612304688 456.407226562 c 4
 541.612304688 428.149414062 530.364257812 394.649414062 510.2265625 369.030273438 c 5
 433.517578125 410.436523438 l 5
 441.500976562 419.560546875 448.13671875 439.108398438 448.13671875 451.1640625 c 4
 448.13671875 475 433.923828125 496 398.780273438 496 c 4
 376.041992188 496 347.215820312 481.030273438 347.215820312 434.341796875 c 4
 347.215820312 428.678710938 347.71875 422.2421875 348.780273438 416 c 4
 302.280273438 318.436523438 l 5
 289.668945312 359.422851562 259.600585938 425.625 259.600585938 467.353515625 c 4
144.560546875 207 m 0
 144.560546875 157.264648438 158.749023438 115 194.04296875 115 c 0
 240.743164062 115 256.673828125 176.75 256.673828125 249.5 c 1
 347.88671875 249.5 l 1
 347.88671875 176.75 363.817382812 115 410.517578125 115 c 0
 445.811523438 115 460 157.264648438 460 207 c 0
 460 258.725585938 440.04296875 318 399.76171875 318 c 2
 204.798828125 318 l 2
 164.04296875 318 144.560546875 258.08984375 144.560546875 207 c 0
37.560546875 207 m 0
 37.560546875 248.30078125 49.04296875 294 63.04296875 319.563476562 c 1
 22.2265625 319.666992188 l 1
 22.2265625 416 l 1
 417.04296875 416 l 2
 451.2265625 416 482.002929688 400.309570312 505.2265625 380.399414062 c 0
 547.661132812 344.021484375 567 287.78515625 567 207 c 0
 567 95.095703125 522.130859375 0 410.517578125 0 c 0
 357.837890625 0 318.42578125 31.6025390625 302.280273438 79.0302734375 c 1
 286.134765625 31.6025390625 246.72265625 0 194.04296875 0 c 0
 82.4296875 0 37.560546875 95.095703125 37.560546875 207 c 0
65.9921875 461.536132812 m 0
 65.9921875 532.131835938 113.9921875 594 201.607421875 594 c 0
 264.42578125 594 323.518554688 556.27734375 343.14453125 483 c 0
 344.395507812 478.329101562 344.959960938 473.071289062 344.959960938 467.353515625 c 0
 344.959960938 425.625 314.891601562 359.422851562 302.280273438 318.436523438 c 1
 255.780273438 416 l 0
 256.841796875 422.252929688 257.344726562 428.668945312 257.344726562 434.341796875 c 0
 257.344726562 481.030273438 228.518554688 496 205.780273438 496 c 0
 173.73828125 496 158.837890625 474.29296875 158.837890625 450.72265625 c 0
 158.837890625 437.756835938 163.346679688 424.2265625 171.9921875 413.436523438 c 1
 96.28125 375.436523438 l 1
 75.2548828125 403.236328125 65.9921875 433.094726562 65.9921875 461.536132812 c 0
EndSplineSet
Layer: 3
SplineSet
360.81640625 391.40625 m 1
 270.81640625 319.40625 l 1
 258.81640625 358.40625 257 396.705078125 257 427.969726562 c 0
 257 448.502929688 254.384765625 467.178710938 258.985351562 483.969726562 c 0
 278.879882812 556.58984375 337.720703125 593.969726562 400.251953125 593.969726562 c 0
 486.811523438 593.969726562 538.911132812 532.106445312 538.911132812 456.376953125 c 0
 538.911132812 428.57421875 528.125976562 395.61328125 508.81640625 370.40625 c 1
 430.81640625 410.40625 l 1
 438.799804688 419.530273438 445.435546875 439.078125 445.435546875 451.133789062 c 0
 445.435546875 474.969726562 429.607421875 495.969726562 400.251953125 495.969726562 c 0
 371.725585938 495.969726562 349.49609375 471.9140625 349.49609375 434.28125 c 0
 349.49609375 428.618164062 349.999023438 422.211914062 351.060546875 415.969726562 c 1
 360.81640625 391.40625 l 1
201.380859375 593.969726562 m 0
 264.19921875 593.969726562 323.2890625 556.24609375 342.91796875 482.969726562 c 0
 353.30078125 444.208984375 316.392578125 365.0078125 302.053710938 318.40625 c 1
 250.572265625 415.969726562 l 0
 251.633789062 422.211914062 252.13671875 428.618164062 252.13671875 434.28125 c 0
 252.13671875 471.9140625 228.291992188 495.969726562 199.765625 495.969726562 c 0
 155.885742188 495.969726562 147.405273438 443.810546875 171.765625 413.40625 c 1
 96.0546875 375.40625 l 1
 75.0283203125 403.206054688 65.765625 433.064453125 65.765625 461.505859375 c 0
 65.765625 532.1015625 113.765625 593.969726562 201.380859375 593.969726562 c 0
352.572265625 416 m 1
 416.81640625 416 l 2
 457.81640625 416 493.727539062 393.5234375 517.81640625 368.23828125 c 0
 551.643554688 332.731445312 566.7734375 278.352539062 566.7734375 207 c 0
 566.7734375 95.095703125 521.904296875 0 410.291015625 0 c 0
 357.611328125 0 318.19921875 31.6025390625 302.053710938 79.0302734375 c 1
 285.908203125 31.6025390625 246.49609375 0 193.81640625 0 c 0
 82.203125 0 37.333984375 95.095703125 37.333984375 207 c 0
 37.333984375 248.30078125 48.81640625 294 62.81640625 319.563476562 c 1
 22 319.666992188 l 1
 22 416 l 1
 257.572265625 416 l 1
 352.572265625 416 l 1
399.53515625 318 m 2
 204.572265625 318 l 2
 163.81640625 318 144.333984375 258.08984375 144.333984375 207 c 0
 144.333984375 157.264648438 158.522460938 115 193.81640625 115 c 0
 240.516601562 115 256.447265625 176.75 256.447265625 249.5 c 1
 347.66015625 249.5 l 1
 347.66015625 176.75 363.590820312 115 410.291015625 115 c 0
 445.584960938 115 459.7734375 157.264648438 459.7734375 207 c 0
 459.7734375 258.725585938 439.81640625 318 399.53515625 318 c 2
EndSplineSet
EndChar

StartChar: si_La
Encoding: 54 3517 2
Width: 586
VWidth: 0
Flags: HW
LayerCount: 5
Fore
SplineSet
22.220703125 208 m 4
 22.220703125 403.26953125 99.1155522402 594 313 594 c 4
 485.501930502 594 564 451 564 332 c 4
 564 195 500.808510638 88 384 88 c 4
 267.419461985 88 225.992405415 163.104292261 225.992405415 228.977263775 c 4
 225.992405415 256.165000903 233.049333507 281.780220645 244.791992188 299.893554688 c 5
 240.19921875 299.893554688 208.106445312 299.893554688 201.791992188 299.893554688 c 5
 202.791992188 394.893554688 l 5
 397.791992188 394.893554688 l 5
 397.791992188 299.893554688 l 5
 349.791992188 299.893554688 332 269.705078125 332 242.063476562 c 4
 332 218.723632812 353.411790821 197.200195312 382 197.200195312 c 4
 432 197.200195312 450 262 450 332 c 4
 450 427.025390625 404.648275862 479 313 479 c 4
 184.135152439 479 137.220703125 352.634765625 137.220703125 208 c 4
 137.220703125 65.4227642276 202.895507812 -39 309 -39 c 4
 384.1484375 -39 436.736328125 9.42849099099 445.563476562 73 c 5
 559 57 l 5
 546.665039062 -57.1005859375 456.083984375 -154 309 -154 c 4
 112.895507812 -154 22.220703125 6 22.220703125 208 c 4
EndSplineSet
Layer: 2
SplineSet
305 479 m 4
 169.212890625 479 137.220703125 352.634765625 137.220703125 208 c 4
 137.220703125 66 202.895507812 -38 309 -38 c 4
 384.1484375 -38 436.736328125 9.99609375 445.563476562 73 c 5
 559 57 l 5
 546.665039062 -57.1005859375 456.083984375 -154 309 -154 c 4
 112.895507812 -154 22.220703125 6 22.220703125 208 c 4
 22.220703125 403.26953125 75.9228515625 594 305 594 c 4
 483 594 564 451 564 332 c 4
 564 195 498 88 376 88 c 4
 208 88 193 237.893554688 234 299.893554688 c 5
 229.407226562 299.893554688 197.314453125 299.893554688 191 299.893554688 c 5
 192 394.893554688 l 5
 387 394.893554688 l 5
 387 299.893554688 l 5
 339 299.893554688 321.208007812 269.705078125 321.208007812 242.063476562 c 4
 321.208007812 218.723632812 343.815429688 197.200195312 374 197.200195312 c 4
 426 197.200195312 450 262 450 332 c 4
 450 427.025390625 402 479 305 479 c 4
EndSplineSet
Layer: 3
SplineSet
309.220703125 -89 m 4
 384.369140625 -89 436.95703125 -41.00390625 445.784179688 22 c 5
 559.220703125 6 l 5
 546.885742188 -108.100585938 456.3046875 -205 309.220703125 -205 c 4
 113.116210938 -205 22.220703125 -57 22.220703125 182 c 4
 22.220703125 377.26953125 75.9228515625 594 305 594 c 4
 503 594 564 421 564 302 c 4
 564 146.380859375 510 55 376 55 c 4
 221 55 205 204.893554688 246 266.893554688 c 5
 241.407226562 266.893554688 209.314453125 266.893554688 203 266.893554688 c 5
 204 361.893554688 l 5
 399 361.893554688 l 5
 399 266.893554688 l 5
 351 266.893554688 333.208007812 236.705078125 333.208007812 209.063476562 c 4
 333.208007812 185.723632812 345.815429688 164.200195312 376 164.200195312 c 4
 441 164.200195312 450 232 450 302 c 4
 450 397.025390625 413 479 305 479 c 4
 169.212890625 479 137.220703125 326.634765625 137.220703125 182 c 4
 137.220703125 6 203.116210938 -89 309.220703125 -89 c 4
EndSplineSet
EndChar

StartChar: si_Ddha
Encoding: 37 3498 3
Width: 554
Flags: HW
LayerCount: 5
Back
SplineSet
216.7734375 601 m 4
 216.7734375 667.848632812 268.09765625 685.932481919 268.09765625 709.823242188 c 4
 268.09765625 716.953125 263.635742187 724.23046875 251.7734375 733 c 5
 358.099609375 755 l 5
 346.7734375 643 l 5
 329.764573317 636.648995536 319.7734375 619.604306175 319.7734375 605 c 4
 319.7734375 584.662446787 334.993923544 558 371.63671875 558 c 4
 375.264869919 558 379.103032617 558.640512914 383.157226562 560 c 5
 470.099609375 524 l 5
 408.157226562 461.236328125 l 5
 401.000948379 460.402363112 393.915227241 460 386.924804688 460 c 4
 293.302319529 460 216.7734375 529.568527186 216.7734375 601 c 4
-1.1201171875 193.436523438 m 0
 -1.1201171875 234.737304688 10.3623046875 280.436523438 24.3623046875 306 c 1
 -6.8818359375 306 l 1
 -6.8818359375 391 l 1
 282.361328125 389.5 l 1
 315.86328125 306 l 1
 166.118164062 306 l 2
 125.362304688 306 105.879882812 245.162109375 105.879882812 193.436523438 c 0
 105.879882812 156.328125 111.553710938 114.65234375 148.811523438 114.65234375 c 0
 190.987304688 114.65234375 205.993164062 179.677734375 205.993164062 249.5 c 1
 301.904296875 249.5 l 1
 301.904296875 176.75 317.372070312 115 360.362304688 115 c 0
 417.118164062 115 417.118164062 239.958007812 417.118164062 293 c 0
 417.118164062 384.547851562 402.255859375 481.404296875 383.616210938 545 c 1
 377.877929688 579 359.877929688 628 337.794921875 648 c 1
 315.057617188 683.220703125 286.557617188 712.00390625 251.7734375 733 c 1
 323.7734375 817 l 1
 402.750976562 764.920898438 457.162410557 686.227637481 489.260742188 588 c 0
 513.249023438 514.590820312 532.118164062 410 532.118164062 293 c 0
 532.118164062 181.99609375 531.118164062 0 360.362304688 0 c 0
 304.442382812 0 266.419921875 33.14453125 251.599609375 79.0302734375 c 1
 235.454101562 31.6025390625 196.041992188 0 143.362304688 0 c 0
 27.5625 0 -1.1201171875 105.454101562 -1.1201171875 193.436523438 c 0
  Spiro
    -1.12012 193.437 o
    2.36867 235.253 o
    11.5449 274.67 o
    24.3623 306 v
    -6.88184 306 v
    -6.88184 391 v
    282.361 389.5 v
    315.863 306 v
    166.118 306 ]
    132.414 288.344 o
    112.427 245.559 o
    105.88 193.437 o
    108.724 156.553 o
    121.141 126.809 o
    148.812 114.652 o
    182.356 134.06 o
    200.552 183.567 o
    205.993 249.5 v
    301.904 249.5 v
    307.495 182.356 o
    326.126 133.668 o
    360.362 115 o
    400.276 149.3 o
    415.022 223.357 o
    417.118 293 o
    412.583 384.798 o
    400.571 471.827 o
    383.616 545 v
    374.107 582.331 o
    358.196 619.997 o
    337.795 648 v
    313.144 680.994 o
    284.452 709.484 o
    251.773 733 v
    323.773 817 v
    394.583 756.381 o
    449.688 679.37 o
    489.261 588 o
    511.014 504.984 o
    526.349 405.062 o
    532.118 293 o
    525.554 167.832 o
    480.707 51.2022 o
    360.362 0 o
    310.648 10.2727 o
    273.928 38.1824 o
    251.6 79.0303 v
    228.099 37.4971 o
    191.206 9.93053 o
    143.362 0 o
    54.5016 30.5419 o
    10.5794 104.269 o
    0 0 z
  EndSpiro
51.455078125 409.272460938 m 0
 51.455078125 481.53515625 100.42578125 531.563476562 174.727539062 531.563476562 c 0
 251.713867188 531.563476562 323.112304688 474.899414062 323.112304688 365.563476562 c 0
 323.112304688 351 319.918945312 325 315.86328125 306 c 1
 225.483398438 371.875 l 1
 226.424804688 376.782226562 226.8984375 381.770507812 226.8984375 386.713867188 c 0
 226.8984375 416.143554688 210.084960938 444 174.727539062 444 c 0
 149.927734375 444 140.935546875 426.133789062 140.935546875 404.787109375 c 0
 140.935546875 386.79296875 153.220703125 370.325195312 161.918945312 356 c 1
 81.9189453125 318.563476562 l 1
 61.9189453125 351 51.455078125 380.620117188 51.455078125 409.272460938 c 0
  Spiro
    51.4551 409.272 o
    66.8731 473.04 o
    109.8 515.947 o
    174.728 531.563 o
    247.348 512.861 o
    301.791 457.12 o
    323.112 365.563 o
    322.136 347.891 o
    319.542 326.629 o
    315.863 306 v
    225.483 371.875 v
    226.268 376.8 o
    226.741 381.765 o
    226.898 386.714 o
    221.241 414.62 o
    203.945 435.704 o
    174.728 444 o
    154.96 438.588 o
    144.179 424.423 o
    140.936 404.787 o
    144.436 387.341 o
    152.622 371.001 o
    161.919 356 v
    81.9189 318.563 v
    65.1456 350.099 o
    54.9018 380.259 o
    0 0 z
  EndSpiro
EndSplineSet
Fore
SplineSet
216.7734375 601 m 4
 216.7734375 673.485789922 279.157226562 693.09459914 279.157226562 719 c 4
 279.157226562 727.053075408 275.073544865 735.272705315 264.216796875 745.177734375 c 5
 358.099609375 755 l 5
 346.7734375 643 l 5
 329.764573317 636.648995536 319.7734375 619.604306175 319.7734375 605 c 4
 319.7734375 584.662446787 334.993923544 558 371.63671875 558 c 4
 375.264869919 558 379.103032617 558.640512914 383.157226562 560 c 5
 470.099609375 524 l 5
 408.157226562 461.236328125 l 5
 401.000948379 460.402363112 393.915227241 460 386.924804688 460 c 4
 293.302319529 460 216.7734375 529.568527186 216.7734375 601 c 4
-1.12 193.437 m 4
 -1.12 234.7378 10.3624 280.437 24.3624 306 c 5
 -6.8817 306 l 5
 -6.8817 391 l 5
 282.3613 389.5 l 5
 315.8633 306 l 5
 166.1183 306 l 6
 125.3624 306 105.88 245.1621 105.88 193.437 c 4
 105.88 156.3286 111.55383 114.6528 148.8116 114.6528 c 4
 190.9874 114.6528 205.9932 179.6782 205.9932 249.5008 c 5
 301.9043 249.5008 l 5
 301.9043 176.7508 317.3721 115.0008 360.3623 115.0008 c 4
 417.1182 115.0008 423.7734 239.9588 423.7734 293.0008 c 4
 423.7734 384.5487 402.2558 481.4048 383.6162 545.0008 c 5
 378.77733 585.0379 361.0332 626.9822 338.1572 647.0008 c 5
 319.6777 687.1561 293.833 721.157 264.2168 745.1776 c 5
 319.1572 811.0008 l 5
 446.2602 745.2508 538.7732 527.0008 538.7732 293.0008 c 4
 538.7732 181.9968 531.11793 0.000800000000027 360.362 0 c 5
 304.4421 0 266.4196 33.1445 251.599 79.0303 c 5
 235.4535 31.6026 196.0414 0 143.362 0 c 4
 27.562 0 -1.12 105.454 -1.12 193.437 c 4
51.45482 409.272 m 5
 51.4551 481.5347 100.4258 531.563 174.7271 531.563 c 4
 251.7134 531.563 323.1121 474.8989 323.1121 365.563 c 4
 323.1121 350.9995 319.91874 324.9995 315.86308 305.9995 c 5
 225.48318 371.8745 l 5
 226.424586 376.78173 226.89822 381.77001 226.89822 386.7134 c 4
 226.89822 416.1431 210.08472 443.9995 174.72732 443.9995 c 4
 149.92752 443.9995 140.93532 426.1333 140.93532 404.7866 c 4
 140.93532 386.7925 153.22052 370.3247 161.91872 355.9995 c 5
 81.91872 318.563 l 5
 61.91872 350.9995 51.45482 380.6196 51.45482 409.272 c 5
EndSplineSet
EndChar

StartChar: si_Dda
Encoding: 36 3497 4
Width: 583
VWidth: 0
Flags: HMW
LayerCount: 5
Fore
SplineSet
27.76171875 193.436523438 m 0
 27.76171875 234.737304688 39.244140625 280.436523438 53.244140625 306 c 1
 22 306 l 1
 22 391 l 1
 311.243164062 389.5 l 1
 344.745117188 306 l 1
 195 306 l 2
 154.244140625 306 134.76171875 245.162109375 134.76171875 193.436523438 c 0
 134.76171875 156.328125 140.435546875 114.65234375 177.693359375 114.65234375 c 0
 219.869140625 114.65234375 234.875 179.677734375 234.875 249.5 c 1
 330.786132812 249.5 l 1
 330.786132812 176.75 346.25390625 115 389.244140625 115 c 0
 446 115 446 239.958007812 446 293 c 0
 446 522.796875 403 639.884765625 265 639.884765625 c 0
 223.896484375 639.884765625 176.237304688 618.959960938 159.181640625 576.85546875 c 1
 50.1494140625 613.029296875 l 1
 86.1337890625 707.868164062 178.279296875 755 265 755 c 0
 482 755 561 599.055664062 561 293 c 0
 561 181.99609375 560 0 389.244140625 0 c 0
 333.32421875 0 295.301757812 33.14453125 280.481445312 79.0302734375 c 1
 264.3359375 31.6025390625 224.923828125 0 172.244140625 0 c 0
 56.4443359375 0 27.76171875 105.454101562 27.76171875 193.436523438 c 0
80.3369140625 409.272460938 m 0
 80.3369140625 481.53515625 129.307617188 531.563476562 203.609375 531.563476562 c 0
 280.595703125 531.563476562 351.994140625 474.899414062 351.994140625 365.563476562 c 0
 351.994140625 351 348.80078125 325 344.745117188 306 c 1
 254.365234375 371.875 l 1
 255.306640625 376.782226562 255.780273438 381.770507812 255.780273438 386.713867188 c 0
 255.780273438 416.143554688 238.966796875 444 203.609375 444 c 0
 178.809570312 444 169.817382812 426.133789062 169.817382812 404.787109375 c 0
 169.817382812 386.79296875 182.102539062 370.325195312 190.80078125 356 c 1
 110.80078125 318.563476562 l 1
 90.80078125 351 80.3369140625 380.620117188 80.3369140625 409.272460938 c 0
EndSplineSet
EndChar

StartChar: si_Nna
Encoding: 38 3499 5
Width: 878
VWidth: 0
Flags: HW
LayerCount: 5
Fore
SplineSet
427.032226562 235 m 5
 427.032226562 235 427.032226562 304.435705708 427.032226562 321.5234375 c 4
 427.032226562 439.830892528 473.475227953 520 546 520 c 4
 592 520 618.970703125 491.129882812 628.45703125 468 c 5
 637.943359375 491.129882812 676 520 724 520 c 4
 850.842773438 520 856.840820312 386 856.840820312 277 c 4
 856.840820312 166 848.578125 0 671 0 c 4
 522.875603643 0 537.224131668 122.190429688 483.061523438 122.190429688 c 4
 475.79388551 122.190429688 467.292722813 119.990420322 457 115 c 5
 488.48046875 208 l 5
 496.371235026 209.562834224 503.505151813 210.283203125 510 210.283203125 c 4
 587.871609736 210.283203125 575.328396592 110 669 110 c 4
 738.262695312 110 741.840820312 208.103515625 741.840820312 277 c 4
 741.840820312 338.390625 741 406 707.159179688 406 c 4
 680.159179688 406 674.95703125 372 674.95703125 333 c 6
 674.95703125 238 l 5
 581.95703125 238 l 5
 581.95703125 333 l 6
 581.95703125 372 576.754882812 406 549.754882812 406 c 4
 521.067880115 406 518.529296875 366.862088741 518.529296875 322.984375 c 4
 518.529296875 313.548846947 518.646484375 303.894133863 518.646484375 294.362304688 c 4
 518.646484375 272.569969921 518.032883581 251.419945724 514 235 c 5
 427.032226562 235 l 5
283.693359375 573 m 5
 387.802322752 680.666152345 394 715.748363239 394 770 c 5
 504 770 l 5
 504 672.1484375 453.72265625 608 376 528 c 5
 283.693359375 573 l 5
22 20 m 5
 42 174 64 171 144 244 c 5
 230 176 l 5
 170 134 135 148 124 0 c 5
 22 20 l 5
38.3994140625 345.123046875 m 4
 38.3994140625 466.952630698 120.966161458 585 262 585 c 4
 402.381835938 585 517.901367188 487 517.901367188 288.078125 c 4
 517.901367188 99.560876366 398.000011626 0 280 0 c 4
 216 0 193.819582511 20 159.30078125 20 c 4
 145.924046072 20 133.989159631 14.9979426063 124 0 c 5
 62 49 l 5
 143 106 l 4
 152.073931678 110.83949023 161.971231192 112.52734375 172.70703125 112.52734375 c 4
 197.46564206 112.52734375 226.683722388 103.55078125 260.546875 103.55078125 c 4
 357.487304688 103.55078125 402.901367188 176.544921875 402.901367188 288.078125 c 4
 402.901367188 407 339.28125 471 262 471 c 4
 188.80265192 471 150.998188541 433.00552098 140.845703125 388 c 4
 138.931264006 379.513375651 138 370.777458396 138 362 c 5
 113 276 l 5
 68 224 l 5
 47.9502373621 261.814963794 38.3994140625 303.68775571 38.3994140625 345.123046875 c 4
149.235351562 289.48828125 m 4
 149.235351562 262.1484375 171.106445312 240.27734375 198.446289062 240.27734375 c 4
 225.786132812 240.27734375 247.659179688 262.1484375 247.659179688 289.48828125 c 4
 247.659179688 316.829101562 225.786132812 338.702148438 198.446289062 338.702148438 c 4
 171.106445312 338.702148438 149.235351562 316.829101562 149.235351562 289.48828125 c 4
53.0146484375 289.48828125 m 4
 53.0146484375 326.545898438 86.423828125 361.978515625 130 389 c 5
 147.732421875 411.948242188 182.885742188 428 219.227539062 428 c 4
 252.567382812 428 286.909198101 414.046891768 309.717773438 389 c 4
 333.541015625 362.838867188 348 327.970703125 348 289.48828125 c 4
 348 207.549804688 282.444335938 142 200.502929688 142 c 4
 128.320653419 142 68.8577231095 192.869768804 55.7197265625 261 c 4
 53.9440041445 270.208434364 53.0146484375 279.732188917 53.0146484375 289.48828125 c 4
EndSplineSet
Layer: 2
SplineSet
227 506 m 5
 269 496 l 5
 346 464 l 5
 346 464 398.779296875 539 409 550 c 4
 513.999023438 663.000976562 510 714 510 779 c 4
 394 779 l 4
 394 720 388.713867188 681.774414062 258 552 c 4
 214.241210938 508.555664062 227 506 227 506 c 5
517.901367188 297.078125 m 4
 517.901367188 496 402.381835938 594 262 594 c 4
 73 594 -11 382 68 233 c 5
 113 285 l 5
 138 371 l 5
 138 426.325195312 175 480 262 480 c 4
 339.28125 480 402.901367188 416 402.901367188 297.078125 c 4
 402.901367188 185.544921875 357.487304688 112.55078125 260.546875 112.55078125 c 4
 212 112.55078125 173 131 143 115 c 4
 100 74 l 5
 124 9 l 5
 154 41 201.549804688 8.947265625 253 8.947265625 c 4
 416.72265625 8.947265625 517.901367188 108.526367188 517.901367188 297.078125 c 4
124 9 m 5
 135 157 170 143 230 185 c 5
 144 253 l 5
 64 180 42 183 22 29 c 5
 124 9 l 5
549.754882812 406 m 4
 576.754882812 406 581.95703125 372 581.95703125 333 c 4
 581.95703125 267.864257812 581.95703125 238 581.95703125 238 c 5
 674.95703125 238 l 5
 674.95703125 238 674.95703125 267.864257812 674.95703125 333 c 4
 674.95703125 372 680.159179688 406 707.159179688 406 c 4
 741 406 741.840820312 338.390625 741.840820312 277 c 4
 741.840820312 208.103515625 738.262695312 110 654 110 c 4
 593 110 582 141 571 168 c 5
 475 134 l 5
 487 48 569.4609375 0 654 0 c 4
 848.578125 0 856.840820312 166 856.840820312 277 c 4
 856.840820312 386 850.842773438 520 715 520 c 4
 676 520 637.943359375 491.129882812 628.45703125 468 c 5
 618.970703125 491.129882812 580.9140625 520 541.9140625 520 c 4
 438.95703125 520 414.16015625 415 430 268 c 4
 515 235 l 5
 524 287 500.794921875 406 549.754882812 406 c 4
149.235351562 298.48828125 m 4
 149.235351562 325.829101562 171.106445312 347.702148438 198.446289062 347.702148438 c 4
 225.786132812 347.702148438 247.659179688 325.829101562 247.659179688 298.48828125 c 4
 247.659179688 271.1484375 225.786132812 249.27734375 198.446289062 249.27734375 c 4
 171.106445312 249.27734375 149.235351562 271.1484375 149.235351562 298.48828125 c 4
53.0146484375 298.48828125 m 4
 53.0146484375 216.549804688 118.564453125 151 200.502929688 151 c 4
 282.444335938 151 348 216.549804688 348 298.48828125 c 4
 348 336.970703125 333.541015625 371.838867188 309.717773438 398 c 4
 286.909179688 423.046875 252.567382812 437 219.227539062 437 c 4
 182.885742188 437 147.732421875 420.948242188 130 398 c 5
 86.423828125 370.978515625 53.0146484375 335.545898438 53.0146484375 298.48828125 c 4
EndSplineSet
Layer: 3
SplineSet
517.901367188 297.078125 m 0
 517.901367188 108.526367188 416.72265625 8.947265625 253 8.947265625 c 0
 201.549804688 8.947265625 154 41 124 9 c 1
 100 74 l 1
 143 115 l 0
 173 131 212 112.55078125 260.546875 112.55078125 c 0
 357.487304688 112.55078125 402.901367188 185.544921875 402.901367188 297.078125 c 0
 402.901367188 416 339.28125 482 262 482 c 0
 175 482 133.901367188 429.325195312 133.901367188 374 c 1
 113 285 l 1
 68 233 l 1
 -11 382 73 594 262 594 c 0
 402.381835938 594 517.901367188 496 517.901367188 297.078125 c 0
155.041992188 294.859375 m 0
 155.041992188 270.4921875 174.53515625 251 198.901367188 251 c 0
 223.268554688 251 242.762695312 270.4921875 242.762695312 294.859375 c 0
 242.762695312 319.2265625 223.268554688 338.720703125 198.901367188 338.720703125 c 0
 174.53515625 338.720703125 155.041992188 319.2265625 155.041992188 294.859375 c 0
227 506 m 1
 227 506 214.241210938 508.555664062 258 552 c 0
 388.713867188 681.774414062 394 720 394 779 c 0
 510 779 l 0
 510 714 513.999023438 663.000976562 409 550 c 0
 398.779296875 539 346 464 346 464 c 1
 269 496 l 1
 227 506 l 1
124 9 m 1
 22 29 l 1
 42 183 64 180 144 253 c 1
 230 185 l 1
 170 143 135 157 124 9 c 1
549.754882812 406 m 0
 500.794921875 406 529 333 514 235 c 1
 430 268 l 0
 414.16015625 415 464 520 541.9140625 520 c 0
 580.9140625 520 618.970703125 491.129882812 628.45703125 468 c 1
 637.943359375 491.129882812 676 520 715 520 c 0
 850.842773438 520 856.840820312 386 856.840820312 277 c 0
 856.840820312 166 848.578125 0 654 0 c 0
 514 0 546 88 456 114 c 1
 495 206 l 1
 609 180 580 110 654 110 c 0
 738.262695312 110 741.840820312 208.103515625 741.840820312 277 c 0
 741.840820312 338.390625 741 406 707.159179688 406 c 0
 680.159179688 406 674.95703125 372 674.95703125 333 c 0
 674.95703125 267.864257812 674.95703125 238 674.95703125 238 c 1
 581.95703125 238 l 1
 581.95703125 238 581.95703125 267.864257812 581.95703125 333 c 0
 581.95703125 372 576.754882812 406 549.754882812 406 c 0
53.0146484375 298.48828125 m 0
 53.0146484375 335.545898438 86.423828125 370.978515625 130 398 c 1
 147.732421875 420.948242188 182.885742188 437 219.227539062 437 c 0
 252.567382812 437 286.909179688 423.046875 309.717773438 398 c 0
 333.541015625 371.838867188 348 336.970703125 348 298.48828125 c 0
 348 216.549804688 282.444335938 151 200.502929688 151 c 0
 118.564453125 151 53.0146484375 216.549804688 53.0146484375 298.48828125 c 0
EndSplineSet
EndChar

StartChar: si_A
Encoding: 3 3461 6
Width: 559
VWidth: 0
Flags: HW
LayerCount: 5
Fore
SplineSet
290.479492188 -205 m 1
 288.104492188 416 l 1
 288.104492188 416 300.479492188 489 346.173828125 533.184570312 c 1
 348.639648438 535.82421875 418.720703125 613.930664062 493.274414062 613.930664062 c 1
 535.479492188 552 l 1
 523.82421875 545.444335938 519.99609375 532.885742188 519.99609375 516.64453125 c 0
 519.99609375 485.538085938 534.040039062 440.918945312 534.040039062 399.081054688 c 0
 534.040039062 349.94140625 503.110351562 294.291992188 426.015625 294.291992188 c 0
 414.825195312 294.291992188 402.662109375 295.46484375 389.479492188 298 c 1
 390.479492188 378 l 1
 394.765625 377.610351562 398.795898438 377.418945312 402.577148438 377.418945312 c 0
 436.080078125 377.418945312 450.071289062 392.47265625 450.071289062 418.328125 c 0
 450.071289062 438.103303033 443.368396582 460.721761125 438.473116285 477.999999226 c 0
 437.34435702 481.9840349 436.311704261 485.684143584 435.479492188 489 c 1
 391.997070312 459 395.078125 403.255859375 394.479492188 327.2265625 c 1
 394.479492188 -205 l 1
 290.479492188 -205 l 1
22.2197265625 217 m 0
 22.2197265625 330.947265625 118.899726562 421.3515625 239.219726562 421.3515625 c 0
 258.049726562 421.3515625 270.219726562 420 288.026367188 418.436523438 c 1
 289.087890625 424.678710938 289.590820312 430.6484375 289.590820312 436.311523438 c 0
 289.590820312 473.944335938 267.361328125 498 238.834960938 498 c 0
 209.479492188 498 193.651367188 477 193.651367188 453.1640625 c 0
 193.651367188 440.755522838 197.168236262 427.391088382 205 418 c 1
 127.219726562 379 l 1
 107.91015625 404.20703125 100.17578125 430.604492188 100.17578125 458.407226562 c 0
 100.17578125 534.13671875 152.275390625 596 238.834960938 596 c 0
 315.825195312 596 387.219726562 539.3359375 387.219726562 430 c 0
 387.219726562 398.735351562 380.219726562 357 368.219726562 318 c 1
 368.219726562 318 287.750976562 318 239.219726562 318 c 0
 183.219726562 318 134.219726562 273 134.219726562 217 c 0
 134.219726562 161 172.817382812 112 270.479492188 112 c 0
 389.161132812 112 444.109375 174.814453125 464.479492188 194 c 1
 533.479492188 111 l 1
 494.0703125 70.8330078125 396.762695312 0 270.479492188 0 c 0
 102.927734375 0 22.2197265625 96.6640625 22.2197265625 217 c 0
EndSplineSet
Layer: 2
SplineSet
268.256835938 115 m 4
 386.938476562 115 441.88671875 174.814453125 462.256835938 194 c 5
 531.256835938 111 l 5
 512.243164062 91.62109375 470.245117188 42.2705078125 390.256835938 17.46484375 c 4
 356.3046875 6.9365234375 315.955078125 0 268.256835938 0 c 4
 100.705078125 0 19.9970703125 96.6640625 19.9970703125 217 c 4
 19.9970703125 330.947265625 116.680664062 421.3515625 236.997070312 421.3515625 c 5
 255.83203125 421.3515625 267.997070312 420 285.803710938 418.436523438 c 5
 286.865234375 424.678710938 287.368164062 430.6484375 287.368164062 436.311523438 c 4
 287.368164062 473.944335938 265.138671875 498 236.612304688 498 c 4
 207.256835938 498 191.428710938 477 191.428710938 453.1640625 c 4
 191.428710938 441.108398438 195.013671875 428.124023438 202.997070312 419 c 5
 124.997070312 379 l 5
 105.6875 404.20703125 97.953125 430.604492188 97.953125 458.407226562 c 4
 97.953125 534.13671875 150.052734375 596 236.612304688 596 c 4
 313.602539062 596 384.997070312 539.3359375 384.997070312 430 c 4
 384.997070312 398.735351562 377.997070312 357 365.997070312 318 c 5
 365.997070312 318 285.528320312 318 236.997070312 318 c 4
 180.997070312 318 135.997070312 273 135.997070312 217 c 4
 135.997070312 161 170.594726562 115 268.256835938 115 c 4
896.256835938 318 m 0
 840.256835938 318 795.256835938 273 795.256835938 217 c 0
 795.256835938 161 840.256835938 116 896.256835938 116 c 0
 931.549804688 116 962.826171875 131.385742188 982.918945312 155.436523438 c 1
 1069.25683594 93.0419921875 l 1
 1029.14648438 36.2998046875 966.7109375 0 896.256835938 0 c 0
 775.920898438 0 679.256835938 96.6640625 679.256835938 217 c 0
 679.256835938 330.947265625 775.940429688 421.3515625 896.256835938 421.3515625 c 1
 915.091796875 421.3515625 927.256835938 420 945.063476562 418.436523438 c 1
 946.125 424.678710938 946.627929688 430.6484375 946.627929688 436.311523438 c 0
 946.627929688 473.944335938 924.3984375 498 895.872070312 498 c 0
 866.516601562 498 850.688476562 477 850.688476562 453.1640625 c 0
 850.688476562 441.108398438 854.2734375 428.124023438 862.256835938 419 c 1
 784.256835938 379 l 1
 764.947265625 404.20703125 757.212890625 430.604492188 757.212890625 458.407226562 c 0
 757.212890625 534.13671875 809.3125 596 895.872070312 596 c 0
 972.862304688 596 1044.25683594 539.3359375 1044.25683594 430 c 0
 1044.25683594 398.735351562 1037.25683594 357 1025.25683594 318 c 1
 1025.25683594 318 944.788085938 318 896.256835938 318 c 0
1040.25683594 -54.5634765625 m 1
 1117.25683594 -106.563476562 l 1
 1071.34570312 -175.430664062 1016.58984375 -202.407226562 966.311523438 -202.407226562 c 0
 841.930664062 -202.407226562 772.119140625 -78.939453125 835.256835938 21.5380859375 c 1
 925.256835938 44.4365234375 l 1
 935.256835938 4 l 1
 905.953125 -29.796875 914.252929688 -97 966.311523438 -97 c 0
 990.942382812 -97 1017.765625 -85.0556640625 1040.25683594 -54.5634765625 c 1
433.256835938 489 m 5
 386.256835938 457 392.85546875 403.255859375 392.256835938 327.2265625 c 5
 392.256835938 -205 l 5
 288.256835938 -205 l 5
 288.256835938 -4 l 5
 285.881835938 416 l 5
 285.881835938 416 298.256835938 489 343.951171875 533.184570312 c 5
 346.416992188 535.82421875 416.498046875 613.930664062 491.051757812 613.930664062 c 5
 491.329101562 614.115234375 527.100585938 560.6484375 533.256835938 552 c 5
 521.6015625 545.444335938 517.7734375 532.885742188 517.7734375 516.64453125 c 4
 517.7734375 485.538085938 531.817382812 440.918945312 531.817382812 399.081054688 c 4
 531.817382812 342.80859375 491.256835938 278 387.256835938 298 c 5
 388.256835938 378 l 5
 430.520507812 374.158203125 447.848632812 389.5546875 447.848632812 418.328125 c 4
 447.848632812 442.663085938 437.698242188 471.303710938 433.256835938 489 c 5
EndSplineSet
Layer: 3
SplineSet
708.740234375 379 m 1
 689.430664063 404.20703125 681.696289062 430.604492188 681.696289062 458.407226562 c 0
 681.696289062 534.13671875 733.795898437 596 820.35546875 596 c 0
 897.345703125 596 968.740234375 539.3359375 968.740234375 430 c 0
 968.740234375 398.735351562 961.740234375 357 949.740234375 318 c 1
 949.740234375 318 869.271484375 318 820.740234375 318 c 0
 764.740234375 318 715.740234375 273 715.740234375 217 c 0
 715.740234375 161 754.337890625 112 852 112 c 0
 970.681640624 112 1025.62988281 174.814453125 1046 194 c 1
 1115 111 l 1
 1075.59082031 70.8330078125 978.283203124 0 852 0 c 0
 684.448242187 0 603.740234375 96.6640625 603.740234375 217 c 0
 603.740234375 330.947265625 700.423828125 421.3515625 820.740234375 421.3515625 c 1
 839.575195313 421.3515625 851.740234374 420 869.546875 418.436523438 c 1
 870.608398438 424.678710938 871.111328125 430.6484375 871.111328125 436.311523438 c 0
 871.111328125 473.944335938 848.881835938 498 820.35546875 498 c 0
 791 498 799.002691975 453.658105822 775.171875 453.1640625 c 1024
872 -205 m 1
 869.625 416 l 1
 869.625 416 882 489 927.694335938 533.184570312 c 1
 930.160156251 535.82421875 1000.24121094 613.930664062 1074.79492188 613.930664062 c 1
 1075.07226562 614.115234376 1110.84375 560.6484375 1117 552 c 1
 1105.34472656 545.444335938 1101.51660156 532.885742188 1101.51660156 516.64453125 c 0
 1101.51660156 485.538085938 1115.56054688 440.918945312 1115.56054688 399.081054688 c 0
 1115.56054688 349.94140625 1084.63085937 294.291992188 1007.53613281 294.291992188 c 0
 996.345703124 294.291992188 984.182617187 295.46484375 971 298 c 1
 972 378 l 1
 976.286132812 377.610351562 980.31640625 377.418945312 984.09765625 377.418945312 c 0
 1017.60058594 377.418945312 1031.59179688 392.47265625 1031.59179688 418.328125 c 0
 1031.59179688 442.663085938 1021.44140625 471.303710938 1017 489 c 1
 973.517578124 459 976.598632812 403.255859375 976 327.2265625 c 1
 976 -205 l 1
 872 -205 l 1
97.5078125 458.407226562 m 0
 97.5078125 534.13671875 149.607421875 596 236.166992188 596 c 0
 313.157226562 596 384.551757812 539.3359375 384.551757812 430 c 0
 384.551757812 398.735351562 377.551757812 357 365.551757812 318 c 1
 365.551757812 318 285.083007812 318 236.551757812 318 c 0
 180.551757812 318 135.551757812 273 135.551757812 217 c 0
 135.551757812 161 179.436531884 120.000120604 236.551757812 116 c 0
 377.704101562 106.114257812 434.966796875 199.377929688 449.436523438 218.458984375 c 1
 535.774414062 156.064453125 l 1
 515.436523438 127 435.346683013 -8.34464735957 236.551757812 0 c 0
 117.436523438 5 19.5517578125 96.6640625 19.5517578125 217 c 0
 19.5517578125 330.947265625 116.235351562 421.3515625 236.551757812 421.3515625 c 1
 255.38671875 421.3515625 267.551757812 420 285.358398438 418.436523438 c 1
 286.419921875 424.678710938 286.922851562 430.6484375 286.922851562 436.311523438 c 0
 286.922851562 473.944335938 264.693359375 498 236.166992188 498 c 0
 206.811523438 498 190.983398438 477 190.983398438 453.1640625 c 0
 190.983398438 441.108398438 194.568359375 428.124023438 202.551757812 419 c 1
 124.551757812 379 l 1
 105.2421875 404.20703125 97.5078125 430.604492188 97.5078125 458.407226562 c 0
432.811523438 489 m 1
 385.811523438 457 392.41015625 403.255859375 391.811523438 327.2265625 c 1
 391.811523438 -205 l 1
 287.811523438 -205 l 1
 287.811523438 -4 l 1
 285.436523438 416 l 1
 285.436523438 416 297.811523438 489 343.505859375 533.184570312 c 1
 345.971679688 535.82421875 416.052734375 613.930664062 490.606445312 613.930664062 c 1
 490.883789062 614.115234375 526.655273438 560.6484375 532.811523438 552 c 1
 468.811523438 516 640.811523438 299 386.811523438 285 c 1
 388.811523438 374 l 1
 476.811523438 378 442.161132812 451.747070312 432.811523438 489 c 1
EndSplineSet
EndChar

StartChar: si_U
Encoding: 9 3467 7
Width: 553
VWidth: 0
Flags: HW
LayerCount: 5
Fore
SplineSet
30 135 m 4
 30 295.01953125 112.569335938 423.3515625 319.03515625 423.3515625 c 4
 337.865234375 423.3515625 350.03515625 422 367.841796875 420.436523438 c 5
 368.903320312 426.678710938 369.40625 432.6484375 369.40625 438.311523438 c 4
 369.40625 475.944335938 347.176757812 500 318.650390625 500 c 4
 289.294921875 500 273.466796875 479 273.466796875 455.1640625 c 4
 273.466796875 442.755859375 276.983398438 429.390625 284.815429688 420 c 5
 207.03515625 381 l 5
 187.725585938 406.20703125 179.991210938 432.604492188 179.991210938 460.407226562 c 4
 179.991210938 536.13671875 232.090820312 598 318.650390625 598 c 4
 395.640625 598 467.03515625 541.3359375 467.03515625 432 c 4
 467.03515625 400.735351562 460.03515625 359 448.03515625 320 c 5
 448.03515625 320 367.56640625 320 319.03515625 320 c 4
 201 320 147 242.90625 147 135 c 4
 147 42.460144681 195.210461831 -36 301 -36 c 4
 376.1484375 -36 428.736328125 11.99609375 437.563476562 75 c 5
 551 59 l 5
 538.665039062 -55.1005859375 448.083984375 -152 301 -152 c 4
 114.837890625 -152 30 -20.3154296875 30 135 c 4
EndSplineSet
Layer: 2
SplineSet
319.03515625 318 m 4
 191.622070312 318 147 240.90625 147 133 c 4
 147 27.208984375 187 -38 301 -38 c 4
 376.1484375 -38 428.736328125 9.99609375 437.563476562 73 c 5
 551 57 l 5
 538.665039062 -57.1005859375 448.083984375 -154 301 -154 c 4
 114.837890625 -154 30 -22.3154296875 30 133 c 4
 30 293.01953125 112.569335938 421.3515625 319.03515625 421.3515625 c 5
 337.870117188 421.3515625 350.03515625 420 367.841796875 418.436523438 c 5
 368.903320312 424.678710938 369.40625 430.6484375 369.40625 436.311523438 c 4
 369.40625 473.944335938 347.176757812 498 318.650390625 498 c 4
 289.294921875 498 273.466796875 477 273.466796875 453.1640625 c 4
 273.466796875 441.108398438 277.051757812 428.124023438 285.03515625 419 c 5
 207.03515625 379 l 5
 187.725585938 404.20703125 179.991210938 430.604492188 179.991210938 458.407226562 c 4
 179.991210938 534.13671875 232.090820312 596 318.650390625 596 c 4
 395.640625 596 467.03515625 539.3359375 467.03515625 430 c 4
 467.03515625 398.735351562 460.03515625 357 448.03515625 318 c 5
 448.03515625 318 367.56640625 318 319.03515625 318 c 4
983 479 m 0
 847.212890625 479 815.220703125 352.634765625 815.220703125 208 c 0
 815.220703125 66 880.895507812 -38 987 -38 c 0
 1062.1484375 -38 1114.73632812 9.99609375 1123.56347656 73 c 1
 1237 57 l 1
 1224.66503906 -57.1005859375 1134.08398438 -154 987 -154 c 0
 790.895507812 -154 700.220703125 6 700.220703125 208 c 0
 700.220703125 403.26953125 753.922851562 594 983 594 c 0
 1161 594 1242 451 1242 332 c 0
 1242 195 1176 88 1054 88 c 0
 886 88 871 237.893554688 912 299.893554688 c 1
 907.407226562 299.893554688 875.314453125 299.893554688 869 299.893554688 c 1
 870 394.893554688 l 1
 1065 394.893554688 l 1
 1065 299.893554688 l 1
 1017 299.893554688 999.208007812 269.705078125 999.208007812 242.063476562 c 0
 999.208007812 218.723632812 1021.81542969 197.200195312 1052 197.200195312 c 0
 1104 197.200195312 1128 262 1128 332 c 0
 1128 427.025390625 1080 479 983 479 c 0
EndSplineSet
Layer: 3
SplineSet
319.03515625 320 m 4
 191.622070312 320 138.895507812 213.90625 138.895507812 106 c 4
 138.895507812 0.208984375 187 -89 301 -89 c 4
 376.1484375 -89 428.736328125 -41.00390625 437.563476562 22 c 5
 551 6 l 5
 538.665039062 -108.100585938 448.083984375 -205 301 -205 c 4
 114.837890625 -205 21.8955078125 -49.3154296875 21.8955078125 106 c 4
 21.8955078125 266.01953125 112.569335938 423.3515625 319.03515625 423.3515625 c 5
 337.870117188 423.3515625 350.03515625 422 367.841796875 420.436523438 c 5
 368.903320312 426.678710938 369.40625 432.6484375 369.40625 438.311523438 c 4
 369.40625 475.944335938 347.176757812 500 318.650390625 500 c 4
 289.294921875 500 273.466796875 479 273.466796875 455.1640625 c 4
 273.466796875 443.108398438 277.051757812 430.124023438 285.03515625 421 c 5
 207.03515625 381 l 5
 187.725585938 406.20703125 179.991210938 432.604492188 179.991210938 460.407226562 c 4
 179.991210938 536.13671875 232.090820312 598 318.650390625 598 c 4
 395.640625 598 467.03515625 541.3359375 467.03515625 432 c 4
 467.03515625 400.735351562 460.03515625 359 448.03515625 320 c 5
 448.03515625 320 367.56640625 320 319.03515625 320 c 4
EndSplineSet
EndChar

StartChar: si_Da
Encoding: 42 3503 8
Width: 425
VWidth: 0
Flags: HW
LayerCount: 5
Fore
SplineSet
22 217 m 4
 22 330.947265625 118.6796875 421.3515625 239 421.3515625 c 4
 257.830078125 421.3515625 270 420 287.806640625 418.436523438 c 5
 288.868164062 424.678710938 289.37109375 430.6484375 289.37109375 436.311523438 c 4
 289.37109375 473.944335938 267.141601562 498 238.615234375 498 c 4
 209.259765625 498 193.431640625 477 193.431640625 453.1640625 c 4
 193.431640625 440.755859375 196.948242188 427.390625 204.780273438 418 c 5
 127 379 l 5
 107.690429688 404.20703125 99.9560546875 430.604492188 99.9560546875 458.407226562 c 4
 99.9560546875 534.13671875 152.055664062 596 238.615234375 596 c 4
 315.60546875 596 387 539.3359375 387 430 c 4
 387 398.735351562 380 357 368 318 c 5
 368 318 287.53125 318 239 318 c 4
 183 318 134 274 134 217 c 28
 134 160 180.782178218 116 239 116 c 4
 274.29296875 116 305.569335938 131.385742188 325.662109375 155.436523438 c 5
 412 93.0419921875 l 5
 371.889648438 36.2998046875 309.454101562 0 239 0 c 4
 118.6640625 0 22 96.6640625 22 217 c 4
154.333856138 -57.9704260037 m 4
 154.333856138 -31.6057733374 161.779570223 -4.27516015061 178 21.5380859375 c 5
 268 44.4365234375 l 5
 278 4 l 5
 266.924678581 -8.77351030253 261.220860924 -26.3189626573 261.220860924 -43.2046091962 c 4
 261.220860924 -70.9959599628 276.671610602 -97 309.0546875 -97 c 4
 333.685546875 -97 360.508789062 -85.0556640625 383 -54.5634765625 c 5
 460 -106.563476562 l 5
 414.088867188 -175.430664062 359.333007812 -202.407226562 309.0546875 -202.407226562 c 4
 216.627971923 -202.407226562 154.333856138 -134.229651369 154.333856138 -57.9704260037 c 4
EndSplineSet
EndChar

StartChar: si_Halant
Encoding: 62 3530 9
Width: -29
VWidth: 0
Flags: HW
HStem: 493 233<-735.606 -666.606>
VStem: -735.606 69<493 726>
LayerCount: 5
Fore
SplineSet
-83.6064453125 634.805664062 m 5
 -67.6064453125 712 l 5
 -61.7871093743 710.73828125 -56.5087890622 710.159179688 -51.734375 710.159179688 c 4
 -28.9409956827 710.159179688 -20.6064453125 728.210513735 -20.6064453125 749 c 4
 -20.6064453125 786.60158754 -47.3395452126 787.932617188 -58.798828125 787.932617188 c 4
 -61.8183593748 787.932617188 -64.4980468746 787.602539062 -66.6064453125 787 c 5
 -87.6064453125 824 l 5
 -57.6064453125 866 l 5
 -21.6064453125 866 62.3935546875 862 62.3935546875 749 c 4
 62.3935546875 673.7265625 12.6201171875 629 -44.9306640625 629 c 4
 -57.5957031245 629 -70.6367187505 630.915039062 -83.6064453125 634.805664062 c 5
-150.606445312 866 m 5
 -57.6064453125 866 l 5
 -57.6064453125 812 l 5
 -64.6064453125 796 l 5
 -64.6064453125 767 -64.6064453125 735 -64.6064453125 704 c 5
 -57.6064453125 684 l 5
 -57.6064453125 459 l 5
 -150.606445312 459 l 5
 -150.606445312 866 l 5
EndSplineSet
Layer: 3
SplineSet
-140.606445312 866 m 5
 -57.6064453125 866 l 5
 -57.6064453125 811 62.3935546875 810 62.3935546875 697 c 4
 62.3935546875 607.607421875 -11.6962890625 568.427734375 -83.6064453125 590 c 5
 -68.6064453125 658 l 5
 -27.865234375 649.163085938 -13.6064453125 673.833007812 -13.6064453125 696 c 4
 -13.6064453125 758.701171875 -140.606445312 787 -140.606445312 866 c 5
-140.606445312 866 m 5
 -57.6064453125 866 l 5
 -57.6064453125 459 l 5
 -140.606445312 459 l 5
 -140.606445312 866 l 5
EndSplineSet
EndChar

StartChar: si_DDha
Encoding: 457 -1 10
Width: 754
VWidth: 0
Flags: HMW
LayerCount: 5
Fore
SplineSet
194.673828125 231.204101562 m 4
 194.673828125 277.470703125 200.934570312 319.594726562 208.801757812 345 c 4
 232.87109375 422.728515625 288.252929688 472 360.3515625 472 c 4
 388.118164062 472 417.149414062 465.063476562 445.5234375 445.2578125 c 5
 407.658203125 345 l 5
 393.810546875 352.989257812 381.140625 356.607421875 369.794921875 356.607421875 c 4
 343.01171875 356.607421875 322.970703125 336.647460938 313.538085938 306 c 4
 309.106445312 291.600585938 305.62109375 261.723632812 305.62109375 229.770507812 c 4
 305.62109375 175.234375 315.774414062 114.65234375 348.711914062 114.65234375 c 4
 390.887695312 114.65234375 405.893554688 179.677734375 405.893554688 249.5 c 5
 501.8046875 249.5 l 5
 501.8046875 176.75 517.272460938 115 560.262695312 115 c 4
 617.018554688 115 617.018554688 239.958007812 617.018554688 293 c 4
 617.018554688 522.796875 574.018554688 639.884765625 436.018554688 639.884765625 c 4
 394.915039062 639.884765625 347.255859375 618.959960938 330.200195312 576.85546875 c 5
 221.16796875 613.029296875 l 5
 257.15234375 707.868164062 349.297851562 755 436.018554688 755 c 4
 653.018554688 755 732.018554688 599.055664062 732.018554688 293 c 4
 732.018554688 181.99609375 731.018554688 0 560.262695312 0 c 4
 504.342773438 0 466.3203125 33.14453125 451.5 79.0302734375 c 5
 435.354492188 31.6025390625 395.942382812 0 343.262695312 0 c 4
 226.654296875 0 194.673828125 126.224609375 194.673828125 231.204101562 c 4
22 255 m 4
 22 456.80078125 96.8720703125 527 188.372070312 527 c 4
 257.69140625 527 295.521484375 470.580078125 304 430 c 5
 250 369 l 5
 245.211914062 385.5859375 231.501953125 423 193 423 c 4
 158.987304688 423 128 376.421875 128 255 c 4
 128 126.799804688 151.779296875 101.84375 185 101.84375 c 4
 185 -0.15625 l 4
 90 -0.15625 22 41.419921875 22 255 c 4
EndSplineSet
EndChar

StartChar: si_Va
Encoding: 55 3520 11
Width: 535
VWidth: 0
Flags: HW
LayerCount: 5
Fore
SplineSet
21.8115234375 218.826171875 m 4
 21.8115234375 279.354492188 41.7099609375 335.661132812 72.189453125 362 c 4
 93.208984375 380.1640625 121.286132812 391 157.887695312 391 c 4
 164.887695312 391 238.530273438 391 252 391 c 5
 252 391 325.944335938 306 325.944335938 306 c 5
 325.944335938 306 200.887695312 306 200.887695312 306 c 6
 144.887695312 306 132.487304688 270.6015625 132.487304688 226.6015625 c 4
 132.487304688 174 159.080078125 115 252 115 c 4
 356.452148438 115 398 195.017578125 398 354 c 4
 398 583 326.6796875 640 243.854492188 640 c 4
 202.750976562 640 162.666015625 618.959960938 145.610351562 576.85546875 c 5
 36.578125 613.029296875 l 5
 72.5625 707.868164062 157.133789062 755 243.854492188 755 c 4
 383.326171875 755 514 675.859375 514 354 c 4
 513 118 432 0 252 0 c 4
 74 0 21.8115234375 137 21.8115234375 218.826171875 c 4
61.5361328125 409.272460938 m 4
 61.5361328125 481.53515625 110.506835938 531.563476562 184.80859375 531.563476562 c 4
 261.794921875 531.563476562 333.193359375 474.899414062 333.193359375 365.563476562 c 4
 333.193359375 351 330 325 325.944335938 306 c 5
 235.564453125 371.875 l 5
 236.504987296 376.782574445 236.979352738 381.77029089 236.979352738 386.713601115 c 4
 236.979352738 416.143780956 220.16565861 444 184.80859375 444 c 4
 160.008789062 444 151.016601562 426.133789062 151.016601562 404.787109375 c 4
 151.016601562 386.79296875 163.301757812 370.325195312 172 356 c 5
 92 318.563476562 l 5
 72 351 61.5361328125 380.620117188 61.5361328125 409.272460938 c 4
EndSplineSet
EndChar

StartChar: si_I
Encoding: 7 3465 15
Width: 524
VWidth: 0
Flags: HW
LayerCount: 5
Fore
SplineSet
80.0546875 -109.563476562 m 1
 157.0546875 -57.5634765625 l 1
 179.740190531 -88.1525537282 204.05164431 -99.9253375518 224.940344138 -99.9253375518 c 0
 255.565813423 -99.9253375518 278.833984375 -74.6194335748 278.833984375 -46.205078125 c 0
 278.833984375 -22.3093976337 268.856403127 12.5681770114 209.505959704 12.5681770114 c 0
 201.286306069 12.5681770114 192.119658051 11.8992089626 181.901367188 10.439453125 c 1
 195 69 l 1
 305 54 l 1
 356 47.986328125 385.674804688 2.67841304691e-15 385.674804688 -50.5830078125 c 0
 385.674804688 -144.590496767 314.848759588 -203.81711117 235.823245341 -203.81711117 c 0
 180.838055468 -203.81711117 121.883304112 -175.144073552 80.0546875 -109.563476562 c 1
22.4984876113 354.12256084 m 0
 22.4984876113 475.952391512 105.065072261 594 246.098632812 594 c 0
 386.48046875 594 502 496 502 297.078125 c 0
 502 130 397.425815366 44.4567753822 319 34 c 0
 254.855901786 25.4474535714 231 20 181.901367188 10.439453125 c 1
 180 106 l 1
 268 106 387 129 387 297.078125 c 0
 387 416 323.379882812 482 246.098632812 482 c 0
 159.622964289 482 118.004479442 430 118.004479442 375.000001671 c 0
 118.004479442 374.666757966 128 298.333007812 128 298 c 1
 126 212 l 1
 53 232 l 1
 32.3400007425 270.12701493 22.4984876113 312.345343401 22.4984876113 354.12256084 c 0
139.140625 294.859375 m 0
 139.140625 270.4921875 158.633789062 251 183 251 c 0
 207.3671875 251 226.861328125 270.4921875 226.861328125 294.859375 c 0
 226.861328125 319.2265625 207.3671875 338.720703125 183 338.720703125 c 0
 158.633789062 338.720703125 139.140625 319.2265625 139.140625 294.859375 c 0
37.11328125 298.48828125 m 0
 37.11328125 335.545898438 67.423828125 359.978515625 111 387 c 1
 131.460123785 419.224694962 167.860944166 433.396546232 204.14786583 433.396546232 c 0
 238.802688303 433.396546232 273.353627429 420.470857647 293.81640625 398 c 0
 317.63966767 371.838884702 332.098632812 336.970703125 332.098632812 298.48828125 c 0
 332.098632812 216.549804688 266.54296875 151 184.6015625 151 c 0
 112.419179271 151 52.9551358373 201.869569905 39.8181448331 269.999997081 c 0
 38.0425632491 279.208432389 37.11328125 288.732187917 37.11328125 298.48828125 c 0
EndSplineSet
Layer: 2
SplineSet
170.901367188 11 m 1
 176.950195312 10.330078125 182.951171875 9.810546875 188.901367188 9.439453125 c 1
 363.4140625 -1.455078125 493.901367188 114.91796875 493.901367188 297.078125 c 0
 493.901367188 496 378.381835938 594 238 594 c 0
 49 594 -35 382 44 233 c 1
 89 285 l 1
 114 371 l 1
 114 426.325195312 151 480 238 480 c 0
 315.28125 480 378.901367188 416 378.901367188 297.078125 c 0
 378.901367188 176.528320312 296 101 187 114 c 0
 170.901367188 11 l 1
29.0146484375 298.48828125 m 0
 29.0146484375 216.549804688 94.564453125 151 176.502929688 151 c 0
 258.444335938 151 324 216.549804688 324 298.48828125 c 0
 324 336.970703125 309.541015625 371.838867188 285.717773438 398 c 0
 262.909179688 423.046875 228.567382812 437 195.227539062 437 c 0
 158.885742188 437 123.732421875 420.948242188 106 398 c 1
 62.423828125 370.978515625 29.0146484375 335.545898438 29.0146484375 298.48828125 c 0
131.041992188 294.859375 m 0
 131.041992188 319.2265625 150.53515625 338.720703125 174.901367188 338.720703125 c 0
 199.268554688 338.720703125 218.762695312 319.2265625 218.762695312 294.859375 c 0
 218.762695312 270.4921875 199.268554688 251 174.901367188 251 c 0
 150.53515625 251 131.041992188 270.4921875 131.041992188 294.859375 c 0
164.0546875 -58.5634765625 m 1
 87.0546875 -110.563476562 l 1
 189 -270.397460938 392.674804688 -211 392.674804688 -51.5830078125 c 0
 392.674804688 -14 363 46.986328125 312 53 c 1
 249.0546875 40.4365234375 l 1
 204 9 l 1
 288 21 285.833984375 -30.3193359375 285.833984375 -47.205078125 c 0
 285.833984375 -95 215.271484375 -128 164.0546875 -58.5634765625 c 1
EndSplineSet
Layer: 3
SplineSet
814.802734375 10.439453125 m 1
 829.901367188 23 841.911132812 31 855.901367188 31 c 1
 868.721679688 31 882.37109375 9.3671875 894.901367188 11.3408203125 c 0
 920.509765625 15.373046875 928.012695312 39.1455078125 953.901367188 44 c 0
 1049.90136719 62 1134.90136719 144.319335938 1134.90136719 297.078125 c 0
 1134.90136719 496 1019.38183594 594 879 594 c 0
 690 594 606 382 685 233 c 1
 730 285 l 1
 750.901367188 374 l 1
 750.901367188 429.325195312 792 482 879 482 c 0
 956.28125 482 1019.90136719 416 1019.90136719 297.078125 c 0
 1019.90136719 129 900.901367188 106 812.901367188 106 c 1
 814.802734375 10.439453125 l 1
670.014648438 298.48828125 m 0
 670.014648438 216.549804688 735.564453125 151 817.502929688 151 c 0
 899.444335938 151 965 216.549804688 965 298.48828125 c 0
 965 336.970703125 950.541015625 371.838867188 926.717773438 398 c 0
 884.828125 444 786.901367188 447 746.901367188 384 c 1
 703.325195312 356.978515625 670.014648438 335.545898438 670.014648438 298.48828125 c 0
772.041992188 294.859375 m 0
 772.041992188 319.2265625 791.53515625 338.720703125 815.901367188 338.720703125 c 0
 840.268554688 338.720703125 859.762695312 319.2265625 859.762695312 294.859375 c 0
 859.762695312 270.4921875 840.268554688 251 815.901367188 251 c 0
 791.53515625 251 772.041992188 270.4921875 772.041992188 294.859375 c 0
789.956054688 -57.5634765625 m 1
 712.956054688 -109.563476562 l 1
 814.901367188 -269.397460938 1018.57617188 -210 1018.57617188 -50.5830078125 c 0
 1018.57617188 0 988.901367188 47.986328125 937.901367188 54 c 1
 827.901367188 69 l 1
 814.802734375 10.439453125 l 1
 898.802734375 22.439453125 911.735351562 -19 911.735351562 -46.205078125 c 0
 911.735351562 -94 845.901367188 -133 789.956054688 -57.5634765625 c 1
34.615234375 298.48828125 m 0
 34.615234375 216.549804688 100.165039062 151 182.103515625 151 c 0
 264.044921875 151 329.600585938 216.549804688 329.600585938 298.48828125 c 0
 329.600585938 336.970703125 315.141601562 371.838867188 291.318359375 398 c 0
 268.509765625 423.046875 234.16796875 437 200.828125 437 c 0
 164.486328125 437 129.333007812 420.948242188 111.600585938 398 c 1
 68.0244140625 370.978515625 34.615234375 335.545898438 34.615234375 298.48828125 c 0
130.8359375 298.48828125 m 0
 130.8359375 325.829101562 152.70703125 347.702148438 180.046875 347.702148438 c 0
 207.38671875 347.702148438 229.259765625 325.829101562 229.259765625 298.48828125 c 0
 229.259765625 271.1484375 207.38671875 249.27734375 180.046875 249.27734375 c 0
 152.70703125 249.27734375 130.8359375 271.1484375 130.8359375 298.48828125 c 0
49.6005859375 233 m 1
 94.6005859375 285 l 1
 119.600585938 371 l 1
 119.600585938 426.325195312 156.600585938 480 243.600585938 480 c 0
 320.881835938 480 384.501953125 416 384.501953125 297.078125 c 0
 384.501953125 176.528320312 301.600585938 101 192.600585938 114 c 0
 150.600585938 13 l 1
 341.600585938 -13 499.501953125 86.609375 499.501953125 297.078125 c 0
 499.501953125 496 383.982421875 594 243.600585938 594 c 0
 54.6005859375 594 -29.3994140625 382 49.6005859375 233 c 1
169.655273438 -58.5634765625 m 1
 92.6552734375 -110.563476562 l 1
 194.600585938 -270.397460938 398.275390625 -211 398.275390625 -51.5830078125 c 0
 398.275390625 -14 368.600585938 46.986328125 317.600585938 53 c 1
 254.655273438 40.4365234375 l 1
 209.600585938 9 l 1
 293.600585938 21 291.434570312 -30.3193359375 291.434570312 -47.205078125 c 0
 291.434570312 -95 220.872070312 -128 169.655273438 -58.5634765625 c 1
EndSplineSet
EndChar

StartChar: si_Ii
Encoding: 8 3466 16
Width: 502
VWidth: 0
Flags: HW
LayerCount: 5
Fore
SplineSet
411 721 m 0
 411 753 437 779 469 779 c 0
 501 779 527 753 527 721 c 0
 527 689 501 663 469 663 c 0
 437 663 411 689 411 721 c 0
101 721 m 0
 101 762 133.603515625 779 170 779 c 0
 201.033203125 779 225 765 225 736 c 0
 225 699.5 195.4140625 663 159 663 c 0
 127 663 101 689 101 721 c 0
22 276.064453125 m 1
 22 394 59.4882902017 475.000694653 137.044921875 552 c 0
 269.66967248 683.671701672 277 720 277 779 c 1
 387 779 l 1
 387 681.14870328 336.722285698 617 259 537 c 0
 248.536472391 526.229830271 134.779296875 461 134.779296875 274.73828125 c 1
 88 202 l 1
 22 276.064453125 l 1
134.779296875 274.73828125 m 0
 134.779296875 185.564453125 166.073242188 111.424804688 250.25390625 111.424804688 c 0
 331.528320312 111.424804688 361.0703125 185.564453125 361.0703125 274.73828125 c 0
 361.0703125 362.481445312 331.528320312 440.705078125 250.25390625 440.705078125 c 0
 166.073242188 440.705078125 134.779296875 362.481445312 134.779296875 274.73828125 c 0
  Spiro
    182.956 417.22 o
    145.983 356.69 o
    134.778 274.739 o
    145.983 192.837 o
    182.956 133.906 o
    250.252 111.425 o
    315.053 133.906 o
    350.423 192.837 o
    361.073 274.739 o
    350.423 356.69 o
    315.053 417.22 o
    250.252 440.706 o
    0 0 z
  EndSpiro
22 276.064453125 m 0
 22 351.296437943 39.1197881411 418.008833656 73.815054371 467.000004006 c 0
 81.5432850387 477.912589678 160.131835938 495.506835938 191 511 c 1
 202.592123004 523.037973889 240.825429719 539.647957042 285.949331839 539.647957042 c 0
 342.033936105 539.647957042 408.763175339 513.988750972 448.215063828 421.999995171 c 0
 466.19537313 380.075860612 475.086914062 330.282604644 475.086914062 276.064453125 c 0
 475.086914062 118.177734375 401.045898438 0 248.224609375 0 c 0
 96.0419921875 0 22 118.177734375 22 276.064453125 c 0
EndSplineSet
EndChar

StartChar: si_vocalicR
Encoding: 11 3469 18
Width: 896
VWidth: 0
Flags: HW
LayerCount: 5
Fore
SplineSet
589 143 m 0
 589 256.620117188 650.615234375 292.602539062 703.137695312 292.602539062 c 0
 730.629882812 292.602539062 755.630859375 282.743164062 768 269 c 1
 753 185 l 1
 745.661132812 190.536132812 732.7890625 196 719.950195312 196 c 0
 701.940429688 196 684 185.986328125 684 151 c 0
 684 105.760742188 703.494140625 94.763671875 722.705078125 94.763671875 c 0
 730.547851562 94.763671875 738.0546875 98.400390625 745 98.400390625 c 0
 752 98.400390625 758 98 761 97 c 1
 801 0 l 1
 791.302734375 13.0380859375 781.399414062 17.259765625 770.887695312 17.259765625 c 0
 747.71875 17.259765625 722.0859375 3 691 3 c 0
 615 3 589 90 589 143 c 0
597 367 m 0
 596.000976562 379.280273438 595.50390625 390.916015625 595.50390625 401.916992188 c 0
 595.50390625 505.58203125 639.638671875 552.9296875 724 552.9296875 c 0
 809.813476562 552.9296875 851.96484375 509.858398438 851.96484375 397.94140625 c 0
 851.96484375 322.78515625 837.708984375 247.059570312 837.708984375 183.677734375 c 0
 837.708984375 133.735963474 846.274540936 88.4799127112 876 48 c 1
 801 0 l 1
 749.345945907 61.327286553 734.165039062 109.829636154 734.165039062 172 c 0
 734.165039062 227.094441314 755 316.853591043 755 400.966796875 c 0
 755 435.521484375 747.296175929 455 724 455 c 0
 696.975585938 455 687.836914062 435.611328125 687.836914062 401.237304688 c 0
 687.836914062 391.092773438 688.6328125 379.642578125 690 367 c 0
 597 367 l 0
254.374023438 467.353515625 m 0
 254.374023438 473.071289062 254.938442135 478.329110782 256.189453125 483 c 0
 275.815429688 556.27734375 334.908203125 594 397.7265625 594 c 0
 484.286132812 594 536.385742188 532.13671875 536.385742188 456.407226562 c 0
 536.385742188 428.149414062 525.137695312 394.649414062 505 369.030273438 c 1
 428.291015625 410.436523438 l 1
 436.274414062 419.560546875 442.91015625 439.108398438 442.91015625 451.1640625 c 0
 442.91015625 475 428.697265625 496 393.553710938 496 c 0
 370.815429688 496 341.989257812 481.030273438 341.989257812 434.341796875 c 0
 341.989257812 428.678710938 342.4921875 422.2421875 343.553710938 416 c 1
 297.053710938 318.436523438 l 1
 284.442382812 359.422851562 254.374023438 425.625 254.374023438 467.353515625 c 0
139.333984375 207 m 0
 139.333984375 157.264648438 153.522460938 115 188.81640625 115 c 0
 235.516601562 115 251.447265625 176.75 251.447265625 249.5 c 1
 342.66015625 249.5 l 1
 342.66015625 176.75 358.590820312 115 405.291015625 115 c 0
 440.584960938 115 454.7734375 157.264648438 454.7734375 207 c 0
 454.7734375 258.725585938 435 318 394.53515625 318 c 2
 199.572265625 318 l 2
 159 318 139.333984375 258.725585938 139.333984375 207 c 0
32.333984375 207 m 4
 32.333984375 287.78515625 51.6728515625 344.021484375 94.107421875 380.399414062 c 4
 117.331054688 400.309570312 148 416 182.291015625 416 c 6
 411.81640625 416 l 2
 446 416 476.776110492 400.30939399 499.99999804 380.399861701 c 0
 542.434526312 344.021300658 561.7734375 287.78473744 561.7734375 207 c 0
 561.7734375 95.095703125 516.904296875 0 405.291015625 0 c 0
 352.611328125 0 313.19921875 31.6025390625 297.053710938 79.0302734375 c 1
 280.908203125 31.6025390625 241.49609375 0 188.81640625 0 c 0
 77.203125 0 32.333984375 95.095703125 32.333984375 207 c 4
57.7216796875 456.407226562 m 0
 57.7216796875 532.13671875 109.821289062 594 196.380859375 594 c 0
 259.19921875 594 318.292532288 556.277488404 337.91796875 483 c 0
 339.168945312 478.329101562 339.733398438 473.071289062 339.733398438 467.353515625 c 0
 339.733398438 425.625 309.665039062 359.422851562 297.053710938 318.436523438 c 1
 250.553710938 416 l 1
 251.615234375 422.2421875 252.118164062 428.678710938 252.118164062 434.341796875 c 0
 252.118164062 481.787109375 223.291992188 497 200.553710938 497 c 0
 165.41015625 497 151.197265625 476 151.197265625 452.1640625 c 0
 151.197265625 439.8125 157.833007812 419.784179688 165.81640625 410.436523438 c 1
 89.107421875 369.030273438 l 1
 68.9697265625 394.649414062 57.7216796875 428.149414062 57.7216796875 456.407226562 c 0
EndSplineSet
EndChar

StartChar: si_vocalicRr
Encoding: 12 3470 19
Width: 1190
VWidth: 0
Flags: HW
LayerCount: 5
Fore
SplineSet
883 143 m 0
 883 256.620117188 944.615234375 292.602539062 997.137695312 292.602539062 c 0
 1024.62988281 292.602539062 1049.63085938 282.743164062 1062 269 c 1
 1047 185 l 1
 1039.66113281 190.536132812 1026.7890625 196 1013.95019531 196 c 0
 995.940429688 196 978 185.986328125 978 151 c 0
 978 105.760742188 997.494140625 94.763671875 1016.70507812 94.763671875 c 0
 1024.54785156 94.763671875 1032.0546875 98.400390625 1039 98.400390625 c 0
 1046 98.400390625 1052 98 1055 97 c 1
 1095 0 l 1
 1085.30273438 13.0380859375 1075.39941406 17.259765625 1064.88769531 17.259765625 c 0
 1041.71875 17.259765625 1016.0859375 3 985 3 c 0
 909 3 883 90 883 143 c 0
891 367 m 0
 890.000976562 379.280273438 889.50390625 390.916015625 889.50390625 401.916992188 c 0
 889.50390625 505.58203125 933.638671875 552.9296875 1018 552.9296875 c 0
 1103.81347656 552.9296875 1145.96484375 509.858398438 1145.96484375 397.94140625 c 0
 1145.96484375 322.78515625 1131.70898438 247.059570312 1131.70898438 183.677734375 c 0
 1131.70898438 133.736328125 1140.27441406 88.4794921875 1170 48 c 1
 1095 0 l 1
 1043.34570312 61.3271484375 1028.16503906 109.830078125 1028.16503906 172 c 0
 1028.16503906 227.094726562 1049 316.853515625 1049 400.966796875 c 0
 1049 435.521484375 1041.29589844 455 1018 455 c 0
 990.975585938 455 981.836914062 435.611328125 981.836914062 401.237304688 c 0
 981.836914062 391.092773438 982.6328125 379.642578125 984 367 c 0
 891 367 l 0
589 143 m 0
 589 256.620117188 650.615234375 292.602539062 703.137695312 292.602539062 c 0
 730.629882812 292.602539062 755.630859375 282.743164062 768 269 c 1
 753 185 l 1
 745.661132812 190.536132812 732.7890625 196 719.950195312 196 c 0
 701.940429688 196 684 185.986328125 684 151 c 0
 684 105.760742188 703.494140625 94.763671875 722.705078125 94.763671875 c 0
 730.547851562 94.763671875 738.0546875 98.400390625 745 98.400390625 c 0
 752 98.400390625 758 98 761 97 c 1
 801 0 l 1
 791.302734375 13.0380859375 781.399414062 17.259765625 770.887695312 17.259765625 c 0
 747.71875 17.259765625 722.0859375 3 691 3 c 0
 615 3 589 90 589 143 c 0
597 367 m 0
 596.000976562 379.280273438 595.50390625 390.916015625 595.50390625 401.916992188 c 0
 595.50390625 505.58203125 639.638671875 552.9296875 724 552.9296875 c 0
 809.813476562 552.9296875 851.96484375 509.858398438 851.96484375 397.94140625 c 0
 851.96484375 322.78515625 837.708984375 247.059570312 837.708984375 183.677734375 c 0
 837.708984375 133.735963474 846.274540936 88.4799127112 876 48 c 1
 801 0 l 1
 749.345945907 61.327286553 734.165039062 109.829636154 734.165039062 172 c 0
 734.165039062 227.094441314 755 316.853591043 755 400.966796875 c 0
 755 435.521484375 747.296175929 455 724 455 c 0
 696.975585938 455 687.836914062 435.611328125 687.836914062 401.237304688 c 0
 687.836914062 391.092773438 688.6328125 379.642578125 690 367 c 0
 597 367 l 0
254.374023438 467.353515625 m 0
 254.374023438 473.071289062 254.938442135 478.329110782 256.189453125 483 c 0
 275.815429688 556.27734375 334.908203125 594 397.7265625 594 c 0
 484.286132812 594 536.385742188 532.13671875 536.385742188 456.407226562 c 0
 536.385742188 428.149414062 525.137695312 394.649414062 505 369.030273438 c 1
 428.291015625 410.436523438 l 1
 436.274414062 419.560546875 442.91015625 439.108398438 442.91015625 451.1640625 c 0
 442.91015625 475 428.697265625 496 393.553710938 496 c 0
 370.815429688 496 341.989257812 481.030273438 341.989257812 434.341796875 c 0
 341.989257812 428.678710938 342.4921875 422.2421875 343.553710938 416 c 1
 297.053710938 318.436523438 l 1
 284.442382812 359.422851562 254.374023438 425.625 254.374023438 467.353515625 c 0
139.333984375 207 m 0
 139.333984375 157.264648438 153.522460938 115 188.81640625 115 c 0
 235.516601562 115 251.447265625 176.75 251.447265625 249.5 c 1
 342.66015625 249.5 l 1
 342.66015625 176.75 358.590820312 115 405.291015625 115 c 0
 440.584960938 115 454.7734375 157.264648438 454.7734375 207 c 0
 454.7734375 258.725585938 435 318 394.53515625 318 c 2
 199.572265625 318 l 2
 159 318 139.333984375 258.725585938 139.333984375 207 c 0
32.333984375 207 m 0
 32.333984375 287.78515625 51.6728515625 344.021484375 94.107421875 380.399414062 c 0
 117.331054688 400.309570312 148 416 182.291015625 416 c 2
 411.81640625 416 l 2
 446 416 476.776110492 400.30939399 499.99999804 380.399861701 c 0
 542.434526312 344.021300658 561.7734375 287.78473744 561.7734375 207 c 0
 561.7734375 95.095703125 516.904296875 0 405.291015625 0 c 0
 352.611328125 0 313.19921875 31.6025390625 297.053710938 79.0302734375 c 1
 280.908203125 31.6025390625 241.49609375 0 188.81640625 0 c 0
 77.203125 0 32.333984375 95.095703125 32.333984375 207 c 0
57.7216796875 456.407226562 m 0
 57.7216796875 532.13671875 109.821289062 594 196.380859375 594 c 0
 259.19921875 594 318.292532288 556.277488404 337.91796875 483 c 0
 339.168945312 478.329101562 339.733398438 473.071289062 339.733398438 467.353515625 c 0
 339.733398438 425.625 309.665039062 359.422851562 297.053710938 318.436523438 c 1
 250.553710938 416 l 1
 251.615234375 422.2421875 252.118164062 428.678710938 252.118164062 434.341796875 c 0
 252.118164062 481.787109375 223.291992188 497 200.553710938 497 c 0
 165.41015625 497 151.197265625 476 151.197265625 452.1640625 c 0
 151.197265625 439.8125 157.833007812 419.784179688 165.81640625 410.436523438 c 1
 89.107421875 369.030273438 l 1
 68.9697265625 394.649414062 57.7216796875 428.149414062 57.7216796875 456.407226562 c 0
EndSplineSet
EndChar

StartChar: si_vocalicL
Encoding: 13 3471 20
Width: 940
VWidth: 0
Flags: HW
LayerCount: 5
Fore
SplineSet
703.525390625 129.615234375 m 0
 703.525390625 107.364257812 721.158203125 89.4404296875 743.046875 89.4404296875 c 0
 764.935546875 89.4404296875 782.568359375 107.364257812 782.568359375 129.615234375 c 0
 782.568359375 151.865234375 764.935546875 169.790039062 743.046875 169.790039062 c 0
 721.158203125 169.790039062 703.525390625 151.865234375 703.525390625 129.615234375 c 0
614.043945312 130 m 0
 614.043945312 202 672.043945312 260 735.525390625 260 c 0
 819.525390625 260 850.525390625 176 850.525390625 130 c 0
 850.525390625 58 803.018554688 0 744.043945312 0 c 0
 672.043945312 0 614.043945312 58 614.043945312 130 c 0
801.52734375 280.15625 m 0
 801.52734375 424.59375 768.111328125 480 731.434570312 480 c 0
 692.932617188 480 679.22265625 442.5859375 674.434570312 426 c 1
 620.434570312 487 l 1
 628.913085938 527.580078125 666.743164062 584 736.0625 584 c 0
 827.5625 584 902.434570312 506.57421875 902.434570312 284 c 0
 902.434570312 46.2763671875 813.126953125 0.15625 744.045898438 0 c 0
 744.045898438 82.15625 l 0
 773.16015625 82.15625 795.643554688 97 795.643554688 145 c 1
 799.9921875 174.9375 801.52734375 218.229492188 801.52734375 280.15625 c 0
419.083984375 467.353515625 m 0
 419.083984375 473.071289062 419.648403073 478.329110783 420.899414062 483 c 0
 440.525390625 556.27734375 499.618164062 594 562.436523438 594 c 0
 648.99609375 594 701.095703125 532.13671875 701.095703125 456.407226562 c 0
 701.095703125 428.149414062 689.84765625 394.649414062 669.709960938 369.030273438 c 1
 593.000976562 410.436523438 l 1
 600.984375 419.560546875 607.620117188 439.108398438 607.620117188 451.1640625 c 0
 607.620117188 475 593.407226562 496 558.263671875 496 c 0
 535.525390625 496 506.69921875 481.030273438 506.69921875 434.341796875 c 0
 506.69921875 428.678710938 507.202148438 422.2421875 508.263671875 416 c 0
 461.763671875 318.436523438 l 1
 449.15234375 359.422851562 419.083984375 425.625 419.083984375 467.353515625 c 0
304.04296875 224 m 0
 304.04296875 144.037109375 382.754882812 104.166992188 461.540039062 104.166992188 c 0
 540.473632812 104.166992188 619.482421875 144.186523438 619.482421875 224 c 0
 619.482421875 275.725585938 592.04296875 318 537.04296875 318 c 2
 386.482421875 318 l 2
 331.482421875 318 304.04296875 275.725585938 304.04296875 224 c 0
197.04296875 224 m 0
 197.04296875 329.65234375 258.099609375 416 380.482421875 416 c 2
 543.04296875 416 l 2
 665.42578125 416 726.484375 329.65234375 726.484375 224 c 0
 726.484375 202.666015625 724.055664062 182.776367188 719.52734375 164.33203125 c 1
 705.401851616 154.654475116 700.513837632 140.254739397 700.513837632 126.901433086 c 0
 700.513837632 123.238729525 700.881592439 119.654755166 701.52734375 116.268554688 c 1
 657.009765625 30.5908203125 559.38671875 -12.2490234375 461.763671875 -12.2490234375 c 0
 364.140625 -12.2490234375 266.517578125 30.5908203125 222 116.268554688 c 1
 222.645751311 119.654755166 223.013506118 123.238729525 223.013506118 126.901433086 c 0
 223.013506118 140.254739397 218.125492134 154.654475116 204 164.33203125 c 1
 199.471679688 182.776367188 197.04296875 202.666015625 197.04296875 224 c 0
222.431640625 456.407226562 m 0
 222.431640625 532.13671875 274.53125 594 361.090820312 594 c 0
 423.909179688 594 483.002493226 556.277488404 502.627929688 483 c 0
 503.87890625 478.329101562 504.443359375 473.071289062 504.443359375 467.353515625 c 0
 504.443359375 425.625 474.375 359.422851562 461.763671875 318.436523438 c 1
 415.263671875 416 l 0
 416.325195312 422.2421875 416.828125 428.678710938 416.828125 434.341796875 c 0
 416.828125 481.030273438 388.001953125 496 365.263671875 496 c 0
 330.120117188 496 315.907226562 475 315.907226562 451.1640625 c 0
 315.907226562 439.108398438 322.54296875 419.560546875 330.526367188 410.436523438 c 1
 253.817382812 369.030273438 l 1
 233.6796875 394.649414062 222.431640625 428.149414062 222.431640625 456.407226562 c 0
21.0927734375 284 m 0
 21.0927734375 506.57421875 95.9645827931 584 187.46484375 584 c 0
 256.784179687 584 294.614257813 527.580078125 303.092773438 487 c 1
 249.092773438 426 l 1
 244.304762598 442.5859375 230.594667047 480 192.092773438 480 c 0
 155.41567232 480 122 424.593503524 122 280.15625 c 0
 122 218.229928154 123.535609681 174.937679731 127.883979271 145 c 1
 127.883979271 97 150.367061353 82.15625 179.481445312 82.15625 c 0
 179.481445312 0 l 0
 110.399911787 0.15625 21.0927734375 46.2763671875 21.0927734375 284 c 0
140.95703125 129.615234375 m 0
 140.95703125 107.364257812 158.58984375 89.4404296875 180.478515625 89.4404296875 c 0
 202.3671875 89.4404296875 220 107.364257812 220 129.615234375 c 0
 220 151.865234375 202.3671875 169.790039062 180.478515625 169.790039062 c 0
 158.58984375 169.790039062 140.95703125 151.865234375 140.95703125 129.615234375 c 0
73 130 m 0
 73 176 104 260 188 260 c 0
 251.481445312 260 309.481445312 202 309.481445312 130 c 0
 309.481445312 58 251.481445312 0 179.481445312 0 c 0
 120.506835938 0 73 58 73 130 c 0
EndSplineSet
EndChar

StartChar: si_E
Encoding: 15 3473 22
Width: 542
Flags: HW
LayerCount: 5
Fore
SplineSet
221.616210938 601 m 4
 221.616210938 673.485789922 284 693.09459914 284 719 c 4
 284 727.052774988 279.916318303 735.27209826 269.059570312 745.176757812 c 5
 362.942382812 755 l 5
 351.616210938 643 l 5
 334.607346755 636.648995536 324.616210938 619.604306175 324.616210938 605 c 4
 324.616210938 584.662446787 339.836696982 558 376.479492188 558 c 4
 383.256941312 558 390.426695601 559.281025828 398 562 c 5
 474.942382812 524 l 5
 418 460 l 5
 409.158497629 460 400.404167705 460 391.767578125 460 c 4
 298.145092967 460 221.616210938 529.568527186 221.616210938 601 c 4
28.12 200.596 m 1
 28.1201 243.2708 40.498 281.6497 58.7617 306 c 1
 22 306 l 1
 22 393 l 1
 286.866 390 l 1
 320.7058 306 l 1
 213.7618 306 l 2
 156.9766 306 136.7432 261.9111 136.7432 214.0684 c 0
 136.7432 166.5733 169.9375 115 265.0002 115 c 0
 395.0632 115 428.1982 234.833 428.1982 343.766 c 0
 428.1982 394.6713 416.921568361 442.472859257 413 476 c 1
 410.33203 498.8096 406.00293 520.5 399 541 c 1
 393.03906 582.6074 371.1807 626.1963 343 647 c 1
 324.5205 687.1553 298.6758 721.1562 269.0596 745.1768 c 1
 324 811 l 1
 451.104 745.25 540.058 530.927 540.058 339.12 c 0
 540.058 159.711 462.2309 0 265 0 c 0
 83.812 0 28.12 112.89 28.12 200.596 c 1
56.29762 409.272 m 1
 56.2979 481.5347 105.2686 531.563 179.5699 531.563 c 0
 256.5562 531.563 327.9549 474.898 327.9549 365.563 c 0
 327.9549 350.9985 324.76154 324.9985 320.70588 305.9985 c 1
 230.32598 371.8735 l 1
 231.26641 376.7817 231.74102 381.76901 231.74102 386.7124 c 0
 231.74102 416.1431 214.92652 443.9985 179.57012 443.9985 c 0
 154.77032 443.9985 145.77812 426.1323 145.77812 404.7856 c 0
 145.77812 386.7924 158.06332 370.3237 166.76152 355.9985 c 1
 86.76152 318.563 l 1
 66.76152 350.9985 56.29762 380.6187 56.29762 409.272 c 1
EndSplineSet
EndChar

StartChar: si_Ee
Encoding: 16 3474 23
Width: 542
Flags: HW
LayerCount: 5
Fore
SplineSet
488 634.806 m 1
 504 712.0003 l 1
 509.81934 710.73858 515.0977 710.15948 519.8721 710.15948 c 0
 542.6655 710.15948 551 728.21078 551 749.00028 c 0
 551 786.60188 524.2669 787.93288 512.8076 787.93288 c 0
 509.78807 787.93288 507.10838 787.602802 504.99998 787.000263 c 1
 483.99998 824.000263 l 1
 513.99998 866.000263 l 1
 549.99998 866.000263 633.99998 862.000263 633.99998 749.000263 c 0
 633.99998 673.726863 584.22658 629.000263 526.67598 629.000263 c 0
 514.01098 629.000263 500.96988 630.915303 488 634.806 c 1
424 866 m 1
 514 866 l 1
 514 812 l 1
 511 796 l 1
 511 704 l 1
 514 684 l 1
 514 459 l 1
 431 459 l 1
 431 459 433 571 433 643 c 0
 433 665.5799 432.822975629 686.21260001 432.518579 705 c 0
 430.652559 820.171 423.999999 866 424 866 c 1
221.616210938 601 m 0
 221.616210938 673.485789922 284 693.09459914 284 719 c 0
 284 727.052774988 279.916318303 735.27209826 269.059570312 745.176757812 c 1
 362.942382812 755 l 1
 351.616210938 643 l 1
 334.607346754 636.648995536 324.616210938 619.604306175 324.616210938 605 c 0
 324.616210938 584.662446787 339.836696981 558 376.479492188 558 c 0
 383.256941312 558 390.426695601 559.281025828 398 562 c 1
 474.942382812 524 l 1
 418 460 l 1
 409.158497629 460 400.404167705 460 391.767578125 460 c 0
 298.145092967 460 221.616210938 529.568527186 221.616210938 601 c 0
28.1201 200.596 m 1
 28.1204 243.2706 40.4984 281.6492 58.7617 306 c 1
 22 306 l 1
 22 393 l 1
 286.866 390 l 1
 320.7058 306 l 1
 213.7618 306 l 2
 156.9766 306 136.7432 261.9111 136.7432 214.0684 c 0
 136.7432 166.5733 169.9376 115 265.0002 115 c 0
 395.0632 115 428.1982 234.833 428.1982 343.766 c 0
 428.1982 394.6713 420.96222 443.1963 413.0002 476 c 1
 410.33221 498.8092 406.00245 520.4996 399.0002 541 c 1
 393.03877 582.6075 371.1802 626.1963 343.0002 647 c 1
 324.5205 687.155 298.6759 721.1559 269.0598 745.1768 c 1
 324.0002 811 l 1
 350.232421407 789.886260818 378.196264675 758.842703293 401.68698108 722.000003412 c 0
 414.9113929 701.258914576 426.718146889 678.679916859 436.0002 655 c 1
 464.5954 624.7748 488.4278 589.538 506.2898 552 c 1
 527.9511 483.7021 540.0571 409.879 540.0571 339.12 c 0
 540.0571 159.711 462.2305 0 265.0001 0 c 0
 83.8111 0 28.1201 112.89 28.1201 200.596 c 1
56.29758 409.272 m 1
 56.2979 481.5347 105.2686 531.563 179.5699 531.563 c 0
 256.5562 531.563 327.9549 474.8989 327.9549 365.563 c 0
 327.9549 350.9995 324.76154 324.9995 320.70588 305.9995 c 1
 230.32598 371.8745 l 1
 231.266514 376.78207 231.74088 381.76979 231.74088 386.7131 c 0
 231.74088 416.1433 214.92718 443.9995 179.57008 443.9995 c 0
 154.77028 443.9995 145.77808 426.1333 145.77808 404.7866 c 0
 145.77808 386.7925 158.06328 370.3247 166.76148 355.9995 c 1
 86.76148 318.563 l 1
 66.76148 350.9995 56.29758 380.6196 56.29758 409.272 c 1
EndSplineSet
Layer: 2
SplineSet
231.732 611.134 m 4
 231.732 673.1225 283.9996 695.3196 283.9996 719 c 4
 283.9996 727.05277 279.91592 735.2721 269.0592 745.1768 c 5
 362.942 755.00004 l 5
 343.7203 647.00004 l 5
 331.2971 639.98051 323.9996 621.14164 323.9996 605.00004 c 4
 323.9996 582.49314 348.5545 549.94924 400.9996 547.00004 c 5
 474.942 524.00004 l 5
 417.9996 460.00004 l 5
 400.848 460.460725 382.80070178 462.738286485 364.942 467.64066 c 4
 298.1715 485.96976 231.732 540.30866 231.732 611.134 c 4
EndSplineSet
EndChar

StartChar: si_Os
Encoding: 18 3476 25
Width: 578
VWidth: 0
Flags: HW
LayerCount: 5
Fore
SplineSet
22 253 m 0
 22 389 55 527 170.287109375 527 c 0
 234.287109375 527 274 481 275 438 c 9
 193 413 l 17
 193 423.39 183 429 176 429 c 0
 140.287109375 429 128.672851562 348 128.672851562 265.912109375 c 0
 128.672851562 203 133.93359375 114.65234375 174.44921875 114.65234375 c 0
 216.625 114.65234375 231.630859375 179.677734375 231.630859375 249.5 c 1
 327.541992188 249.5 l 1
 327.541992188 176.75 343.009765625 115 386 115 c 0
 442.755859375 115 442.755859375 239.958007812 442.755859375 293 c 0
 442.755859375 522.796875 399.755859375 639.884765625 261.755859375 639.884765625 c 0
 220.65234375 639.884765625 172.993164062 618.959960938 155.9375 576.85546875 c 1
 46.9052734375 613.029296875 l 1
 82.8896484375 707.868164062 175.03515625 755 261.755859375 755 c 0
 478.755859375 755 557.755859375 599.055664062 557.755859375 293 c 0
 557.755859375 181.99609375 556.755859375 0 386 0 c 0
 330.080078125 0 292.057617188 33.14453125 277.237304688 79.0302734375 c 1
 261.091796875 31.6025390625 221.6796875 0 169 0 c 0
 56 0 22 115 22 253 c 0
190.059216686 374.955570289 m 0
 190.059216686 387.012544214 193 399 193 413 c 1
 275 438 l 1
 275 424 273.013056404 412.297363103 273.013056404 402.626914927 c 0
 273.013056404 376.409478856 278.664268508 366 292 366 c 0
 302.199637413 366 308.020507812 375.745003782 308.020507812 405 c 0
 308.020507812 425.894374545 305.53377156 446 288 446 c 0
 283 446 275.473684211 444.317505784 271 438 c 1
 230 498 l 1
 242 513.535714286 260.225585938 527 293.225585938 527 c 0
 356.530481961 527 389 480.52744781 389 404 c 0
 389 323.917105742 372.175257732 270 287 270 c 0
 214.473314875 270 190.059216686 313.932015228 190.059216686 374.955570289 c 0
EndSplineSet
Layer: 2
SplineSet
174.44921875 114.65234375 m 4
 216.625 114.65234375 231.630859375 179.677734375 231.630859375 249.5 c 5
 327.541992188 249.5 l 5
 327.541992188 176.75 343.009765625 115 386 115 c 4
 442.755859375 115 442.755859375 239.958007812 442.755859375 293 c 4
 442.755859375 522.796875 399.755859375 639.884765625 261.755859375 639.884765625 c 4
 220.65234375 639.884765625 172.993164062 618.959960938 155.9375 576.85546875 c 5
 46.9052734375 613.029296875 l 5
 82.8896484375 707.868164062 175.03515625 755 261.755859375 755 c 4
 478.755859375 755 557.755859375 599.055664062 557.755859375 293 c 4
 557.755859375 181.99609375 556.755859375 0 386 0 c 4
 330.080078125 0 292.057617188 33.14453125 277.237304688 79.0302734375 c 5
 261.091796875 31.6025390625 221.6796875 0 169 0 c 4
 56 0 22 115 22 253 c 4
 22 389 55 527 170.287109375 527 c 4
 234.287109375 527 274 481 275 438 c 4
 193 413 l 4
 192.655273438 423.387695312 183.1953125 429 172.287109375 429 c 4
 140.287109375 429 128.672851562 348 128.672851562 265.912109375 c 4
 128.672851562 203 133.93359375 114.65234375 174.44921875 114.65234375 c 4
271 438 m 5
 230 498 l 5
 242 513 260.225585938 526 293.225585938 526 c 4
 353.225585938 526 384 479.905273438 384 404 c 4
 384 326.905273438 368 275 287 275 c 4
 199.426757812 275 182 336 193 413 c 5
 275 438 l 5
 270 384 274 364 292 364 c 4
 302.823242188 364 309 374 309 404.020507812 c 4
 309 425.854492188 306.391601562 446.864257812 290 446.864257812 c 4
 283 446.864257812 276 445 271 438 c 5
EndSplineSet
Layer: 3
SplineSet
268 436 m 1
 230 498 l 1
 242 513 256 526 289 526 c 0
 349 526 379 469.645507812 379 412.094726562 c 0
 379 347.137695312 368 275 282 275 c 0
 194.426757812 275 181 346 186.706054688 412.546875 c 1
 275 438 l 1
 272 399 267 364 288 364 c 0
 303 364 305.141601562 382.995117188 305.141601562 404.020507812 c 0
 305.141601562 425.854492188 302.166015625 446.864257812 285.774414062 446.864257812 c 0
 280.619140625 446.864257812 273 444 268 436 c 1
128.672851562 265.912109375 m 0
 128.672851562 202 133 115 172.515625 115 c 0
 219.215820312 115 231.390625 176.75 231.390625 249.5 c 1
 327.301757812 249.5 l 1
 327.301757812 176.75 340.64453125 115 383.634765625 115 c 0
 435.846679688 115 442 239.959960938 442 293 c 0
 442 522.796875 378.34765625 639.884765625 253.42578125 639.884765625 c 0
 212.322265625 639.884765625 172.237304688 618.959960938 155.181640625 576.85546875 c 1
 46.1494140625 613.029296875 l 1
 82.1337890625 707.868164062 166.705078125 755 253.42578125 755 c 0
 454.208984375 755 556.515625 599.055664062 556.515625 293 c 0
 556.515625 181.99609375 545.515625 0 387.759765625 0 c 0
 331.83984375 0 291.817382812 33.14453125 276.997070312 79.0302734375 c 1
 260.8515625 31.6025390625 217.6796875 0 165 0 c 0
 53 0 22 115 22 253 c 0
 22 389 66.287109375 527 170.287109375 527 c 0
 234.287109375 527 274 481 275 438 c 0
 186.706054688 412.546875 l 0
 186.361328125 422.934570312 183.1953125 429 172.287109375 429 c 0
 140.287109375 429 128.672851562 348 128.672851562 265.912109375 c 0
EndSplineSet
EndChar

StartChar: si_Oo
Encoding: 19 3477 26
Width: 578
VWidth: 0
Flags: HW
LayerCount: 5
Fore
SplineSet
58.806640625 743.688476562 m 4
 58.806640625 811.694335938 120.020507812 871 273.571289062 871 c 4
 437.504882812 871 527.116210938 790.408203125 527.116210938 701 c 4
 527.116210938 607 437.896484375 565 387.244140625 565 c 5
 354.244140625 607 l 5
 374.116210938 648 l 5
 400.244140625 655 412.116210938 676.732421875 412.116210938 701 c 4
 412.116210938 733.87890625 376.134765625 771 273.571289062 771 c 4
 189.625 771 165.830078125 747.772460938 165.830078125 724.96484375 c 4
 165.830078125 705.181640625 174.809570312 697 186.809570312 682 c 5
 182.809570312 649 l 5
 99.8095703125 656 l 5
 72.8095703125 680 58.806640625 713.359375 58.806640625 743.688476562 c 4
21.244140625 253 m 0
 21.244140625 389 54.244140625 527 169.53125 527 c 0
 233.53125 527 273.244140625 481 274.244140625 438 c 1
 192.244140625 413 l 1
 192.244140625 423.389648438 182.244140625 429 175.244140625 429 c 0
 139.53125 429 127.916992188 348 127.916992188 265.912109375 c 0
 127.916992188 203 133.177734375 114.65234375 173.693359375 114.65234375 c 0
 215.869140625 114.65234375 230.875 179.677734375 230.875 249.5 c 1
 326.786132812 249.5 l 1
 326.786132812 176.75 342.25390625 115 385.244140625 115 c 0
 442 115 442 239.958007812 442 293 c 0
 442 527 350.321289062 581 229.809570312 581 c 0
 192.267578125 581 140.053710938 564.03125 110.809570312 538 c 1
 47.8095703125 620 l 1
 115.809570312 684 194.809570312 690.975585938 245.809570312 690.975585938 c 0
 435.098632812 690.975585938 557 587 557 293 c 0
 557 181.99609375 556 0 385.244140625 0 c 0
 329.32421875 0 291.301757812 33.14453125 276.481445312 79.0302734375 c 1
 260.3359375 31.6025390625 220.923828125 0 168.244140625 0 c 0
 55.244140625 0 21.244140625 115 21.244140625 253 c 0
189.303710938 374.956054688 m 0
 189.303710938 387.012875098 192.244140625 399.000178254 192.244140625 413 c 1
 274.244140625 438 l 1
 274.244140625 424.000015118 272.256835938 412.297390858 272.256835938 402.626953125 c 0
 272.256835938 376.409489711 277.908155516 366 291.244140625 366 c 0
 301.443778038 366 307.264648438 375.745003782 307.264648438 405 c 0
 307.264648438 425.894374545 304.777912185 446 287.244140625 446 c 0
 282.244140625 446 274.717824836 444.317505784 270.244140625 438 c 1
 229.244140625 498 l 1
 241.244140625 513.535714286 259.469726563 527 292.469726562 527 c 0
 355.774622586 527 388.244140625 480.52744781 388.244140625 404 c 0
 388.244140625 323.917105742 371.419398357 270 286.244140625 270 c 0
 213.717720067 270 189.303710938 313.932217986 189.303710938 374.956054688 c 0
EndSplineSet
EndChar

StartChar: si_Ka
Encoding: 21 3482 28
Width: 697
Flags: HW
LayerCount: 5
Fore
SplineSet
25.9121 232 m 1
 245.3721 489 l 2
 296.306 548.6465 357.3721 594 447.3721 594 c 0
 565.0001 594 675.0001 495 675.0001 272 c 0
 675.0001 59.985 601.8839 0 498.2841 0 c 0
 422.37 0 393.5691 58.0215 384.2841 94 c 1
 452.2841 158 l 1
 453.2841 134 456.65617 103 498.2841 103 c 0
 541.3866 103 563.9999 138.9125 563.9999 272 c 0
 563.9999 408.94 512.2245 482.229 437.6439 482.229 c 0
 384.6439 482.229 359.2449 461.171160714 317.2849 415.9995 c 2
 317.2849 415.9995 205.8119 290.1555 121.2849 204.9995 c 1
 29.9128 125.9995 l 1
 25.9121 232 l 1
61.273468 83.00004 m 0
 61.273468 91.83004 61.999962 99 61.999962 106 c 0
 61.999962 120.5625 51.956062 128.335 40.446262 128.335 c 0
 37.329072 128.335 33.825172 127.574258 29.912062 126.00004 c 2
 44.284162 192.00004 l 1
 107.999962 221.00004 l 1
 112.223592 216.16996 116.066292 211.69701 120.999962 207.00004 c 0
 128.429652 199.9268 137.467762 191.21884 137.467762 167.00004 c 0
 137.467762 162.00004 137.284168 159.96293 137.284168 156.00004 c 0
 137.284168 138.59184 139.160148 109.00004 163.284168 109.00004 c 0
 178.313468 109.00004 194.656268 119.00004 194.656268 160.00004 c 2
 194.656268 227.00004 l 1
 284.656268 227.00004 l 1
 284.656268 160.00004 l 2
 284.656268 122.00004 297.284168 109.00004 316.284168 109.00004 c 0
 351.284168 109.00004 356.372068 165.98734 356.372068 210.00004 c 0
 356.372068 307.75294 321.284168 343.00004 282.284168 343.00004 c 0
 255.230468 343.00004 242.284168 330.90334 232.284168 322.00004 c 1
 183.284168 358.00004 l 1
 218.913068 415.50394 256.153268 429.16704 318.028168 429.16704 c 0
 384.284068 429.16704 463.372168 400.00004 463.372168 210.00004 c 0
 463.372168 111.98144 423.327268 4.00000000411e-05 326.284168 4.00000000411e-05 c 0
 278.327168 4.00000000411e-05 250.793968 29.00004 240.284168 52.00004 c 1
 231.247058 31.00004 204.297868 4.00000000411e-05 160.284168 4.00000000411e-05 c 0
 83.206068 4.00000000411e-05 61.273468 46.00004 61.273468 83.00004 c 0
22.2842 461.536 m 0
 22.2842 532.1317 70.2842 594 157.8992 594 c 0
 234.8894 594 306.2842 537.3359 306.2842 428 c 1
 208.6553 375 l 1
 208.6553 434.3115 l 2
 208.6553 471.9443 184.8106 496 156.2842 496 c 0
 128.4502 496 114.8594 475.0127 114.8594 451.9033 c 0
 114.8594 411.8994 142.083 394.8994 172.083 387.8994 c 1
 112.3721 327.8994 l 1
 67.083 344.8994 22.2842 391.8994 22.2842 461.536 c 0
EndSplineSet
EndChar

StartChar: si_Kha
Encoding: 22 3483 29
Width: 576
VWidth: 0
Flags: HW
LayerCount: 5
Fore
SplineSet
271.759765625 152 m 1
 331.759765625 226 l 1
 331.759765625 199.778320312 335.03125 179.732421875 340.603515625 165 c 0
 349.482421875 141.52734375 364.203125 131.5390625 380.840820312 131.5390625 c 0
 408.115234375 131.5390625 439 171.640625 439 293 c 0
 439 522.796875 396 639.884765625 258 639.884765625 c 0
 216.896484375 639.884765625 169.237304688 618.959960938 152.181640625 576.85546875 c 1
 43.1494140625 613.029296875 l 1
 79.1337890625 707.868164062 171.279296875 755 258 755 c 0
 475 755 554 599.055664062 554 293 c 0
 553.515625 181.99609375 536.884765625 0 395.884765625 0 c 0
 333.759765625 0 310.759765625 30 293.759765625 74 c 0
 282.500976562 103.141601562 271.759765625 152 271.759765625 152 c 1
21.759765625 220 m 4
 21.759765625 425.889648438 97.759765625 488.874023438 201.9453125 488.874023438 c 4
 309.451171875 488.874023438 370.884765625 430 370.884765625 324 c 4
 370.884765625 271.69921875 354.40625 232.284179688 330.759765625 191 c 4
 305.662109375 147.1796875 299.032226562 102.9140625 299.032226562 34.439453125 c 4
 299.032226562 -4.3896484375 301.23828125 -43.310546875 304.759765625 -75 c 5
 197.759765625 -75 l 5
 194.046875 -50.400390625 191.342773438 -14.6318359375 191.342773438 25.65234375 c 4
 191.342773438 72.16015625 194.946289062 124.6875 204.759765625 173 c 4
 217.759765625 237 258.884765625 264 258.884765625 324 c 4
 258.884765625 354 243.451171875 376.432617188 200.759765625 376.432617188 c 4
 160.932617188 376.432617188 128.759765625 339.788085938 128.759765625 220 c 4
 128.759765625 128 149.759765625 106 170.759765625 106 c 4
 190.759765625 106 207.759765625 120 223.759765625 156 c 5
 279.759765625 73 l 5
 237.649414062 36.55859375 194.227539062 3.0615234375 148.484375 3.0615234375 c 4
 53.3310546875 3.0615234375 21.759765625 101.451171875 21.759765625 220 c 4
EndSplineSet
Layer: 2
SplineSet
554.240234375 293 m 0
 554.240234375 599.055664062 475.240234375 755 258.240234375 755 c 0
 171.51953125 755 79.3740234375 707.868164062 43.3896484375 613.029296875 c 1
 152.421875 576.85546875 l 1
 169.477539062 618.959960938 217.13671875 639.884765625 258.240234375 639.884765625 c 0
 396.240234375 639.884765625 439.240234375 522.796875 439.240234375 293 c 0
 439.240234375 171.640625 408.35546875 131.5390625 381.081054688 131.5390625 c 0
 354 131.5390625 332 158 332 226 c 1
 272 152 l 1
 294 74 l 1
 306 42 334 0 396.125 0 c 0
 537.125 0 553.755859375 181.99609375 554.240234375 293 c 0
304 124 m 0
 306.268554688 142.71484375 321.641601562 174.66015625 331 191 c 0
 354.646484375 232.284179688 371.125 271.69921875 371.125 324 c 0
 371.125 430 309.69140625 488.874023438 202.185546875 488.874023438 c 0
 98 488.874023438 22 425.889648438 22 220 c 0
 22 79 66 0 171 0 c 0
 223.478515625 0 251 28 280 73 c 1
 224 156 l 1
 208 120 191 110 171 110 c 0
 150 110 132 128 132 220 c 0
 132 339.788085938 161.172851562 376.432617188 201 376.432617188 c 0
 243.69140625 376.432617188 259.125 354 259.125 324 c 0
 259.125 264 218 237 205 173 c 0
 186.686523438 82.8408203125 190 -22 198 -75 c 1
 305 -75 l 1
 298.651367188 -17.8662109375 296.578125 62.76953125 304 124 c 0
991.875 249.5 m 1
 1087.78613281 249.5 l 1
 1087.78613281 176.75 1103.25390625 115 1146.24414062 115 c 0
 1203 115 1203 239.958007812 1203 293 c 0
 1203 522.796875 1160 639.884765625 1022 639.884765625 c 0
 980.896484375 639.884765625 933.237304688 618.959960938 916.181640625 576.85546875 c 1
 807.149414062 613.029296875 l 1
 843.133789062 707.868164062 935.279296875 755 1022 755 c 0
 1239 755 1318 599.055664062 1318 293 c 0
 1318 181.99609375 1317 0 1146.24414062 0 c 0
 1090.32421875 0 1052.30175781 33.14453125 1037.48144531 79.0302734375 c 1
 1021.3359375 31.6025390625 981.923828125 0 929.244140625 0 c 0
 813.444335938 0 784.76171875 105.454101562 784.76171875 193.436523438 c 0
 784.76171875 234.737304688 796.244140625 280.436523438 810.244140625 306 c 1
 779 306 l 1
 779 391 l 1
 1068.24414062 388 l 1
 1102.08398438 304 l 1
 952 304.436523438 l 1
 911.244140625 304.436523438 891.76171875 245.162109375 891.76171875 193.436523438 c 0
 891.76171875 156.328125 897.435546875 114.65234375 934.693359375 114.65234375 c 0
 976.869140625 114.65234375 991.875 179.677734375 991.875 249.5 c 1
927.15625 402.787109375 m 0
 927.15625 389.465820312 931.672851562 375.438476562 940.581054688 364.3203125 c 1
 864.870117188 326.3203125 l 1
 843.84375 354.120117188 834.581054688 383.978515625 834.581054688 412.419921875 c 0
 834.581054688 484.68359375 886.646484375 529.563476562 960.948242188 529.563476562 c 0
 1037.93457031 529.563476562 1109.33300781 472.899414062 1109.33300781 363.563476562 c 0
 1109.33300781 349 1106.13964844 323 1102.08398438 304 c 1
 1102.08398438 304 1010.63867188 364.313476562 1011.70410156 369.875 c 0
 1018.24414062 404 1002.24414062 442 960.948242188 442 c 0
 936.1484375 442 927.15625 424.133789062 927.15625 402.787109375 c 0
-489 58 m 1
 -477 26 -449 -16 -386.875 -16 c 0
 -245.875 -16 -229.244140625 165.99609375 -229.244140625 277 c 0
 -229.244140625 583.055664062 -331.55078125 739 -532.333984375 739 c 0
 -619.0546875 739 -703.625976562 691.868164062 -739.610351562 597.029296875 c 1
 -630.578125 560.85546875 l 1
 -613.522460938 602.959960938 -573.4375 623.884765625 -532.333984375 623.884765625 c 0
 -407.412109375 623.884765625 -343.759765625 506.796875 -343.759765625 277 c 0
 -343.759765625 155.640625 -374.64453125 115.5390625 -401.918945312 115.5390625 c 0
 -429 115.5390625 -451 142 -451 210 c 1
 -511 136 l 1
 -489 58 l 1
-473 138 m 24
 -457.483398438 197 -411.875 235 -411.875 308 c 0
 -411.875 414 -473.30859375 472.874023438 -580.814453125 472.874023438 c 0
 -685 472.874023438 -761 409.889648438 -761 204 c 0
 -761 63 -717 -16 -612 -16 c 0
 -559.521484375 -16 -532 12 -503 57 c 1
 -559 140 l 1
 -575 104 -592 94 -612 94 c 0
 -633 94 -651 112 -651 204 c 0
 -651 323.788085938 -621.827148438 360.432617188 -582 360.432617188 c 0
 -539.30859375 360.432617188 -523.875 338 -523.875 308 c 0
 -523.875 248 -576 220 -589 156 c 0
 -607.313476562 65.8408203125 -592 -42 -587 -96 c 1
 -476 -89 l 1
 -482.348632812 -31.8662109375 -489.364257812 78.5322265625 -473 138 c 24
EndSplineSet
Layer: 3
SplineSet
272 152 m 5
 332 226 l 5
 332 199.777945571 335.271434915 179.732815659 340.844137312 164.99999929 c 4
 349.722772586 141.527132125 364.442954265 131.5390625 381.081054688 131.5390625 c 4
 408.35546875 131.5390625 439.240234375 171.640625 439.240234375 293 c 4
 439.240234375 522.796875 396.240234375 639.884765625 258.240234375 639.884765625 c 4
 217.13671875 639.884765625 169.477539062 618.959960938 152.421875 576.85546875 c 5
 43.3896484375 613.029296875 l 5
 79.3740234375 707.868164062 171.51953125 755 258.240234375 755 c 4
 475.240234375 755 554.240234375 599.055664062 554.240234375 293 c 4
 553.755859375 181.99609375 537.125 0 396.125 0 c 4
 334 0 311 30 294 74 c 4
 282.740766586 103.141545308 272 152 272 152 c 5
22 220 m 4
 22 425.889648438 98 488.874023438 202.185546875 488.874023438 c 4
 309.69140625 488.874023438 371.125 430 371.125 324 c 4
 371.125 271.69921875 354.646484375 232.284179688 331 191 c 4
 305.902613816 147.179748972 299.272637974 102.914005005 299.272637974 34.4390508453 c 4
 299.272637974 -4.3898317956 301.478658678 -43.3100947468 305 -75 c 5
 198 -75 l 5
 194.286820701 -50.4001871438 191.583272364 -14.6321601548 191.583272364 25.6523280614 c 4
 191.583272364 72.1602836716 195.186676196 124.687970267 205 173 c 4
 218 237 259.125 264 259.125 324 c 4
 259.125 354 243.69140625 376.432617188 201 376.432617188 c 4
 161.172851562 376.432617188 129 339.788085938 129 220 c 4
 129 128 150 106 171 106 c 4
 191 106 208 120 224 156 c 5
 280 73 l 5
 237.889584712 36.5582944621 194.467566557 3.06189840922 148.724389788 3.06189840922 c 4
 53.5708280057 3.06189840922 22 101.451532621 22 220 c 4
EndSplineSet
EndChar

StartChar: si_Ga
Encoding: 23 3484 30
Width: 658
VWidth: 0
Flags: HW
LayerCount: 5
Fore
SplineSet
216.627929688 300.15625 m 1
 263.854492188 330.126953125 266.022460938 362.443359375 266.022460938 392.095703125 c 0
 266.022460938 398.567382812 266.216796875 404.869140625 266.595703125 411 c 0
 273.90625 529.11328125 349.9765625 584.15625 431 584.15625 c 0
 537.999023438 584.15625 636 526.53125 636 292.15625 c 0
 636 69.58203125 551.227539062 0.15625 447.627929688 0.15625 c 0
 371.713867188 0.15625 330.28515625 50.177734375 321 86.15625 c 1
 386 158.15625 l 1
 391.176757812 141.5703125 406 106.15625 447.627929688 106.15625 c 0
 490.73046875 106.15625 527 150.497070312 527 292.15625 c 0
 527 439.703125 480.584960938 477.15625 431 477.15625 c 0
 385.725585938 477.15625 371.469726562 447.256835938 368.59375 389 c 0
 368.177734375 380.58984375 368 371.587890625 368 362 c 0
 368 286.15625 323 254 263 220 c 1
 216.627929688 300.15625 l 1
22 292 m 0
 22 514.57421875 106.772460938 584 210.372070312 584 c 0
 286.286132812 584 327.71484375 533.978515625 337 498 c 1
 272 426 l 1
 266.823242188 442.5859375 252 478 210.372070312 478 c 0
 167.26953125 478 131 433.659179688 131 292 c 0
 131 144.453125 177.415039062 107 227 107 c 0
 288 107 306.627929688 146.15625 306.627929688 184.15625 c 0
 306.627929688 219.15625 290.890625 231.250976562 278.627929688 236.15625 c 1
 341.627929688 306.15625 l 1
 377.627929688 294.44921875 408.627929688 243.15625 408.627929688 189.15625 c 0
 408.627929688 94.73046875 357.560546875 0 227 0 c 0
 120.000976562 0 22 57.625 22 292 c 0
EndSplineSet
Layer: 2
SplineSet
244.372070312 105.84375 m 0
 194.787109375 105.84375 145.372070312 144.296875 145.372070312 291.84375 c 0
 145.372070312 408 184.641601562 479.84375 227.744140625 479.84375 c 0
 269.372070312 479.84375 284.1953125 442.4296875 289.372070312 425.84375 c 1
 354.372070312 497.84375 l 1
 345.086914062 533.822265625 303.658203125 583.84375 227.744140625 583.84375 c 0
 124.14453125 583.84375 39.3720703125 514.41796875 39.3720703125 291.84375 c 0
 39.3720703125 57.46875 137.373046875 -0.15625 244.372070312 -0.15625 c 0
 374.932617188 -0.15625 426 94.57421875 426 189 c 0
 426 243 395 294.29296875 359 306 c 1
 296 236 l 1
 308.262695312 231.094726562 324 219 324 184 c 0
 324 146 305.372070312 105.84375 244.372070312 105.84375 c 0
457 584 m 0
 377.092773438 584 283.372070312 526.84375 283.372070312 400.84375 c 0
 283.372070312 368.84375 286 333 234 300 c 1
 280.372070312 219.84375 l 1
 340.372070312 253.84375 385.372070312 286 385.372070312 361.84375 c 0
 385.372070312 437.84375 405.189453125 478 457 478 c 0
 503 478 546.372070312 433 546.372070312 292 c 0
 546.372070312 150.340820312 507.579101562 104 465 104 c 0
 419 104 403 133 395 149 c 1
 338.372070312 86 l 1
 347.657226562 50.021484375 389.0859375 0 465 0 c 0
 568.599609375 0 653.372070312 69.42578125 653.372070312 292 c 0
 653.372070312 508 556 584 457 584 c 0
EndSplineSet
Layer: 3
SplineSet
1125 106 m 0
 1075.41503906 106 1026 136.453125 1026 284 c 0
 1026 425.659179688 1065.26953125 480 1108.37207031 480 c 0
 1150 480 1164.82324219 442.5859375 1170 426 c 1
 1235 498 l 1
 1225.71484375 533.978515625 1184.28613281 584 1108.37207031 584 c 0
 1004.77246094 584 920 506.57421875 920 284 c 0
 920 49.625 1018.00097656 0 1125 0 c 0
 1255.56054688 0 1308.9921875 104.57421875 1308.9921875 199 c 0
 1308.9921875 255.70703125 1285 330 1215 350 c 1
 1148 280 l 1
 1160.26269531 275.094726562 1206 249 1206 199 c 0
 1206 155.278320312 1186 106 1125 106 c 0
1328.90722656 0.15625 m 0
 1435.90625 0.15625 1533.90722656 51.625 1533.90722656 286 c 0
 1533.90722656 520.375 1435.90625 584 1328.90722656 584 c 0
 1249 584 1164 527 1164 401 c 0
 1164 369 1160 344 1108 311 c 1
 1161 220 l 1
 1221 254 1266 306.241210938 1266 362 c 0
 1266 438 1281.49511719 478 1328.90722656 478 c 1
 1378.4921875 478 1427.90722656 433.546875 1427.90722656 286 c 0
 1427.90722656 136.084960938 1378.48730469 104 1328.90722656 104 c 1
 1287.27929688 104 1272.45605469 141.5703125 1267.27929688 158.15625 c 1
 1202.27929688 86.15625 l 1
 1211.56445312 50.1787109375 1252.99316406 0.15625 1328.90722656 0.15625 c 0
424 0 m 0
 530.944335938 0 604 51.4970703125 604 286 c 0
 604 481 541 584 423.907226562 584 c 0
 218 584 311.907226562 389.15625 184.907226562 242.15625 c 1
 254.907226562 187.15625 l 1
 388.838867188 270.983398438 305 478 423.907226562 478 c 0
 472 478 498 393 498 288 c 0
 498 135.55859375 465 107 423.907226562 107 c 1
 382.279296875 107 367.456054688 141.239257812 362.279296875 158.15625 c 1
 297.279296875 86.15625 l 1
 306.571289062 50.11328125 348.030273438 0 424 0 c 0
220 106 m 0
 174.421875 106 129 136.453125 129 284 c 0
 129 425.659179688 164.456054688 480 203.372070312 480 c 0
 245 480 259.823242188 442.5859375 265 426 c 1
 330 498 l 1
 320.71484375 533.978515625 279.286132812 584 203.372070312 584 c 0
 104.171875 584 23 506.57421875 23 284 c 0
 23 49.625 117.176757812 0 220 0 c 0
 350.560546875 0 403.9921875 104.57421875 403.9921875 199 c 0
 403.9921875 255.70703125 380 330 310 350 c 1
 243 280 l 1
 255.262695312 275.094726562 301 249 301 199 c 0
 301 155.278320312 281 106 220 106 c 0
EndSplineSet
EndChar

StartChar: si_Gha
Encoding: 24 3485 31
Width: 589
VWidth: 0
Flags: HW
LayerCount: 5
Fore
SplineSet
259.600585938 467.353515625 m 0
 259.600585938 473.071289062 260.164814833 478.329161622 261.416015625 483 c 0
 281.044921875 556.276367188 340.134765625 594 402.953125 594 c 0
 489.512695312 594 541.612304688 532.13671875 541.612304688 456.407226562 c 0
 541.612304688 428.149414062 530.364257812 394.649414062 510.2265625 369.030273438 c 1
 433.517578125 410.436523438 l 1
 441.500976562 419.560546875 448.13671875 439.108398438 448.13671875 451.1640625 c 0
 448.13671875 475 433.923828125 496 398.780273438 496 c 0
 376.041992188 496 347.215820312 481.030273438 347.215820312 434.341796875 c 0
 347.215820312 428.678710938 347.71875 422.2421875 348.780273438 416 c 0
 302.280273438 318.436523438 l 1
 289.668945312 359.422851562 259.600585938 425.625 259.600585938 467.353515625 c 0
144.560546875 207 m 0
 144.560546875 157.264648438 151.986328125 115 187.280273438 115 c 0
 200.346679688 115 203.831054688 123.05859375 203.831054688 135.4140625 c 0
 203.831054688 149.53515625 194.780273438 169.268554688 194.780273438 189 c 0
 194.780273438 242.55859375 228.177734375 266 302.280273438 266 c 0
 376.381835938 266 409.780273438 242.55859375 409.780273438 189 c 0
 409.780273438 169.268554688 400.729492188 149.53515625 400.729492188 135.4140625 c 0
 400.729492188 123.05859375 404.213867188 115 417.280273438 115 c 0
 452.57421875 115 460 157.264648438 460 207 c 0
 460 258.725585938 440.04296875 318 399.76171875 318 c 2
 204.798828125 318 l 2
 164.04296875 318 144.560546875 258.08984375 144.560546875 207 c 0
37.560546875 207 m 0
 37.560546875 248.30078125 49.04296875 294 63.04296875 319.563476562 c 1
 22.2265625 319.666992188 l 1
 22.2265625 416 l 1
 417.04296875 416 l 2
 450.780273438 416 482.002332969 400.308874267 505.2265625 380.399414062 c 0
 547.661132812 344.021484375 567 287.78515625 567 207 c 0
 567 95.095703125 528.893554688 0 417.280273438 0 c 0
 350.805664062 0 318.280273438 54 318.280273438 94 c 0
 318.280273438 125 324.280273438 141.673828125 324.280273438 158 c 0
 324.280273438 171.092773438 319.280273438 180 302.280273438 180 c 0
 285.280273438 180 280.280273438 171.092773438 280.280273438 158 c 0
 280.280273438 141.673828125 286.280273438 125 286.280273438 94 c 0
 286.280273438 54 253.754882812 0 187.280273438 0 c 0
 75.6669921875 0 37.560546875 95.095703125 37.560546875 207 c 0
65.9921875 461.536132812 m 0
 65.9921875 532.131835938 113.9921875 594 201.607421875 594 c 4
 264.42578125 594 323.519094779 556.277488401 343.14453125 483 c 0
 344.395507812 478.329101562 344.959960938 473.071289062 344.959960938 467.353515625 c 0
 344.959960938 425.625 314.891601562 359.422851562 302.280273438 318.436523438 c 1
 255.780273438 416 l 0
 256.841796875 422.252929688 257.344726562 428.668945312 257.344726562 434.341796875 c 0
 257.344726562 481.030273438 228.518554688 496 205.780273438 496 c 0
 173.73828125 496 158.837890625 474.29296875 158.837890625 450.72265625 c 0
 158.837890625 437.756835938 163.346679688 424.2265625 171.9921875 413.436523438 c 1
 96.28125 375.436523438 l 1
 75.2548828125 403.236328125 65.9921875 433.094726562 65.9921875 461.536132812 c 0
EndSplineSet
Layer: 3
SplineSet
566.7734375 207 m 0
 566.7734375 95.095703125 528.666992188 0 417.053710938 0 c 0
 350.579101562 0 318.053710938 54 318.053710938 94 c 0
 318.053710938 125 324.053710938 141.673828125 324.053710938 158 c 0
 324.053710938 171.092773438 319.053710938 180 302.053710938 180 c 1
 302.053710938 258 l 1
 373.053710938 258 405.053710938 236.994140625 405.053710938 189 c 0
 405.053710938 152.00390625 389.053710938 115 417.053710938 115 c 0
 452.34765625 115 459.7734375 157.264648438 459.7734375 207 c 0
 459.7734375 258.725585938 439.81640625 318 399.53515625 318 c 2
 204.572265625 318 l 2
 163.81640625 318 144.333984375 258.08984375 144.333984375 207 c 0
 144.333984375 157.264648438 151.759765625 115 187.053710938 115 c 0
 215.053710938 115 199.053710938 152.00390625 199.053710938 189 c 0
 199.053710938 236.994140625 231.053710938 258 302.053710938 258 c 1
 302.053710938 180 l 1
 285.053710938 180 280.053710938 171.092773438 280.053710938 158 c 0
 280.053710938 141.673828125 286.053710938 125 286.053710938 94 c 0
 286.053710938 54 253.528320312 0 187.053710938 0 c 0
 75.4404296875 0 37.333984375 95.095703125 37.333984375 207 c 0
 37.333984375 248.30078125 48.81640625 294 62.81640625 319.563476562 c 1
 22 319.666992188 l 1
 22 416 l 1
 257.572265625 416 l 1
 352.572265625 416 l 1
 416.81640625 416 l 2
 457.81640625 416 493.727539062 393.5234375 517.81640625 368.23828125 c 0
 551.643554688 332.731445312 566.7734375 278.352539062 566.7734375 207 c 0
360.81640625 391.436523438 m 1
 270.81640625 319.436523438 l 1
 258.81640625 358.436523438 251.8671875 396.735351562 251.8671875 428 c 0
 251.8671875 537.3359375 323.26171875 594 400.251953125 594 c 0
 486.811523438 594 538.911132812 532.13671875 538.911132812 456.407226562 c 0
 538.911132812 428.604492188 528.125976562 395.643554688 508.81640625 370.436523438 c 1
 430.81640625 410.436523438 l 1
 438.799804688 419.560546875 445.435546875 439.108398438 445.435546875 451.1640625 c 0
 445.435546875 475 429.607421875 496 400.251953125 496 c 0
 371.725585938 496 349.49609375 471.944335938 349.49609375 434.311523438 c 0
 349.49609375 428.6484375 349.999023438 422.2421875 351.060546875 416 c 1
 360.81640625 391.436523438 l 1
201.380859375 594 m 0
 278.37109375 594 349.765625 537.3359375 349.765625 428 c 0
 349.765625 396.735351562 342.81640625 357.436523438 330.81640625 318.436523438 c 1
 250.572265625 416 l 0
 251.633789062 422.2421875 252.13671875 428.6484375 252.13671875 434.311523438 c 0
 252.13671875 471.944335938 228.291992188 496 199.765625 496 c 0
 155.885742188 496 147.405273438 443.840820312 171.765625 413.436523438 c 1
 96.0546875 375.436523438 l 1
 75.0283203125 403.236328125 65.765625 433.094726562 65.765625 461.536132812 c 0
 65.765625 532.131835938 113.765625 594 201.380859375 594 c 0
EndSplineSet
EndChar

StartChar: si_Nga
Encoding: 25 3486 32
Width: 574
VWidth: 0
Flags: HW
LayerCount: 5
Fore
SplineSet
27.517578125 193.436523438 m 0
 27.517578125 272.336914062 64.0673828125 331.213867188 120.525390625 358 c 1
 126.25189463 352.438468191 135.42491612 349.89750631 144.956573285 349.89750631 c 0
 162.846590556 349.89750631 182 358.848738922 182 373.580078125 c 1
 186.098632812 373.846679688 190.25 373.981445312 194.451171875 373.981445312 c 0
 236.844726562 373.981445312 237.953125 368.651367188 263.813476562 368.651367188 c 0
 285 368.651367188 295 380 295 400 c 0
 295 431.161929371 278.094509944 444.884326369 250.956403148 444.884326369 c 0
 226.278457851 444.884326369 199.013322426 435.56426657 178.802734375 425.29296875 c 1
 166.96785018 439.258061634 152.894413246 445.190805262 139.73825283 445.190805262 c 0
 116.429499148 445.190805262 96 426.568417486 96 401 c 1
 32 452 l 1
 63 510 115.256835938 527 209 527 c 0
 286.813476562 527 386.654296875 501.325195312 386.654296875 401 c 0
 386.654296875 322 344.487304688 290 281 290 c 0
 257.59375 290 236.642578125 295 213 295 c 0
 166.279296875 295 134.517578125 261.41796875 134.517578125 193.436523438 c 0
 134.517578125 156.328125 140.19140625 114.65234375 177.44921875 114.65234375 c 0
 219.625 114.65234375 234.630859375 179.677734375 234.630859375 249.5 c 1
 330.541992188 249.5 l 1
 330.541992188 176.75 346.009765625 115 389 115 c 0
 445.755859375 115 445.755859375 239.958007812 445.755859375 293 c 0
 445.755859375 522.796875 402.755859375 639.884765625 264.755859375 639.884765625 c 0
 223.65234375 639.884765625 175.993164062 618.959960938 158.9375 576.85546875 c 1
 49.9052734375 613.029296875 l 1
 85.8896484375 707.868164062 178.03515625 755 264.755859375 755 c 0
 481.755859375 755 560.755859375 599.055664062 560.755859375 293 c 0
 560.755859375 181.99609375 559.755859375 0 389 0 c 0
 333.080078125 0 295.057617188 33.14453125 280.237304688 79.0302734375 c 1
 264.091796875 31.6025390625 224.6796875 0 172 0 c 0
 56.2001953125 0 27.517578125 105.454101562 27.517578125 193.436523438 c 0
97.3349609375 397.301757812 m 0
 97.3349609375 375.05078125 114.967773438 357.126953125 136.856445312 357.126953125 c 0
 158.745117188 357.126953125 176.377929688 375.05078125 176.377929688 397.301757812 c 0
 176.377929688 419.551757812 158.745117188 437.4765625 136.856445312 437.4765625 c 0
 114.967773438 437.4765625 97.3349609375 419.551757812 97.3349609375 397.301757812 c 0
18.349609375 397.650390625 m 0
 18.349609375 462.809570312 70.83984375 515.299804688 136 515.299804688 c 0
 201.159179688 515.299804688 253.649414062 462.809570312 253.649414062 397.650390625 c 0
 253.649414062 332.490234375 201.159179688 280 136 280 c 0
 70.83984375 280 18.349609375 332.490234375 18.349609375 397.650390625 c 0
EndSplineSet
Layer: 3
SplineSet
644.517578125 193.436523438 m 0
 644.517578125 263.227539062 668.286132812 315.306640625 705 339 c 1
 712.501953125 334.077148438 720.71875 331.95703125 728.90234375 331.95703125 c 0
 755.625976562 331.95703125 782 354.564453125 782 376 c 1
 791 376 801.513671875 376 811.451171875 376 c 0
 851.513671875 376 852.561523438 368 877 368 c 0
 898.584960938 368 912 382.422851562 912 401 c 0
 912 417.138671875 898.297851562 436 866 436 c 0
 822.75390625 436 807.751953125 436 779 436 c 1
 769.754882812 443.189453125 757.875976562 446.669921875 745.719726562 446.669921875 c 0
 716.6328125 446.669921875 685.95703125 426.7421875 685.95703125 390.001953125 c 1
 622 447 l 1
 653 508 720.275390625 522 815 522 c 0
 897.631835938 522 1003.65429688 517 1003.65429688 393.641601562 c 0
 1003.65429688 334.446289062 961.487304688 282 898 282 c 0
 874.59375 282 854.391601562 290 830 290 c 0
 783.279296875 290 751.517578125 261.41796875 751.517578125 193.436523438 c 0
 751.517578125 156.328125 757.19140625 114.65234375 794.44921875 114.65234375 c 0
 836.625 114.65234375 851.630859375 179.677734375 851.630859375 249.5 c 1
 947.541992188 249.5 l 1
 947.541992188 176.75 963.009765625 115 1006 115 c 0
 1062.75585938 115 1062.75585938 239.958007812 1062.75585938 293 c 0
 1062.75585938 522.796875 1019.75585938 639.884765625 881.755859375 639.884765625 c 0
 840.65234375 639.884765625 792.993164062 618.959960938 775.9375 576.85546875 c 1
 666.905273438 613.029296875 l 1
 702.889648438 707.868164062 795.03515625 755 881.755859375 755 c 0
 1098.75585938 755 1177.75585938 599.055664062 1177.75585938 293 c 0
 1177.75585938 181.99609375 1176.75585938 0 1006 0 c 0
 950.080078125 0 912.057617188 33.14453125 897.237304688 79.0302734375 c 1
 881.091796875 31.6025390625 841.6796875 0 789 0 c 0
 673.200195312 0 644.517578125 105.454101562 644.517578125 193.436523438 c 0
685.95703125 390.001953125 m 0
 685.95703125 367.750976562 703.58984375 349.827148438 725.478515625 349.827148438 c 0
 747.3671875 349.827148438 765 367.750976562 765 390.001953125 c 0
 765 412.251953125 747.3671875 430.176757812 725.478515625 430.176757812 c 0
 703.58984375 430.176757812 685.95703125 412.251953125 685.95703125 390.001953125 c 0
606.971679688 390.350585938 m 0
 606.971679688 455.509765625 659.461914062 508 724.622070312 508 c 0
 789.78125 508 842.271484375 455.509765625 842.271484375 390.350585938 c 0
 842.271484375 325.190429688 789.78125 272.700195312 724.622070312 272.700195312 c 0
 659.461914062 272.700195312 606.971679688 325.190429688 606.971679688 390.350585938 c 0
-18.650390625 411.650390625 m 0
 -18.650390625 476.809570312 33.83984375 529.299804688 99 529.299804688 c 0
 164.159179688 529.299804688 216.649414062 476.809570312 216.649414062 411.650390625 c 0
 216.649414062 346.490234375 164.159179688 294 99 294 c 0
 33.83984375 294 -18.650390625 346.490234375 -18.650390625 411.650390625 c 0
60.3349609375 411.301757812 m 0
 60.3349609375 389.05078125 77.9677734375 371.126953125 99.8564453125 371.126953125 c 0
 121.745117188 371.126953125 139.377929688 389.05078125 139.377929688 411.301757812 c 0
 139.377929688 433.551757812 121.745117188 451.4765625 99.8564453125 451.4765625 c 0
 77.9677734375 451.4765625 60.3349609375 433.551757812 60.3349609375 411.301757812 c 0
25.517578125 193.436523438 m 0
 25.517578125 350.407132586 128.978688215 394.362471031 212.962013902 394.362471031 c 0
 233.882529883 394.362471031 251.912373451 388.200710125 270.0104206 388.200710125 c 0
 288.460776048 388.200710125 299.927958257 405.563168073 299.927958257 421.369327546 c 0
 299.927958257 455.716573307 264.356288667 467.357932698 224.475689814 467.357932698 c 0
 211.413215724 467.357932698 197.888470361 466.109022423 185 464 c 1
 126 464 60.3349609375 460 60.3349609375 411.301757812 c 1
 -19 420 l 1
 -8 527 90 551.563476562 173 551.563476562 c 0
 261.502852184 551.563476562 395.279468659 540 395.279468659 416.011048383 c 0
 395.279468659 356.274853903 352.143323247 303.348559315 287.196818013 303.348559315 c 0
 264.573900492 303.348559315 236.400728856 315.381138234 213.549282022 315.381138234 c 0
 165.310816002 315.381138234 132.517578125 275.060200826 132.517578125 193.436523438 c 0
 132.517578125 156.328125 138.19140625 114.65234375 175.44921875 114.65234375 c 0
 217.625 114.65234375 232.630859375 179.677734375 232.630859375 249.5 c 1
 328.541992188 249.5 l 1
 328.541992188 176.75 344.009765625 115 387 115 c 0
 443.755859375 115 443.755859375 239.958007812 443.755859375 293 c 0
 443.755859375 522.796875 400.755859375 639.884765625 262.755859375 639.884765625 c 0
 221.65234375 639.884765625 173.993164062 618.959960938 156.9375 576.85546875 c 1
 47.9052734375 613.029296875 l 1
 83.8896484375 707.868164062 176.03515625 755 262.755859375 755 c 0
 479.755859375 755 558.755859375 599.055664062 558.755859375 293 c 0
 558.755859375 181.99609375 557.755859375 0 387 0 c 0
 331.080078125 0 293.057617188 33.14453125 278.237304688 79.0302734375 c 1
 262.091796875 31.6025390625 222.6796875 0 170 0 c 0
 54.2001953125 0 25.517578125 105.454101562 25.517578125 193.436523438 c 0
EndSplineSet
EndChar

StartChar: si_Nnga
Encoding: 26 3487 33
Width: 829
VWidth: 0
Flags: HW
LayerCount: 5
Fore
SplineSet
387.627929688 300 m 5
 434.854492188 329.970703125 437.022460938 362.287109375 437.022460938 391.939453125 c 4
 437.022460938 398.411132812 437.216796875 404.712890625 437.595703125 410.84375 c 4
 444.90625 528.95703125 520.9765625 584 602 584 c 4
 708.999023438 584 807 526.375 807 292 c 4
 807 69.42578125 722.227539062 0 618.627929688 0 c 4
 542.713867188 0 501.28515625 50.021484375 492 86 c 5
 557 158 l 5
 562.176757812 141.4140625 577 106 618.627929688 106 c 4
 661.73046875 106 698 150.340820312 698 292 c 4
 698 439.546875 651.584960938 477 602 477 c 4
 556.725585938 477 542.469726562 447.100585938 539.59375 388.84375 c 4
 539.177734375 380.43359375 539 371.431640625 539 361.84375 c 4
 539 286 494 253.84375 434 219.84375 c 5
 387.627929688 300 l 5
193 292 m 4
 193 514.57421875 277.772460938 584 381.372070312 584 c 4
 457.286132812 584 498.71484375 533.978515625 508 498 c 5
 443 426 l 5
 437.823242188 442.5859375 423 478 381.372070312 478 c 4
 338.26953125 478 302 433.659179688 302 292 c 4
 302 144.453125 348.415039062 107 398 107 c 4
 459 107 477.627929688 146.15625 477.627929688 184.15625 c 4
 477.627929688 219.15625 461.890625 231.250976562 449.627929688 236.15625 c 5
 512.627929688 306.15625 l 5
 548.627929688 294.44921875 579.627929688 243.15625 579.627929688 189.15625 c 4
 579.627929688 94.73046875 528.560546875 0 398 0 c 4
 291.000976562 0 193 57.625 193 292 c 4
21.0927734375 283.84375 m 4
 21.0927734375 506.41796875 106.27351055 583.84375 210.372070312 583.84375 c 4
 279.691579071 583.84375 317.521432936 527.424168786 326 486.84375 c 5
 272 425.84375 l 5
 266.823242188 442.4296875 252 479.84375 210.372070312 479.84375 c 4
 166.794810047 479.84375 127.092773438 425.502929688 127.092773438 283.84375 c 4
 127.092773438 131.499731789 150.871914542 101.84375 184.092773438 101.84375 c 4
 184.092773438 -0.15625 l 4
 89.0927734375 -0.15625 21.0927734375 46.1205357143 21.0927734375 283.84375 c 4
EndSplineSet
Layer: 3
SplineSet
194 115 m 0
 137 104 128 158 128 284 c 0
 128 425.659179688 167.26953125 480 210.372070312 480 c 0
 252 480 266.823242188 442.5859375 272 426 c 1
 337 498 l 1
 327.71484375 533.978515625 286.286132812 584 210.372070312 584 c 0
 106.772460938 584 22 506.57421875 22 284 c 0
 22 49.625 112 -16 222 4 c 0
 194 115 l 0
399 106 m 0
 349.415039062 106 300 136.453125 300 284 c 0
 300 425.659179688 339.26953125 480 382.372070312 480 c 0
 424 480 438.823242188 442.5859375 444 426 c 1
 509 498 l 1
 499.71484375 533.978515625 458.286132812 584 382.372070312 584 c 0
 278.772460938 584 194 506.57421875 194 284 c 0
 194 49.625 292.000976562 0 399 0 c 0
 529.560546875 0 582.9921875 104.57421875 582.9921875 199 c 0
 582.9921875 255.70703125 559 330 489 350 c 1
 422 280 l 1
 434.262695312 275.094726562 480 249 480 199 c 0
 480 155.278320312 460 106 399 106 c 0
602.907226562 0.15625 m 0
 709.90625 0.15625 807.907226562 51.625 807.907226562 286 c 0
 807.907226562 520.375 709.90625 584 602.907226562 584 c 0
 523 584 438 527 438 401 c 0
 438 369 434 344 382 311 c 1
 435 220 l 1
 495 254 540 306.241210938 540 362 c 0
 540 438 555.495117188 478 602.907226562 478 c 1
 652.4921875 478 701.907226562 433.546875 701.907226562 286 c 0
 701.907226562 136.084960938 652.487304688 104 602.907226562 104 c 1
 561.279296875 104 546.456054688 141.5703125 541.279296875 158.15625 c 1
 476.279296875 86.15625 l 1
 485.564453125 50.1787109375 526.993164062 0.15625 602.907226562 0.15625 c 0
EndSplineSet
EndChar

StartChar: si_Ca
Encoding: 27 3488 34
Width: 531
VWidth: 0
Flags: HW
LayerCount: 5
Fore
SplineSet
28.3583984375 200.595703125 m 4
 28.3583984375 243.270507812 40.736328125 281.649414062 59 306 c 5
 22.23828125 306 l 5
 22.23828125 393 l 5
 287.104492188 390 l 5
 320.944335938 306 l 5
 214 306 l 6
 157.21484375 306 136.981445312 261.911132812 136.981445312 214.068359375 c 4
 136.981445312 166.573242188 166.315429688 115 247 115 c 4
 351.452148438 115 393 195.017578125 393 354 c 4
 393 583 321.6796875 640 238.854492188 640 c 4
 197.750976562 640 157.666015625 618.959960938 140.610351562 576.85546875 c 5
 31.578125 613.029296875 l 5
 67.5625 707.868164062 152.133789062 755 238.854492188 755 c 4
 378.326171875 755 509 675.859375 509 354 c 4
 508 118 427 0 247 0 c 4
 83.353515625 0 28.3583984375 112.889648438 28.3583984375 200.595703125 c 4
56.5361328125 409.272460938 m 4
 56.5361328125 481.53515625 105.506835938 531.563476562 179.80859375 531.563476562 c 4
 256.794921875 531.563476562 328.193359375 474.899414062 328.193359375 365.563476562 c 4
 328.193359375 351 325 325 320.944335938 306 c 5
 230.564453125 371.875 l 5
 231.504882812 376.782226562 231.979492188 381.770507812 231.979492188 386.713867188 c 4
 231.979492188 416.143554688 215.166015625 444 179.80859375 444 c 4
 155.008789062 444 146.016601562 426.133789062 146.016601562 404.787109375 c 4
 146.016601562 386.79296875 158.301757812 370.325195312 167 356 c 5
 87 318.563476562 l 5
 67 351 56.5361328125 380.620117188 56.5361328125 409.272460938 c 4
EndSplineSet
Layer: 3
SplineSet
246.76171875 0 m 0
 68.76171875 0 19.3089077967 133.561488168 29.353515625 223 c 0
 32.9697265625 255.19921875 43.76171875 286 58.76171875 306 c 1
 22 306 l 1
 22 393 l 1
 286.866210938 390 l 1
 320.706054688 306 l 1
 213.76171875 306 l 2
 156.9765625 306 136.743164062 261.911132812 136.743164062 214.068359375 c 0
 136.743164062 166.573242188 166.077148438 115 246.76171875 115 c 0
 351.213867188 115 392.76171875 195.017578125 392.76171875 354 c 0
 392.76171875 583 321.44140625 640 238.616210938 640 c 0
 197.512695312 640 157.427734375 618.959960938 140.372070312 576.85546875 c 1
 31.33984375 613.029296875 l 1
 67.32421875 707.868164062 151.895507812 755 238.616210938 755 c 0
 378.087890625 755 508.76171875 675.859375 508.76171875 354 c 0
 507.76171875 118 426.76171875 0 246.76171875 0 c 0
166.76171875 356 m 1
 86.76171875 318.563476562 l 1
 66.76171875 351 56.2978515625 380.620117188 56.2978515625 409.272460938 c 0
 56.2978515625 481.53515625 105.268554688 531.563476562 179.5703125 531.563476562 c 0
 256.556640625 531.563476562 327.955078125 474.899414062 327.955078125 365.563476562 c 0
 327.955078125 351 324.76171875 325 320.706054688 306 c 1
 320.706054688 306 229.260742188 366.313476562 230.326171875 371.875 c 0
 236.866210938 406 220.866210938 444 179.5703125 444 c 0
 154.770507812 444 145.778320312 426.133789062 145.778320312 404.787109375 c 0
 145.778320312 386.79296875 158.063476562 370.325195312 166.76171875 356 c 1
EndSplineSet
EndChar

StartChar: si_Cha
Encoding: 28 3489 35
Width: 566
VWidth: 0
Flags: HW
LayerCount: 5
Fore
SplineSet
363.0390625 576 m 4
 472.748046875 688.384765625 479.17578125 723.752929688 479.17578125 779 c 5
 589.17578125 779 l 5
 589.17578125 681.1484375 538.8984375 617 461.17578125 537 c 4
 363.0390625 576 l 4
244.041015625 467.353515625 m 4
 244.041015625 473.071289062 244.60546875 478.329101562 245.856445312 483 c 4
 265.485351562 556.276367188 324.575195312 594 387.393554688 594 c 4
 473.953125 594 536.951171875 538.436523438 536.951171875 408.6796875 c 4
 536.951171875 262.436523438 458.475585938 191.436523438 360.475585938 191.436523438 c 4
 287.904296875 191.436523438 253.84765625 239.87109375 253.84765625 282.801757812 c 4
 253.84765625 296.0703125 257.100585938 308.8125 263.475585938 319.436523438 c 5
 352.475585938 318.436523438 l 5
 342.756835938 315.901367188 337.858398438 308.278320312 337.858398438 300.319335938 c 4
 337.858398438 289.444335938 347.004882812 277.943359375 365.493164062 277.943359375 c 4
 406.475585938 277.943359375 443.475585938 302.436523438 443.475585938 403.436523438 c 4
 443.475585938 474.436523438 414.758789062 496 383.220703125 496 c 4
 360.482421875 496 331.65625 481.030273438 331.65625 434.341796875 c 4
 331.65625 428.678710938 332.159179688 422.2421875 333.220703125 416 c 4
 286.720703125 318.436523438 l 5
 274.109375 359.422851562 244.041015625 425.625 244.041015625 467.353515625 c 4
129 224 m 4
 129.000976562 144.037109375 207.711914062 104.166992188 286.497070312 104.166992188 c 4
 365.430664062 104.166992188 444.439453125 144.186523438 444.439453125 224 c 4
 444.439453125 275.725585938 417 318 362 318 c 6
 211.439453125 318 l 6
 156.443359375 318 129 276.868164062 129 224 c 4
22 224 m 4
 22 329.376953125 83.056640625 416 205.439453125 416 c 6
 368 416 l 6
 490.3828125 416 551.439453125 329.65234375 551.439453125 224 c 4
 551.439453125 66.5009765625 419.080078125 -12.2490234375 286.720703125 -12.2490234375 c 4
 154.360351562 -12.2490234375 22 66.501953125 22 224 c 4
47.388671875 456.407226562 m 4
 47.388671875 532.13671875 99.48828125 594 186.047851562 594 c 4
 248.866210938 594 307.958984375 556.27734375 327.584960938 483 c 4
 328.8359375 478.329101562 329.400390625 473.071289062 329.400390625 467.353515625 c 4
 329.400390625 425.625 299.33203125 359.422851562 286.720703125 318.436523438 c 5
 240.220703125 416 l 4
 241.282226562 422.2421875 241.78515625 428.678710938 241.78515625 434.341796875 c 4
 241.78515625 481.030273438 212.958984375 496 190.220703125 496 c 4
 155.077148438 496 140.864257812 475 140.864257812 451.1640625 c 4
 140.864257812 439.108398438 147.5 419.560546875 155.483398438 410.436523438 c 5
 78.7744140625 369.030273438 l 5
 58.63671875 394.649414062 47.388671875 428.149414062 47.388671875 456.407226562 c 4
EndSplineSet
EndChar

StartChar: si_Ja
Encoding: 29 3490 36
Width: 566
VWidth: 0
Flags: HW
LayerCount: 5
Fore
SplineSet
363.0390625 576 m 4
 472.748046875 688.384765625 479.17578125 723.752929688 479.17578125 779 c 5
 589.17578125 779 l 5
 589.17578125 681.1484375 538.8984375 617 461.17578125 537 c 4
 363.0390625 576 l 4
244.041015625 467.353515625 m 4
 244.041015625 473.071289062 244.60546875 478.329101562 245.856445312 483 c 4
 265.482421875 556.27734375 324.575195312 594 387.393554688 594 c 4
 473.953125 594 526.052734375 532.13671875 526.052734375 456.407226562 c 4
 526.052734375 428.149414062 514.8046875 394.649414062 494.666992188 369.030273438 c 5
 417.958007812 410.436523438 l 5
 425.94140625 419.560546875 432.577148438 439.108398438 432.577148438 451.1640625 c 4
 432.577148438 475 418.364257812 496 383.220703125 496 c 4
 360.482421875 496 331.65625 481.030273438 331.65625 434.341796875 c 4
 331.65625 428.678710938 332.159179688 422.2421875 333.220703125 416 c 4
 286.720703125 318.436523438 l 5
 274.109375 359.422851562 244.041015625 425.625 244.041015625 467.353515625 c 4
129 224 m 4
 129 144.037109375 207.711914062 104.166992188 286.497070312 104.166992188 c 4
 365.430664062 104.166992188 444.439453125 144.186523438 444.439453125 224 c 4
 444.439453125 275.725585938 417 318 362 318 c 6
 211.439453125 318 l 6
 156.439453125 318 129 275.725585938 129 224 c 4
22 224 m 4
 22 329.376953125 83.056640625 416 205.439453125 416 c 6
 368 416 l 6
 490.3828125 416 551.439453125 329.65234375 551.439453125 224 c 4
 551.439453125 66.5009765625 419.080078125 -12.2490234375 286.720703125 -12.2490234375 c 4
 154.360351562 -12.2490234375 22 66.501953125 22 224 c 4
47.388671875 456.407226562 m 4
 47.388671875 532.13671875 99.48828125 594 186.047851562 594 c 4
 248.866210938 594 307.958984375 556.27734375 327.584960938 483 c 4
 328.8359375 478.329101562 329.400390625 473.071289062 329.400390625 467.353515625 c 4
 329.400390625 425.625 299.33203125 359.422851562 286.720703125 318.436523438 c 5
 240.220703125 416 l 4
 241.282226562 422.2421875 241.78515625 428.678710938 241.78515625 434.341796875 c 4
 241.78515625 481.030273438 212.958984375 496 190.220703125 496 c 4
 155.077148438 496 140.864257812 475 140.864257812 451.1640625 c 4
 140.864257812 439.108398438 147.5 419.560546875 155.483398438 410.436523438 c 5
 78.7744140625 369.030273438 l 5
 58.63671875 394.649414062 47.388671875 428.149414062 47.388671875 456.407226562 c 4
EndSplineSet
EndChar

StartChar: si_Jha
Encoding: 30 3491 37
Width: 1050
VWidth: 0
Flags: HW
LayerCount: 5
Fore
SplineSet
490.655273438 231.204101562 m 0
 490.655273438 277.470703125 496.916015625 319.594726562 504.783203125 345 c 0
 528.852539062 422.728515625 584.234375 472 656.333007812 472 c 0
 684.099609375 472 713.130859375 465.063476562 741.504882812 445.2578125 c 1
 703.639648438 345 l 1
 689.791992188 352.989257812 677.122070312 356.607421875 665.776367188 356.607421875 c 0
 638.993164062 356.607421875 618.952148438 336.647460938 609.51953125 306 c 0
 605.087890625 291.600585938 601.602539062 261.723632812 601.602539062 229.770507812 c 0
 601.602539062 175.234375 611.755859375 114.65234375 644.693359375 114.65234375 c 0
 686.869140625 114.65234375 701.875 179.677734375 701.875 249.5 c 1
 797.786132812 249.5 l 1
 797.786132812 176.75 813.25390625 115 856.244140625 115 c 0
 913 115 913 239.958007812 913 293 c 0
 913 522.796875 870 639.884765625 732 639.884765625 c 0
 690.896484375 639.884765625 643.237304688 618.959960938 626.181640625 576.85546875 c 1
 517.149414062 613.029296875 l 1
 553.133789062 707.868164062 645.279296875 755 732 755 c 0
 949 755 1028 599.055664062 1028 293 c 0
 1028 181.99609375 1027 0 856.244140625 0 c 0
 800.32421875 0 762.301757812 33.14453125 747.481445312 79.0302734375 c 1
 731.3359375 31.6025390625 691.923828125 0 639.244140625 0 c 0
 522.635742188 0 490.655273438 126.224609375 490.655273438 231.204101562 c 0
22.7412109375 232 m 1
 242.201171875 489 l 2
 290.848632812 545.3046875 343.11328125 585 433.11328125 585 c 0
 525.846679688 585 607.75 536.659179688 647.086914062 428 c 9
 544.638671875 383 l 17
 524.643554688 441.520507812 486.595703125 473 433.11328125 473 c 0
 380.11328125 473 353.11328125 458 314.11328125 416 c 2
 314.11328125 416 202.640625 290.15625 118.11328125 205 c 1
 26.7412109375 126 l 1
 22.7412109375 232 l 1
58.1025390625 83 m 4
 58.1025390625 91.830078125 58.8291015625 99 58.8291015625 106 c 4
 58.8291015625 120.5625 48.78515625 128.334960938 37.275390625 128.334960938 c 4
 34.158203125 128.334960938 30.654296875 127.57421875 26.7412109375 126 c 5
 41.11328125 192 l 5
 104.829101562 221 l 5
 109.052734375 216.169921875 112.953125 211.756835938 117.829101562 207 c 4
 125.258789062 199.926757812 134.296875 191.21875 134.296875 167 c 4
 134.296875 162 134.11328125 159.962890625 134.11328125 156 c 4
 134.11328125 138.591796875 135.989257812 109 160.11328125 109 c 4
 175.142578125 109 191.485351562 119 191.485351562 160 c 6
 191.485351562 227 l 5
 281.485351562 227 l 5
 281.485351562 160 l 6
 281.485351562 122 294.11328125 109 313.11328125 109 c 4
 348.11328125 109 353.201171875 165.987304688 353.201171875 210 c 4
 353.201171875 307.752929688 318.11328125 343 279.11328125 343 c 4
 252.059570312 343 239.11328125 330.903320312 229.11328125 322 c 5
 180.11328125 358 l 5
 215.7421875 415.50390625 252.982421875 429.166992188 314.857421875 429.166992188 c 4
 381.11328125 429.166992188 460.201171875 400 460.201171875 210 c 4
 460.201171875 111.981445312 420.15625 0 323.11328125 0 c 4
 275.15625 0 247.623046875 29 237.11328125 52 c 5
 228.076171875 31 201.126953125 0 157.11328125 0 c 4
 80.03515625 0 58.1025390625 46 58.1025390625 83 c 4
19.11328125 461.536132812 m 0
 19.11328125 532.131835938 67.11328125 594 154.728515625 594 c 0
 231.71875 594 303.11328125 537.3359375 303.11328125 428 c 1
 205.484375 375 l 1
 205.484375 386 205.484375 428.6484375 205.484375 434.311523438 c 0
 205.484375 471.944335938 181.639648438 496 153.11328125 496 c 0
 125.279296875 496 111.688476562 475.012695312 111.688476562 451.903320312 c 0
 111.688476562 411.899414062 138.912109375 394.899414062 168.912109375 387.899414062 c 1
 109.201171875 327.899414062 l 1
 63.912109375 344.899414062 19.11328125 391.899414062 19.11328125 461.536132812 c 0
EndSplineSet
Layer: 3
SplineSet
157.615234375 592.100585938 m 0
 234.60546875 592.100585938 306 535.436523438 306 426.100585938 c 0
 306 394.8359375 295.087890625 388 270.087890625 368 c 1
 206.806640625 414.537109375 l 0
 207.868164062 420.779296875 208.37109375 426.749023438 208.37109375 432.412109375 c 0
 208.37109375 470.044921875 184.526367188 494.100585938 156 494.100585938 c 0
 128.166015625 494.100585938 114.575195312 473.11328125 114.575195312 450.00390625 c 0
 114.575195312 410 141.798828125 393 171.798828125 386 c 1
 112.087890625 326 l 1
 66.798828125 343 22 390 22 459.63671875 c 0
 22 530.232421875 70 592.100585938 157.615234375 592.100585938 c 0
322.130859375 0 m 0
 283.130859375 0 248.130859375 29 238.715820312 52 c 1
 230.130859375 31 199.130859375 0 155.087890625 0 c 0
 48.2646484375 0 34.087890625 100 58.087890625 146 c 1
 158.087890625 249 l 1
 131.087890625 227.963867188 128.087890625 191.751953125 128.087890625 156 c 0
 128.087890625 138.591796875 134.80859375 109 158.087890625 109 c 0
 176.745117188 109 193.087890625 119 193.087890625 160 c 0
 193.087890625 176.21875 193.087890625 202.995117188 193.087890625 227 c 1
 283.087890625 227 l 1
 283.087890625 202.2265625 283.087890625 176.891601562 283.087890625 160 c 0
 283.087890625 122 295.087890625 109 321.087890625 109 c 0
 356.087890625 109 356.087890625 165.987304688 356.087890625 210 c 0
 356.087890625 335.987304688 291.087890625 370 240.087890625 352 c 1
 313.087890625 432 l 1
 335.529296875 443 463.087890625 431 463.087890625 210 c 0
 463.087890625 112.106445312 428.130859375 0 322.130859375 0 c 0
546.130859375 377 m 1
 545.130859375 453 488.087890625 482 447.087890625 482 c 0
 413.89453125 482 374.853515625 473.506835938 326.087890625 423 c 0
 322.5234375 419.307617188 37.5458984375 122.674804688 29.087890625 115 c 1
 26.087890625 249 l 17
 93.087890625 318 77.1484375 298.06640625 137.087890625 364 c 0
 157.087890625 386 245.087890625 489 245.087890625 489 c 0
 294.087890625 545 357.087890625 594 447.087890625 594 c 0
 554.086914062 594 610.087890625 534 653.087890625 444 c 1
 546.130859375 377 l 1
1019.37109375 293 m 0
 1019.37109375 181.99609375 1013.88671875 0 856.130859375 0 c 0
 800.2109375 0 762.188476562 33.14453125 747.368164062 79.0302734375 c 1
 731.22265625 31.6025390625 691.810546875 0 639.130859375 0 c 0
 471.130859375 0 478.536132812 258 504.416015625 341 c 0
 529.720703125 422.157226562 589.295898438 474.71484375 656.219726562 474.71484375 c 0
 683.986328125 474.71484375 713.017578125 465.66796875 741.391601562 445.862304688 c 1
 703.526367188 345.604492188 l 1
 689.678710938 353.59375 677.008789062 357.211914062 665.663085938 357.211914062 c 0
 638.124023438 357.211914062 618.390625 335.891601562 608.575195312 304 c 0
 596.579101562 265.024414062 591.131835938 124 639.130859375 115 c 0
 685.03125 106.393554688 701.76171875 176.75 701.76171875 249.5 c 1
 797.672851562 249.5 l 1
 797.672851562 176.75 813.140625 115 856.130859375 115 c 0
 904.130859375 115 904.37109375 239.958007812 904.37109375 293 c 0
 904.37109375 522.796875 840.71875 639.884765625 715.796875 639.884765625 c 0
 674.693359375 639.884765625 634.608398438 618.959960938 617.552734375 576.85546875 c 1
 508.520507812 613.029296875 l 1
 544.504882812 707.868164062 629.076171875 755 715.796875 755 c 0
 916.580078125 755 1018.88671875 599.055664062 1019.37109375 293 c 0
EndSplineSet
EndChar

StartChar: si_Nya
Encoding: 31 3492 38
Width: 1062
VWidth: 0
Flags: HW
LayerCount: 5
Fore
SplineSet
806.333984375 -57.970703125 m 4
 806.333984375 -31.6064453125 813.779296875 -4.275390625 830 21.5380859375 c 5
 920 44.4365234375 l 5
 930 4 l 5
 918.924804688 -8.7734375 913.220703125 -26.3193359375 913.220703125 -43.205078125 c 4
 913.220703125 -70.99609375 928.671875 -97 961.0546875 -97 c 4
 985.685546875 -97 1012.50878906 -85.0556640625 1035 -54.5634765625 c 5
 1112 -106.563476562 l 5
 1066.08886719 -175.430664062 1011.33300781 -202.407226562 961.0546875 -202.407226562 c 4
 868.627929688 -202.407226562 806.333984375 -134.229492188 806.333984375 -57.970703125 c 4
674 217 m 4
 674 330.947265625 770.6796875 421.3515625 891 421.3515625 c 4
 909.830078125 421.3515625 922 420 939.806640625 418.436523438 c 5
 940.868164062 424.678710938 941.37109375 430.6484375 941.37109375 436.311523438 c 4
 941.37109375 473.944335938 919.141601562 498 890.615234375 498 c 4
 861.259765625 498 845.431640625 477 845.431640625 453.1640625 c 4
 845.431640625 440.755859375 848.948242188 427.390625 856.780273438 418 c 5
 779 379 l 5
 759.690429688 404.20703125 751.956054688 430.604492188 751.956054688 458.407226562 c 4
 751.956054688 534.13671875 804.055664062 596 890.615234375 596 c 4
 967.60546875 596 1039 539.3359375 1039 430 c 4
 1039 398.735351562 1032 357 1020 318 c 5
 1020 318 939.53125 318 891 318 c 4
 835 318 786 274 786 217 c 4
 786 160 832.782226562 116 891 116 c 4
 926.29296875 116 957.569335938 131.385742188 977.662109375 155.436523438 c 5
 1064 93.0419921875 l 5
 1023.88964844 36.2998046875 961.454101562 0 891 0 c 4
 770.6640625 0 674 96.6640625 674 217 c 4
219.052734375 232 m 5
 438.512695312 489 l 6
 488.335599705 547.345432918 561.002112711 585 641 585 c 4
 729.410710917 585 799 547 845 442 c 5
 762 408 l 5
 747.396966639 448 699.026664334 473 641 473 c 4
 597.740322922 473 550.953862798 459.63077174 510.424804688 416 c 6
 510.424804688 416 398.952148438 290.15625 314.424804688 205 c 5
 223.052734375 126 l 5
 219.052734375 232 l 5
254.4140625 83 m 4
 254.4140625 91.830078125 255.140625 99 255.140625 106 c 4
 255.140625 120.562174781 245.096866317 128.334960938 233.586914062 128.334960938 c 4
 230.469726562 128.334960938 226.965820312 127.57421875 223.052734375 126 c 5
 237.424804688 192 l 5
 301.140625 221 l 5
 305.363882128 216.17029074 309.206795596 211.696714662 314.140625 207 c 4
 321.570622701 199.927080309 330.608398438 191.218400122 330.608398438 167 c 4
 330.608398438 162 330.424804688 159.962673611 330.424804688 156 c 4
 330.424804688 138.591796875 332.30078125 109 356.424804688 109 c 4
 371.454101562 109 387.796875 119 387.796875 160 c 6
 387.796875 227 l 5
 477.796875 227 l 5
 477.796875 160 l 6
 477.796875 122 490.424804688 109 509.424804688 109 c 4
 544.424804688 109 549.512695312 165.987304688 549.512695312 210 c 4
 549.512695312 307.752929688 514.424804688 343 475.424804688 343 c 4
 448.37109375 343 435.424804688 330.903320312 425.424804688 322 c 5
 376.424804688 358 l 5
 412.053710938 415.50390625 449.293945312 429.166992188 511.168945312 429.166992188 c 4
 577.424804688 429.166992188 656.512695312 400 656.512695312 210 c 4
 656.512695312 111.981445312 616.467773438 0 519.424804688 0 c 4
 471.467773438 0 443.934570312 29 433.424804688 52 c 5
 424.387695312 31 397.438476562 0 353.424804688 0 c 4
 276.346679687 0 254.4140625 46 254.4140625 83 c 4
215.424804688 461.536132812 m 4
 215.424804688 532.131835938 263.424804688 594 351.040039062 594 c 4
 428.030273438 594 499.424804688 537.3359375 499.424804688 428 c 5
 401.795898438 375 l 5
 401.795898438 386 401.795898438 428.6484375 401.795898438 434.311523438 c 4
 401.795898438 471.944335938 377.951171875 496 349.424804688 496 c 4
 321.590820312 496 308 475.012695312 308 451.903320312 c 4
 308 411.899414062 335.223632812 394.899414062 365.223632812 387.899414062 c 5
 305.512695312 327.899414062 l 5
 260.223632812 344.899414062 215.424804688 391.899414062 215.424804688 461.536132812 c 4
22 284 m 4
 22 506.57421875 96.8720703125 584 188.372070312 584 c 4
 257.69140625 584 295.521484375 527.580078125 304 487 c 5
 250 426 l 5
 245.211914062 442.5859375 231.501953125 480 193 480 c 4
 158.987304688 480 128 425.659179688 128 284 c 4
 128 131.65625 151.779296875 102 185 102 c 4
 185 0 l 4
 90 0 22 46.2763671875 22 284 c 4
EndSplineSet
Layer: 3
SplineSet
198.0546875 121.216796875 m 0
 226.0546875 10.216796875 l 0
 116.0546875 -9.783203125 26.0546875 55.841796875 26.0546875 290.216796875 c 0
 26.0546875 512.791015625 110.827148438 590.216796875 214.426757812 590.216796875 c 0
 290.340820312 590.216796875 331.76953125 540.1953125 341.0546875 504.216796875 c 1
 276.0546875 432.216796875 l 1
 270.877929688 448.802734375 256.0546875 486.216796875 214.426757812 486.216796875 c 0
 171.32421875 486.216796875 132.0546875 431.875976562 132.0546875 290.216796875 c 0
 132.0546875 164.216796875 141.0546875 110.216796875 198.0546875 121.216796875 c 0
350.58203125 592.100585938 m 0
 427.572265625 592.100585938 498.966796875 535.436523438 498.966796875 426.100585938 c 0
 498.966796875 394.8359375 488.0546875 388 463.0546875 368 c 1
 399.7734375 414.537109375 l 0
 400.834960938 420.779296875 401.337890625 426.749023438 401.337890625 432.412109375 c 0
 401.337890625 470.044921875 377.493164062 494.100585938 348.966796875 494.100585938 c 0
 321.1328125 494.100585938 307.541992188 473.11328125 307.541992188 450.00390625 c 0
 307.541992188 410 334.765625 393 364.765625 386 c 1
 305.0546875 326 l 1
 259.765625 343 214.966796875 390 214.966796875 459.63671875 c 0
 214.966796875 530.232421875 262.966796875 592.100585938 350.58203125 592.100585938 c 0
515.09765625 0 m 0
 476.09765625 0 441.09765625 29 431.682617188 52 c 1
 423.09765625 31 392.09765625 0 348.0546875 0 c 0
 241.231445312 0 227.0546875 100 251.0546875 146 c 1
 351.0546875 249 l 1
 324.0546875 227.963867188 321.0546875 191.751953125 321.0546875 156 c 0
 321.0546875 138.591796875 327.775390625 109 351.0546875 109 c 0
 369.711914062 109 386.0546875 119 386.0546875 160 c 0
 386.0546875 176.21875 386.0546875 202.995117188 386.0546875 227 c 1
 476.0546875 227 l 1
 476.0546875 202.2265625 476.0546875 176.891601562 476.0546875 160 c 0
 476.0546875 122 488.0546875 109 514.0546875 109 c 0
 549.0546875 109 549.0546875 165.987304688 549.0546875 210 c 0
 549.0546875 335.987304688 484.0546875 370 433.0546875 352 c 1
 506.0546875 432 l 1
 528.49609375 443 656.0546875 431 656.0546875 210 c 0
 656.0546875 112.106445312 621.09765625 0 515.09765625 0 c 0
760.0546875 379 m 1
 759.0546875 455 681.0546875 482 640.0546875 482 c 0
 606.861328125 482 567.8203125 473.506835938 519.0546875 423 c 0
 515.490234375 419.307617188 230.512695312 122.674804688 222.0546875 115 c 1
 219.0546875 249 l 17
 286.0546875 318 270.115234375 298.06640625 330.0546875 364 c 0
 350.0546875 386 438.0546875 489 438.0546875 489 c 0
 487.0546875 545 550.0546875 594 640.0546875 594 c 0
 747.053710938 594 803.0546875 534 846.0546875 444 c 1
 760.0546875 379 l 1
891 318 m 0
 835 318 790 273 790 217 c 0
 790 161 835 116 891 116 c 0
 926.29296875 116 957.569335938 131.385742188 977.662109375 155.436523438 c 1
 1064 93.0419921875 l 1
 1023.88964844 36.2998046875 961.454101562 0 891 0 c 0
 770.6640625 0 674 96.6640625 674 217 c 0
 674 330.947265625 770.68359375 421.3515625 891 421.3515625 c 1
 909.834960938 421.3515625 922 420 939.806640625 418.436523438 c 1
 940.868164062 424.678710938 941.37109375 430.6484375 941.37109375 436.311523438 c 0
 941.37109375 473.944335938 919.141601562 498 890.615234375 498 c 0
 861.259765625 498 845.431640625 477 845.431640625 453.1640625 c 0
 845.431640625 441.108398438 849.016601562 428.124023438 857 419 c 1
 779 379 l 1
 759.690429688 404.20703125 751.956054688 430.604492188 751.956054688 458.407226562 c 0
 751.956054688 534.13671875 804.055664062 596 890.615234375 596 c 0
 967.60546875 596 1039 539.3359375 1039 430 c 0
 1039 398.735351562 1032 357 1020 318 c 1
 1020 318 939.53125 318 891 318 c 0
1035 -54.5634765625 m 1
 1112 -106.563476562 l 1
 1066.08886719 -175.430664062 1011.33300781 -202.407226562 961.0546875 -202.407226562 c 0
 836.673828125 -202.407226562 766.862304688 -78.939453125 830 21.5380859375 c 1
 920 44.4365234375 l 1
 930 4 l 1
 900.696289062 -29.796875 908.99609375 -97 961.0546875 -97 c 0
 985.685546875 -97 1012.50878906 -85.0556640625 1035 -54.5634765625 c 1
EndSplineSet
EndChar

StartChar: si_Jnya
Encoding: 32 3493 39
Width: 998
VWidth: 0
Flags: HW
LayerCount: 5
Fore
SplineSet
742.333984375 -57.970703125 m 4
 742.333984375 -31.6059585666 749.779658115 -4.27525012086 766 21.5380859375 c 5
 856 44.4365234375 l 5
 866 4 l 5
 854.924574423 -8.7736371941 849.220703125 -26.3192638447 849.220703125 -43.205078125 c 4
 849.220703125 -70.9961866373 864.671503773 -97 897.0546875 -97 c 4
 921.685546875 -97 948.508789062 -85.0556640625 971 -54.5634765625 c 5
 1048 -106.563476562 l 5
 1002.08886719 -175.430664062 947.333007812 -202.407226562 897.0546875 -202.407226562 c 4
 804.628048529 -202.407226562 742.333984375 -134.229782177 742.333984375 -57.970703125 c 4
610 217 m 4
 610 330.947265625 706.6796875 421.3515625 827 421.3515625 c 4
 845.830078125 421.3515625 858 420 875.806640625 418.436523438 c 5
 876.868164062 424.678710938 877.37109375 430.6484375 877.37109375 436.311523438 c 4
 877.37109375 473.944335938 855.141601562 498 826.615234375 498 c 4
 797.259765625 498 781.431640625 477 781.431640625 453.1640625 c 4
 781.431640625 440.755859375 784.948242188 427.390625 792.780273438 418 c 5
 715 379 l 5
 695.690429688 404.20703125 687.956054688 430.604492188 687.956054688 458.407226562 c 4
 687.956054688 534.13671875 740.055664062 596 826.615234375 596 c 4
 903.60546875 596 975 539.3359375 975 430 c 4
 975 398.735351562 968 357 956 318 c 5
 956 318 875.53125 318 827 318 c 4
 771 318 722 274 722 217 c 4
 722 160 768.782178218 116 827 116 c 4
 862.29296875 116 893.569335938 131.385742188 913.662109375 155.436523438 c 5
 1000 93.0419921875 l 5
 959.889648438 36.2998046875 897.454101562 0 827 0 c 4
 706.6640625 0 610 96.6640625 610 217 c 4
389.627929688 300.15625 m 5
 436.854492188 330.126953125 439.022460938 362.443359375 439.022460938 392.095703125 c 4
 439.022460938 398.567382812 439.190957153 404.870792276 439.595703125 411 c 4
 447.395385729 529.11328125 528.555427959 584.15625 615 584.15625 c 4
 702.165058117 584.15625 763.235955056 533.447214394 782 444 c 4
 694 419 l 4
 686.977777778 450 655.804290771 477.15625 615 477.15625 c 4
 561.745318662 477.15625 544.476638328 447.280362167 541.59375 389 c 4
 541.177734375 380.58984375 541 371.587890625 541 362 c 4
 541 286.15625 496 254 436 220 c 5
 389.627929688 300.15625 l 5
195 292 m 4
 195 514.57421875 279.772460938 584 383.372070312 584 c 4
 459.286132812 584 500.71484375 533.978515625 510 498 c 5
 445 426 l 5
 439.823242188 442.5859375 425 478 383.372070312 478 c 4
 340.26953125 478 304 433.659179688 304 292 c 4
 304 144.453125 350.415039062 107 400 107 c 4
 461 107 479.627929688 146.15625 479.627929688 184.15625 c 4
 479.627929688 219.15625 463.890625 231.250976562 451.627929688 236.15625 c 5
 514.627929688 306.15625 l 5
 550.627929688 294.44921875 581.627929688 243.15625 581.627929688 189.15625 c 4
 581.627929688 94.73046875 530.560546875 0 400 0 c 4
 293.000976562 0 195 57.625 195 292 c 4
22 284 m 4
 22 506.57421875 96.8718093556 584 188.372070312 584 c 4
 257.69140625 584 295.521484376 527.580078125 304 487 c 5
 250 426 l 5
 245.211989162 442.5859375 231.501893609 480 193 480 c 4
 158.987769413 480 128 425.659179688 128 284 c 4
 128 131.65625 151.779296875 102 185 102 c 4
 185 0 l 4
 90 0 22 46.2763671875 22 284 c 4
EndSplineSet
Layer: 3
SplineSet
827 318 m 0
 771 318 726 273 726 217 c 0
 726 161 771 116 827 116 c 0
 862.29296875 116 893.569335938 131.385742188 913.662109375 155.436523438 c 1
 1000 93.0419921875 l 1
 959.889648438 36.2998046875 897.454101562 0 827 0 c 0
 706.6640625 0 610 96.6640625 610 217 c 0
 610 330.947265625 706.68359375 421.3515625 827 421.3515625 c 1
 845.834960938 421.3515625 858 420 875.806640625 418.436523438 c 1
 876.868164062 424.678710938 877.37109375 430.6484375 877.37109375 436.311523438 c 0
 877.37109375 473.944335938 855.141601562 498 826.615234375 498 c 0
 797.259765625 498 781.431640625 477 781.431640625 453.1640625 c 0
 781.431640625 441.108398438 785.016601562 428.124023438 793 419 c 1
 715 379 l 1
 695.690429688 404.20703125 687.956054688 430.604492188 687.956054688 458.407226562 c 0
 687.956054688 534.13671875 740.055664062 596 826.615234375 596 c 0
 903.60546875 596 975 539.3359375 975 430 c 0
 975 398.735351562 968 357 956 318 c 1
 956 318 875.53125 318 827 318 c 0
971 -54.5634765625 m 1
 1048 -106.563476562 l 1
 1002.08886719 -175.430664062 947.333007812 -202.407226562 897.0546875 -202.407226562 c 0
 772.673828125 -202.407226562 702.862304688 -78.939453125 766 21.5380859375 c 1
 856 44.4365234375 l 1
 866 4 l 1
 836.696289062 -29.796875 844.99609375 -97 897.0546875 -97 c 0
 921.685546875 -97 948.508789062 -85.0556640625 971 -54.5634765625 c 1
194 115 m 0
 222 4 l 0
 112 -16 22 49.625 22 284 c 0
 22 506.57421875 106.772460938 584 210.372070312 584 c 0
 286.286132812 584 327.71484375 533.978515625 337 498 c 1
 272 426 l 1
 266.823242188 442.5859375 252 480 210.372070312 480 c 0
 167.26953125 480 128 425.659179688 128 284 c 0
 128 158 137 104 194 115 c 0
399 106 m 0
 460 106 480 155.278320312 480 199 c 0
 480 249 434.262695312 275.094726562 422 280 c 1
 489 350 l 1
 559 330 582.9921875 255.70703125 582.9921875 199 c 0
 582.9921875 104.57421875 529.560546875 0 399 0 c 0
 292.000976562 0 194 49.625 194 284 c 0
 194 506.57421875 278.772460938 584 382.372070312 584 c 0
 458.286132812 584 499.71484375 533.978515625 509 498 c 1
 444 426 l 1
 438.823242188 442.5859375 424 480 382.372070312 480 c 0
 339.26953125 480 300 425.659179688 300 284 c 0
 300 136.453125 349.415039062 106 399 106 c 0
782 374 m 0
 693 377 l 0
 693 444 656 478 612 478 c 0
 560.740234375 478 540 438 540 362 c 0
 540 306.241210938 495 254 435 220 c 1
 382 311 l 1
 434 344 438 369 438 401 c 0
 438 527 532.092773438 584 612 584 c 0
 718.999023438 584 784 502 782 374 c 0
EndSplineSet
EndChar

StartChar: si_Ndja
Encoding: 33 3494 40
Width: 741
VWidth: 0
Flags: HW
LayerCount: 5
Fore
SplineSet
538.989257812 576 m 4
 648.698242188 688.384765625 655.125976562 723.752929688 655.125976562 779 c 5
 765.125976562 779 l 5
 765.125976562 681.1484375 714.848632812 617 637.125976562 537 c 4
 538.989257812 576 l 4
419.991210938 467.353515625 m 4
 419.991210938 473.071289062 420.555664062 478.329101562 421.806640625 483 c 4
 441.432617188 556.27734375 500.525390625 594 563.34375 594 c 4
 649.903320312 594 702.002929688 532.13671875 702.002929688 456.407226562 c 4
 702.002929688 428.149414062 690.754882812 394.649414062 670.6171875 369.030273438 c 5
 593.908203125 410.436523438 l 5
 601.891601562 419.560546875 608.52734375 439.108398438 608.52734375 451.1640625 c 4
 608.52734375 475 594.314453125 496 559.170898438 496 c 4
 536.432617188 496 507.606445312 481.030273438 507.606445312 434.341796875 c 4
 507.606445312 428.678710938 508.109375 422.2421875 509.170898438 416 c 4
 462.670898438 318.436523438 l 5
 450.059570312 359.422851562 419.991210938 425.625 419.991210938 467.353515625 c 4
304.950195312 224 m 4
 304.950195312 144.037109375 383.662109375 104.166992188 462.447265625 104.166992188 c 4
 541.380859375 104.166992188 620.389648438 144.186523438 620.389648438 224 c 4
 620.389648438 275.725585938 592.950195312 318 537.950195312 318 c 6
 387.389648438 318 l 6
 332.389648438 318 304.950195312 275.725585938 304.950195312 224 c 4
197.950195312 224 m 4
 197.950195312 329.376953125 259.006835938 416 381.389648438 416 c 6
 543.950195312 416 l 6
 666.333007812 416 727.389648438 329.65234375 727.389648438 224 c 4
 727.389648438 66.5009765625 595.030273438 -12.2490234375 462.670898438 -12.2490234375 c 4
 330.310546875 -12.2490234375 197.950195312 66.501953125 197.950195312 224 c 4
223.338867188 456.407226562 m 4
 223.338867188 532.13671875 275.438476562 594 361.998046875 594 c 4
 424.81640625 594 483.909179688 556.27734375 503.53515625 483 c 4
 504.786132812 478.329101562 505.350585938 473.071289062 505.350585938 467.353515625 c 4
 505.350585938 425.625 475.282226562 359.422851562 462.670898438 318.436523438 c 5
 416.170898438 416 l 4
 417.232421875 422.2421875 417.735351562 428.678710938 417.735351562 434.341796875 c 4
 417.735351562 481.030273438 388.909179688 496 366.170898438 496 c 4
 331.02734375 496 316.814453125 475 316.814453125 451.1640625 c 4
 316.814453125 439.108398438 323.450195312 419.560546875 331.43359375 410.436523438 c 5
 254.724609375 369.030273438 l 5
 234.586914062 394.649414062 223.338867188 428.149414062 223.338867188 456.407226562 c 4
22 284 m 4
 22 506.57421875 96.8720703125 584 188.372070312 584 c 4
 257.69140625 584 295.521484375 527.580078125 304 487 c 5
 250 426 l 5
 245.211914062 442.5859375 231.501953125 480 193 480 c 4
 158.987304688 480 128 425.659179688 128 284 c 4
 128 131.65625 151.779296875 102 185 102 c 4
 185 0 l 4
 90 0 22 46.2763671875 22 284 c 4
EndSplineSet
Layer: 2
SplineSet
110.389648438 283.84375 m 4
 110.389648438 131.5 134.168945312 101.84375 167.389648438 101.84375 c 4
 167.389648438 -0.15625 l 4
 72.3896484375 -0.15625 4.3896484375 46.1201171875 4.3896484375 283.84375 c 4
 4.3896484375 506.41796875 85.3525390625 583.84375 184.296875 583.84375 c 4
 253.240234375 583.84375 290.864257812 527.423828125 299.296875 486.84375 c 5
 245.296875 425.84375 l 5
 240.172851562 442.4296875 225.500976562 479.84375 184.296875 479.84375 c 4
 145.624023438 479.84375 110.389648438 425.502929688 110.389648438 283.84375 c 4
EndSplineSet
Layer: 3
SplineSet
112.296875 284 m 0
 112.296875 131.65625 136.076171875 102 169.296875 102 c 0
 169.296875 0 l 0
 74.296875 0 6.296875 46.2763671875 6.296875 284 c 0
 6.296875 506.458007812 83.2509765625 583.84375 177.296875 583.84375 c 0
 239.645507812 583.84375 273.670898438 527.423828125 281.296875 486.84375 c 1
 227.296875 425.84375 l 1
 223.096679688 442.4296875 211.0703125 479.84375 177.296875 479.84375 c 0
 143.284179688 479.84375 112.296875 425.545898438 112.296875 284 c 0
EndSplineSet
Refer: 36 3490 N 1 0 0 1 165.297 0 2
EndChar

StartChar: si_Ttha
Encoding: 35 3496 41
Width: 581
VWidth: 0
Flags: HW
LayerCount: 5
Back
SplineSet
244 601 m 4
 244 667.848632812 295.32421875 685.932481919 295.32421875 709.823242188 c 4
 295.32421875 716.953125 290.862304687 724.23046875 279 733 c 5
 385.326171875 755 l 5
 374 643 l 5
 356.991135817 636.648995536 347 619.604306175 347 605 c 4
 347 584.662446787 362.220486044 558 398.86328125 558 c 4
 402.491432419 558 406.329595117 558.640512914 410.383789062 560 c 5
 497.326171875 524 l 5
 435.383789062 461.236328125 l 5
 428.227510879 460.402363112 421.141789741 460 414.151367188 460 c 4
 320.528882029 460 244 529.568527186 244 601 c 4
EndSplineSet
Fore
SplineSet
244 601 m 4
 244 673.485789922 306.383789062 693.09459914 306.383789062 719 c 4
 306.383789062 727.052774988 302.300107365 735.27209826 291.443359375 745.176757812 c 5
 385.326171875 755 l 5
 374 643 l 5
 356.991135817 636.648995536 347 619.604306175 347 605 c 4
 347 584.662446787 362.220486044 558 398.86328125 558 c 4
 402.491432419 558 406.329595117 558.640512914 410.383789062 560 c 5
 497.326171875 524 l 5
 435.383789062 461.236328125 l 5
 428.227510879 460.402363112 421.141789741 460 414.151367188 460 c 4
 320.528882029 460 244 529.568527186 244 601 c 4
21.9990234375 231.204101562 m 4
 21.9990234375 277.470703125 28.2600476561 319.59494162 36.126953125 345 c 4
 60.1962890625 422.728515625 115.578125 472 187.677734375 472 c 4
 215.444335938 472 244.475585938 465.063476562 272.849609375 445.2578125 c 5
 234.984375 345 l 5
 221.13671875 352.989257812 208.466796875 356.607421875 197.12109375 356.607421875 c 4
 170.337890625 356.607421875 150.296433497 336.64729627 140.864257812 306 c 4
 136.432617188 291.600585938 132.947265625 261.723632812 132.947265625 229.770507812 c 4
 132.947265625 175.234375 143.100585938 114.65234375 176.038085938 114.65234375 c 4
 218.213867188 114.65234375 233.219726562 179.677734375 233.219726562 249.500976562 c 5
 329.130859375 249.500976562 l 5
 329.130859375 176.750976562 344.598632812 115.000976562 387.588867188 115.000976562 c 4
 444.344726562 115.000976562 450.999023438 239.958984375 450.999023438 293.000976562 c 4
 450.999023438 384.548828125 429.481445312 481.404296875 410.842773438 545.000976562 c 5
 406.00390625 585.038085938 388.259765625 626.981445312 365.383789062 647.000976562 c 5
 346.904296875 687.15625 321.059570312 721.15625 291.443359375 745.176757812 c 5
 346.383789062 811 l 5
 473.486328125 745.25 565.999023438 527 565.999023438 293 c 4
 565.999023438 181.99609375 558.34375 0 387.588867188 0 c 4
 331.668945312 0 293.646484375 33.14453125 278.825195312 79.0302734375 c 5
 262.6796875 31.6025390625 223.267578125 0 170.588867188 0 c 4
 53.98046875 0 21.9990234375 126.225585937 21.9990234375 231.204101562 c 4
EndSplineSet
EndChar

StartChar: si_Nndda
Encoding: 39 3500 42
Width: 773
VWidth: 0
Flags: HW
LayerCount: 5
Fore
SplineSet
217.76171875 193.436523438 m 0
 217.76171875 234.737304688 229.244140625 280.436523438 243.244140625 306 c 1
 212 306 l 1
 212 391 l 1
 501.243164062 389.5 l 1
 534.745117188 306 l 1
 385 306 l 2
 344.244140625 306 324.76171875 245.162109375 324.76171875 193.436523438 c 0
 324.76171875 156.328125 330.435546875 114.65234375 367.693359375 114.65234375 c 0
 409.869140625 114.65234375 424.875 179.677734375 424.875 249.5 c 1
 520.786132812 249.5 l 1
 520.786132812 176.75 536.25390625 115 579.244140625 115 c 0
 636 115 636 239.958007812 636 293 c 0
 636 522.796875 593 639.884765625 455 639.884765625 c 0
 413.896484375 639.884765625 366.237304688 618.959960938 349.181640625 576.85546875 c 1
 240.149414062 613.029296875 l 1
 276.133789062 707.868164062 368.279296875 755 455 755 c 0
 672 755 751 599.055664062 751 293 c 0
 751 181.99609375 750 0 579.244140625 0 c 0
 523.32421875 0 485.301757812 33.14453125 470.481445312 79.0302734375 c 1
 454.3359375 31.6025390625 414.923828125 0 362.244140625 0 c 0
 246.444335938 0 217.76171875 105.454101562 217.76171875 193.436523438 c 0
270.336914062 409.272460938 m 0
 270.336914062 481.53515625 319.307617188 531.563476562 393.609375 531.563476562 c 0
 470.595703125 531.563476562 541.994140625 474.899414062 541.994140625 365.563476562 c 0
 541.994140625 351 538.80078125 325 534.745117188 306 c 1
 444.365234375 371.875 l 1
 445.305664062 376.782226562 445.780273438 381.770507812 445.780273438 386.713867188 c 0
 445.780273438 416.143554688 428.966796875 444 393.609375 444 c 0
 368.809570312 444 359.817382812 426.133789062 359.817382812 404.787109375 c 0
 359.817382812 386.79296875 372.102539062 370.325195312 380.80078125 356 c 1
 300.80078125 318.563476562 l 1
 280.80078125 351 270.336914062 380.620117188 270.336914062 409.272460938 c 0
21.07421875 283.84375 m 0
 21.07421875 487.986328125 106.254882812 559 210.353515625 559 c 0
 286.8671875 559 328.623046875 502.580078125 337.981445312 462 c 1
 271.981445312 401 l 1
 266.8046875 417.5859375 251.981445312 455 210.353515625 455 c 0
 166.776367188 455 127.07421875 407.546875 127.07421875 283.84375 c 0
 127.07421875 131.5 150.853515625 101.84375 184.07421875 101.84375 c 0
 184.07421875 -0.15625 l 0
 89.07421875 -0.15625 21.07421875 46.1201171875 21.07421875 283.84375 c 0
EndSplineSet
EndChar

StartChar: anusvara
Encoding: 1 3458 44
Width: 342
VWidth: 0
Flags: HW
LayerCount: 5
Fore
SplineSet
119.518554688 265.543945312 m 0
 119.518554688 211.90625 133.665039062 168.388671875 171.497070312 168.388671875 c 0
 209.329101562 168.388671875 223.475585938 211.90625 223.475585938 265.543945312 c 0
 223.475585938 319.181640625 209.329101562 362.698242188 171.497070312 362.698242188 c 0
 133.665039062 362.698242188 119.518554688 319.181640625 119.518554688 265.543945312 c 0
22 265.543945312 m 0
 22 375.155273438 73.09375 464.086914062 171.497070312 464.086914062 c 0
 269.900390625 464.086914062 320.994140625 375.155273438 320.994140625 265.543945312 c 0
 320.994140625 155.930664062 280.307617188 67 171.497070312 67 c 0
 62.6865234375 67 22 155.930664062 22 265.543945312 c 0
EndSplineSet
EndChar

StartChar: visarga
Encoding: 2 3459 45
Width: 262
VWidth: 0
Flags: HW
LayerCount: 5
Fore
SplineSet
102.51953125 141.037109375 m 0
 102.51953125 125.940429688 115.939453125 112.51953125 131.037109375 112.51953125 c 0
 146.134765625 112.51953125 159.5546875 125.940429688 159.5546875 141.037109375 c 0
 159.5546875 156.134765625 146.134765625 169.5546875 131.037109375 169.5546875 c 0
 115.939453125 169.5546875 102.51953125 156.134765625 102.51953125 141.037109375 c 0
22 141.037109375 m 0
 22 201.427734375 70.6474609375 250.075195312 131.037109375 250.075195312 c 0
 191.426757812 250.075195312 240.07421875 201.427734375 240.07421875 141.037109375 c 0
 240.07421875 80.6474609375 191.426757812 32 131.037109375 32 c 0
 70.6474609375 32 22 80.6474609375 22 141.037109375 c 0
102.51953125 418.037109375 m 0
 102.51953125 402.940429688 115.939453125 389.51953125 131.037109375 389.51953125 c 0
 146.134765625 389.51953125 159.5546875 402.940429688 159.5546875 418.037109375 c 0
 159.5546875 433.134765625 146.134765625 446.5546875 131.037109375 446.5546875 c 0
 115.939453125 446.5546875 102.51953125 433.134765625 102.51953125 418.037109375 c 0
22 418.037109375 m 0
 22 478.427734375 70.6474609375 527.075195312 131.037109375 527.075195312 c 0
 191.426757812 527.075195312 240.07421875 478.427734375 240.07421875 418.037109375 c 0
 240.07421875 357.647460938 191.426757812 309 131.037109375 309 c 0
 70.6474609375 309 22 357.647460938 22 418.037109375 c 0
EndSplineSet
EndChar

StartChar: si_Ta
Encoding: 40 3501 46
Width: 679
Flags: HW
LayerCount: 5
Fore
SplineSet
34.9998 242 m 1
 219.9998 457 l 2
 280.9334 527.8145 335.5518 594 435.9998 594 c 0
 546.4998 594 656.9998 495.9229 656.9998 275 c 0
 656.9998 60.468 574.9998 -0.229 475.9998 -0.229 c 0
 387.0857 -0.229 347.2428 57.7925 336.9998 93.771 c 1
 404.9998 157.771 l 1
 405.9998 133.771 421.3719 102.771 462.9998 102.771 c 0
 516.0115 102.771 550.9998 139.3696 551 275 c 0
 551 418.356 493.5 482 436 482 c 0
 378.709 482 358.4814 460.1211 317.284 415.7705 c 2
 317.284 415.7705 205.81 289.9265 121.284 204.7705 c 1
 35.9998 151 l 1
 34.9998 242 l 1
73.64358 101.00035 m 1
 73.64358 139 67.0977 148.2969 57 150 c 0
 51.07129 151 43.9209 151 36 151 c 1
 44.28418 191.7705 l 1
 93 234 l 1
 107.438476562 234 122.881788554 232.285173545 135.99998 224 c 0
 154.99998 212 157.64358 179.3936 157.64358 158 c 0
 157.64358 120.083 194.61628 106 228.99998 106 c 0
 295.92188 106 321.64358 131 321.64358 215 c 0
 321.64358 291.0869 281.79498 329.423 238.92388 329.423 c 0
 230.52056 329.423 222.00098 327.95034 213.64358 325.00015 c 1
 181.64358 389.00015 l 1
 226.72168 401.29405 261.51078 407.78535 303.49758 407.78535 c 0
 338.54838 407.78535 428.64358 362.61935 428.64358 215.00035 c 0
 428.64358 41.00035 339.67288 0.000349999999997 226.99958 0.000349999999997 c 0
 150.01128 0.000349999999997 73.64358 37.89585 73.64358 101.00035 c 1
22.2842 461.536 m 0
 22.2842 532.1317 70.2842 594 157.8992 594 c 0
 224.365 594 286.0002 541.7734 286.0002 441 c 1
 208.6555 375 l 1
 208.6555 434.3115 l 2
 208.6555 474.3847 184.8108 500 156.2844 500 c 0
 125.8576 500 111.0002 477.6309 111.0002 453 c 0
 111.0002 412.3105 140.0598 395.0195 172.0832 387.8994 c 1
 125.0002 330 l 1
 70.0002 345 22.2842 392.9941 22.2842 461.536 c 0
EndSplineSet
EndChar

StartChar: si_Tha
Encoding: 41 3502 47
Width: 548
VWidth: 0
Flags: HW
LayerCount: 5
Fore
SplineSet
227.04296875 601 m 4
 227.04296875 673.485789922 289.426757812 693.09459914 289.426757812 719 c 4
 289.426757812 727.052774988 285.343076116 735.27209826 274.486328125 745.176757812 c 5
 368.369140625 755 l 5
 357.04296875 643 l 5
 340.034104567 636.648995536 330.04296875 619.604306175 330.04296875 605 c 4
 330.04296875 584.662446787 345.263454794 558 381.90625 558 c 4
 388.683699124 558 395.853453413 559.281025828 403.426757812 562 c 5
 480.369140625 524 l 5
 423.426757812 460 l 5
 414.585255442 460 405.830925518 460 397.194335938 460 c 4
 303.571850779 460 227.04296875 529.568527186 227.04296875 601 c 4
21.853515625 252.396484375 m 4
 21.853515625 381.538085938 88.853515625 472 186.546875 472 c 4
 214.313476562 472 243.344726562 465.063476562 271.71875 445.2578125 c 5
 233.853515625 345 l 5
 220.005859375 352.989257812 207.3359375 356.607421875 195.990234375 356.607421875 c 4
 155.473632812 356.607421875 131.853515625 310.458984375 131.853515625 252.395507812 c 4
 131.853515625 189.243164062 171.828125 114.999023438 279 114.999023438 c 4
 409.061523438 114.999023438 433.625 234.83203125 433.625 343.766601562 c 4
 433.625 394.671875 422.348266746 442.472418693 418.426757812 475.999023438 c 5
 415.758789062 498.80859375 411.428710938 520.499023438 404.426757812 540.999023438 c 5
 398.46484375 582.606445312 376.606445312 626.1953125 348.426757812 646.999023438 c 5
 329.947265625 687.154296875 304.102539062 721.155273438 274.486328125 745.17578125 c 5
 329.426757812 810.999023438 l 5
 456.529296875 745.249023438 545.483398438 530.92578125 545.483398438 339.119140625 c 4
 545.483398438 159.708984375 476.23046875 -0.0009765625 279 0 c 5
 86.748046875 0 21.853515625 136.287109375 21.853515625 252.396484375 c 4
EndSplineSet
EndChar

StartChar: si_Dha
Encoding: 43 3504 48
Width: 581
VWidth: 0
Flags: HW
LayerCount: 5
Fore
SplineSet
22 231.204101562 m 4
 22 277.470703125 28.2109375 319.610351562 36.1279296875 345 c 4
 60.197265625 422.728515625 115.579101562 472 187.677734375 472 c 4
 215.444335938 472 244.475585938 465.063476562 272.849609375 445.2578125 c 5
 234.984375 345 l 5
 221.13671875 352.989257812 208.466796875 356.607421875 197.12109375 356.607421875 c 4
 170.337890625 356.607421875 150.938476562 336.442382812 140.864257812 306 c 4
 136.432617188 291.600585938 132.947265625 261.723632812 132.947265625 229.770507812 c 4
 132.947265625 175.234375 143.100585938 114.65234375 176.038085938 114.65234375 c 4
 218.213867188 114.65234375 233.219726562 179.677734375 233.219726562 249.5 c 5
 329.130859375 249.5 l 5
 329.130859375 176.75 344.598632812 115 387.588867188 115 c 4
 444.344726562 115 444.344726562 239.958007812 444.344726562 293 c 4
 444.344726562 522.796875 401.344726562 639.884765625 263.344726562 639.884765625 c 4
 222.241210938 639.884765625 174.58203125 618.959960938 157.526367188 576.85546875 c 5
 48.494140625 613.029296875 l 5
 84.478515625 707.868164062 176.624023438 755 263.344726562 755 c 4
 480.344726562 755 559.344726562 599.055664062 559.344726562 293 c 4
 559.344726562 181.99609375 558.344726562 0 387.588867188 0 c 4
 331.668945312 0 293.646484375 33.14453125 278.826171875 79.0302734375 c 5
 262.680664062 31.6025390625 223.268554688 0 170.588867188 0 c 4
 53.98046875 0 22 126.224609375 22 231.204101562 c 4
EndSplineSet
EndChar

StartChar: si_Na
Encoding: 44 3505 49
Width: 680
Flags: HW
LayerCount: 5
Fore
SplineSet
54.3721 206 m 1
 114.3721 263 l 1
 118.757843927 261.609371852 122.963019704 260.949203892 127.002232068 260.949203892 c 0
 185.247424457 260.949203892 208.983078448 398.220974945 242.0001 462 c 0
 282.0001 539.2686 349.0001 594 439 594 c 0
 545.999 594 660 524.9219 660 275 c 0
 660 49.516 569.6475 0 471 0 c 0
 385.4941 0 350.458 57.792 340 93.7705 c 1
 408 157.7705 l 1
 414.52051 141.1846 418.5645 103 471 103 c 0
 512.5674 103 554 134.2256 554 275 c 0
 554 438.191 490.2559 482 439 482 c 0
 397.0283 482 368.624 470.4844 328 409 c 0
 290.675402489 352.509289307 260.854376916 177.897592434 148.711437453 177.897592434 c 0
 116.254049301 177.897592434 80.5282592816 195.450302007 54.3721 206 c 1
23.5148183333 227.764273191 m 0
 23.5148183333 246.089996109 24.7694372168 265.504030582 27.3721 286 c 1
 123.3721 279 l 1
 121.367368611 259.877946753 120.328799442 242.610792556 120.328799442 227.08118595 c 0
 120.328799442 141.906584996 151.570504822 109 226.0001 109 c 0
 303.4093 109 336.0001 155 336.0001 224 c 0
 336.0001 303.839272929 290.830673258 323.151514024 240.84796904 323.151514024 c 0
 238.243180909 323.151514024 235.625320652 323.09906493 233.0001 323 c 1
 286.0001 416 l 1
 299.668306758 415.24065518 325.589360322 412.607345555 352.488837369 400 c 0
 396.438535404 379.401494342 443.0001 332.177655848 443.0001 223 c 0
 443.0001 61 349.0802 0 226.0001 0 c 0
 108.314745308 0 23.5148183333 77.1025449254 23.5148183333 227.764273191 c 0
38.19375 461.0994 m 0
 38.19375 531.6951 85.999 593.563 173.809 593.563 c 0
 250.799 593.563 322.195 536.898 322.195 427.563 c 9
 223.0017 415.9985 l 1
 224.06322 422.24069 224.56615 428.2104 224.56615 433.8735 c 0
 224.56615 471.5063 200.72145 495.563 172.19505 495.563 c 0
 144.36105 495.563 130.77025 474.5757 130.77025 451.4653 c 0
 130.77025 425.462169188 152.409423258 400.766039623 187.999997277 388.035413052 c 0
 197.581973992 384.607972761 208.175199582 382.047836165 219.62965 380.563 c 1
 193.00175 302.4614 l 1
 179.965460477 305.689428697 167.721916401 309.559062588 156.282814667 313.999998646 c 0
 78.7698707357 344.092398882 38.19375 400.416743979 38.19375 461.0994 c 0
EndSplineSet
EndChar

StartChar: si_Nda
Encoding: 45 3507 50
Width: 578
VWidth: 0
Flags: HW
LayerCount: 5
Fore
SplineSet
322.333984375 -57.970703125 m 4
 322.333984375 -31.6064453125 329.779296875 -4.275390625 346 21.5380859375 c 5
 436 44.4365234375 l 5
 446 4 l 5
 434.924804688 -8.7734375 429.220703125 -26.3193359375 429.220703125 -43.205078125 c 4
 429.220703125 -70.99609375 444.671875 -97 477.0546875 -97 c 4
 501.685546875 -97 528.508789062 -85.0556640625 551 -54.5634765625 c 5
 628 -106.563476562 l 5
 582.088867188 -175.430664062 527.333007812 -202.407226562 477.0546875 -202.407226562 c 4
 384.627929688 -202.407226562 322.333984375 -134.229492188 322.333984375 -57.970703125 c 4
190 217 m 4
 190 330.947265625 286.6796875 421.3515625 407 421.3515625 c 4
 425.830078125 421.3515625 438 420 455.806640625 418.436523438 c 5
 456.868164062 424.678710938 457.37109375 430.6484375 457.37109375 436.311523438 c 4
 457.37109375 473.944335938 435.141601562 498 406.615234375 498 c 4
 377.259765625 498 361.431640625 477 361.431640625 453.1640625 c 4
 361.431640625 440.755859375 364.948242188 427.390625 372.780273438 418 c 5
 295 379 l 5
 275.690429688 404.20703125 267.956054688 430.604492188 267.956054688 458.407226562 c 4
 267.956054688 534.13671875 320.055664062 596 406.615234375 596 c 4
 483.60546875 596 555 539.3359375 555 430 c 4
 555 398.735351562 548 357 536 318 c 5
 536 318 455.53125 318 407 318 c 4
 351 318 302 274 302 217 c 4
 302 160 348.782226562 116 407 116 c 4
 442.29296875 116 473.569335938 131.385742188 493.662109375 155.436523438 c 5
 580 93.0419921875 l 5
 539.889648438 36.2998046875 477.454101562 0 407 0 c 4
 286.6640625 0 190 96.6640625 190 217 c 4
22 284 m 4
 22 506.57421875 106.772460938 584 210.372070312 584 c 4
 279.69140625 584 317.521484375 527.580078125 326 487 c 5
 272 426 l 5
 266.823242188 442.5859375 252 480 210.372070312 480 c 4
 167.26953125 480 128 425.659179688 128 284 c 4
 128 131.65625 151.779296875 102 185 102 c 4
 185 0 l 4
 90 0 22 46.2763671875 22 284 c 4
EndSplineSet
Layer: 2
SplineSet
128 284 m 4
 128 131.65625 151.779296875 102 185 102 c 4
 185 0 l 4
 90 0 22 46.2763671875 22 284 c 4
 22 506.57421875 106.772460938 584 210.372070312 584 c 4
 279.69140625 584 317.521484375 527.580078125 326 487 c 5
 272 426 l 5
 266.823242188 442.5859375 252 480 210.372070312 480 c 4
 167.26953125 480 128 425.659179688 128 284 c 4
407 318 m 4
 351 318 306 273 306 217 c 4
 306 161 351 116 407 116 c 4
 442.29296875 116 473.569335938 131.385742188 493.662109375 155.436523438 c 5
 580 93.0419921875 l 5
 539.889648438 36.2998046875 477.454101562 0 407 0 c 4
 286.6640625 0 190 96.6640625 190 217 c 4
 190 330.947265625 286.68359375 421.3515625 407 421.3515625 c 5
 425.834960938 421.3515625 438 420 455.806640625 418.436523438 c 5
 456.868164062 424.678710938 457.37109375 430.6484375 457.37109375 436.311523438 c 4
 457.37109375 473.944335938 435.141601562 498 406.615234375 498 c 4
 377.259765625 498 361.431640625 477 361.431640625 453.1640625 c 4
 361.431640625 441.108398438 365.016601562 428.124023438 373 419 c 5
 295 379 l 5
 275.690429688 404.20703125 267.956054688 430.604492188 267.956054688 458.407226562 c 4
 267.956054688 534.13671875 320.055664062 596 406.615234375 596 c 4
 483.60546875 596 555 539.3359375 555 430 c 4
 555 398.735351562 548 357 536 318 c 5
 536 318 455.53125 318 407 318 c 4
551 -54.5634765625 m 5
 628 -106.563476562 l 5
 582.088867188 -175.430664062 527.333007812 -202.407226562 477.0546875 -202.407226562 c 4
 352.673828125 -202.407226562 282.862304688 -78.939453125 346 21.5380859375 c 5
 436 44.4365234375 l 5
 446 4 l 5
 416.696289062 -29.796875 424.99609375 -97 477.0546875 -97 c 4
 501.685546875 -97 528.508789062 -85.0556640625 551 -54.5634765625 c 5
EndSplineSet
Layer: 3
SplineSet
197 115 m 0
 225 4 l 0
 115 -16 25 49.625 25 284 c 0
 25 506.57421875 109.772460938 584 213.372070312 584 c 0
 289.286132812 584 330.71484375 533.978515625 340 498 c 1
 275 426 l 1
 269.823242188 442.5859375 255 480 213.372070312 480 c 0
 170.26953125 480 131 425.659179688 131 284 c 0
 131 158 140 104 197 115 c 0
407 318 m 0
 351 318 306 273 306 217 c 0
 306 161 351 116 407 116 c 0
 442.29296875 116 473.569335938 131.385742188 493.662109375 155.436523438 c 1
 580 93.0419921875 l 1
 539.889648438 36.2998046875 477.454101562 0 407 0 c 0
 286.6640625 0 190 96.6640625 190 217 c 0
 190 330.947265625 286.68359375 421.3515625 407 421.3515625 c 1
 425.834960938 421.3515625 438 420 455.806640625 418.436523438 c 1
 456.868164062 424.678710938 457.37109375 430.6484375 457.37109375 436.311523438 c 0
 457.37109375 473.944335938 435.141601562 498 406.615234375 498 c 0
 377.259765625 498 361.431640625 477 361.431640625 453.1640625 c 0
 361.431640625 441.108398438 365.016601562 428.124023438 373 419 c 1
 295 379 l 1
 275.690429688 404.20703125 267.956054688 430.604492188 267.956054688 458.407226562 c 0
 267.956054688 534.13671875 320.055664062 596 406.615234375 596 c 0
 483.60546875 596 555 539.3359375 555 430 c 0
 555 398.735351562 548 357 536 318 c 1
 536 318 455.53125 318 407 318 c 0
551 -54.5634765625 m 1
 628 -106.563476562 l 1
 582.088867188 -175.430664062 527.333007812 -202.407226562 477.0546875 -202.407226562 c 0
 352.673828125 -202.407226562 282.862304688 -78.939453125 346 21.5380859375 c 1
 436 44.4365234375 l 1
 446 4 l 1
 416.696289062 -29.796875 424.99609375 -97 477.0546875 -97 c 0
 501.685546875 -97 528.508789062 -85.0556640625 551 -54.5634765625 c 1
EndSplineSet
EndChar

StartChar: si_Pa
Encoding: 46 3508 51
Width: 573
VWidth: 0
Flags: HW
LayerCount: 5
Fore
SplineSet
243.6015625 467.353515625 m 4
 243.6015625 473.071289062 244.166015625 478.329101562 245.416992188 483 c 4
 265.04296875 556.27734375 324.135742188 594 386.954101562 594 c 4
 473.513671875 594 525.61328125 532.13671875 525.61328125 456.407226562 c 4
 525.61328125 428.149414062 514.365234375 394.649414062 494.227539062 369.030273438 c 5
 417.518554688 410.436523438 l 5
 425.501953125 419.560546875 432.137695312 439.108398438 432.137695312 451.1640625 c 4
 432.137695312 475 417.924804688 496 382.78125 496 c 4
 360.04296875 496 331.216796875 481.030273438 331.216796875 434.341796875 c 4
 331.216796875 428.678710938 331.719726562 422.2421875 332.78125 416 c 4
 286.28125 318.436523438 l 5
 273.669921875 359.422851562 243.6015625 425.625 243.6015625 467.353515625 c 4
128.560546875 224 m 4
 128.560546875 144.037109375 207.272460938 104.166992188 286.057617188 104.166992188 c 4
 364.991210938 104.166992188 444 144.186523438 444 224 c 4
 444 275.725585938 416.560546875 318 361.560546875 318 c 6
 211 318 l 6
 156 318 128.560546875 275.725585938 128.560546875 224 c 4
21.560546875 224 m 4
 21.560546875 329.376953125 82.6171875 416 205 416 c 6
 367.560546875 416 l 6
 489.943359375 416 551 329.65234375 551 224 c 4
 551 66.5009765625 418.640625 -12.2490234375 286.28125 -12.2490234375 c 4
 153.920898438 -12.2490234375 21.560546875 66.501953125 21.560546875 224 c 4
46.94921875 456.407226562 m 4
 46.94921875 532.13671875 99.048828125 594 185.608398438 594 c 4
 248.426757812 594 307.518554688 556.27734375 327.145507812 483 c 4
 328.396484375 478.329101562 328.9609375 473.071289062 328.9609375 467.353515625 c 4
 328.9609375 425.625 298.891601562 359.422851562 286.28125 318.436523438 c 5
 239.78125 416 l 4
 240.842773438 422.2421875 241.345703125 428.678710938 241.345703125 434.341796875 c 4
 241.345703125 481.030273438 212.51953125 496 189.78125 496 c 4
 154.637695312 496 140.424804688 475 140.424804688 451.1640625 c 4
 140.424804688 439.108398438 147.060546875 419.560546875 155.043945312 410.436523438 c 5
 78.3349609375 369.030273438 l 5
 58.1962890625 394.649414062 46.94921875 428.149414062 46.94921875 456.407226562 c 4
EndSplineSet
EndChar

StartChar: si_Pha
Encoding: 47 3509 52
Width: 548
VWidth: 0
Flags: HW
LayerCount: 5
Fore
SplineSet
227.04296875 601 m 4
 227.04296875 673.485789922 289.426757812 693.09459914 289.426757812 719 c 4
 289.426757812 727.052774988 285.343076116 735.27209826 274.486328125 745.176757812 c 5
 368.369140625 755 l 5
 357.04296875 643 l 5
 340.034104567 636.648995536 330.04296875 619.604306175 330.04296875 605 c 4
 330.04296875 584.662446787 345.263454794 558 381.90625 558 c 4
 388.683699124 558 395.853453413 559.281025828 403.426757812 562 c 5
 480.369140625 524 l 5
 423.426757812 460 l 5
 414.585255442 460 405.830925518 460 397.194335938 460 c 4
 303.571850779 460 227.04296875 529.568527186 227.04296875 601 c 4
22 218.826171875 m 4
 22 279.354492188 41.8984553668 335.661112137 72.3779296875 362 c 4
 93.3974609375 380.1640625 121.474609375 391 158.076171875 391 c 6
 264.188476562 391 l 5
 326.1328125 306 l 5
 201.075195312 306 l 6
 145.075195312 306 132.674804688 270.6015625 132.674804688 226.6015625 c 4
 132.674804688 174 163.326171875 115 270.42578125 115 c 4
 400.48828125 115 433.624023438 234.833007812 433.624023438 343.766601562 c 4
 433.624023438 394.671875 422.347400435 442.472452673 418.42578125 476 c 4
 415.7578125 498.809570312 411.427734375 520.5 404.42578125 541 c 5
 398.463867188 582.607421875 376.60546875 626.196289062 348.42578125 647 c 5
 329.946289062 687.155273438 304.1015625 721.15625 274.485351562 745.176757812 c 5
 329.42578125 811 l 5
 456.528320312 745.25 545.482421875 530.926757812 545.482421875 339.119140625 c 4
 545.482421875 159.709960938 467.65625 -0 270.426757812 0 c 5
 78.32421875 0 22 137 22 218.826171875 c 4
61.724609375 409.272460938 m 5
 61.724609375 481.53515625 110.6953125 531.563476562 184.997070312 531.563476562 c 4
 261.982421875 531.563476562 333.381835938 474.8984375 333.381835938 365.563476562 c 4
 333.381835938 350.999023438 330.188476562 324.999023438 326.1328125 305.999023438 c 5
 235.752929688 371.874023438 l 5
 236.693359375 376.782226562 237.16796875 381.76953125 237.16796875 386.712890625 c 4
 237.16796875 416.143554688 220.353515625 443.999023438 184.997070312 443.999023438 c 4
 160.197265625 443.999023438 151.205078125 426.1328125 151.205078125 404.786132812 c 4
 151.205078125 386.79296875 163.490234375 370.32421875 172.188476562 355.999023438 c 5
 92.1884765625 318.563476562 l 5
 72.1884765625 350.999023438 61.724609375 380.619140625 61.724609375 409.272460938 c 5
EndSplineSet
EndChar

StartChar: si_Ba
Encoding: 48 3510 53
Width: 575
VWidth: 0
Flags: HW
LayerCount: 5
Fore
SplineSet
22 220 m 4
 22 425.889648438 98 488.874023438 202.185546875 488.874023438 c 4
 309.69140625 488.874023438 371.125 430 371.125 324 c 4
 371.125 251 320.483398438 228 320.483398438 177 c 4
 320.483398438 142.7578125 333.727539062 115 360 115 c 4
 412.211914062 115 439.240234375 190 439.240234375 293 c 4
 439.240234375 522.796875 396.240234375 639.884765625 258.240234375 639.884765625 c 4
 217.13671875 639.884765625 169.477539062 618.959960938 152.421875 576.85546875 c 5
 43.3896484375 613.029296875 l 5
 79.3740234375 707.868164062 171.51953125 755 258.240234375 755 c 4
 475.240234375 755 554.240234375 599.055664062 554.240234375 293 c 4
 553.755859375 181.99609375 521.880859375 0 364.125 0 c 4
 239.822265625 0 211.586914062 87.4052734375 211.586914062 177 c 4
 211.586914062 237 259.125 264 259.125 324 c 4
 259.125 354 243.69140625 376.432617188 201 376.432617188 c 4
 161.172851562 376.432617188 132 339.788085938 132 220 c 4
 132 128 150 110 171 110 c 4
 191 110 208 120 224 156 c 5
 280 73 l 5
 251 28 223.478515625 0 171 0 c 4
 66 0 22 79 22 220 c 4
EndSplineSet
EndChar

StartChar: si_Bha
Encoding: 49 3511 54
Width: 690
VWidth: 0
Flags: HW
LayerCount: 5
Fore
SplineSet
225 255.15625 m 5
 264.828125 282.182617188 276.456054688 331.5703125 285.561523438 384 c 4
 302.0625 479.0078125 310.278320312 584 463 584 c 4
 569.999023438 584 668 526.375 668 292 c 4
 668 69.42578125 583.227539062 0 479.627929688 0 c 4
 403.713867188 0 362.28515625 50.021484375 353 86 c 5
 418 158 l 5
 423.176757812 141.4140625 438 104 479.627929688 104 c 4
 522.73046875 104 562 150.340820312 562 292 c 4
 562 439.546875 512.584960938 478 463 478 c 4
 401.5625 478 388.217773438 429.942382812 377.692382812 371 c 4
 365.603515625 303.302734375 357.235351562 221.249023438 284 181.15625 c 5
 225 255.15625 l 5
38.4248046875 210.498046875 m 4
 38.4248046875 229.7421875 40.642578125 249.38671875 45.2099609375 269 c 4
 49.833984375 288.856445312 56.22265625 306.7421875 63.244140625 319.563476562 c 5
 22.427734375 319.666992188 l 5
 22.427734375 408 l 5
 125.760742188 408 229.094726562 408 332.427734375 408 c 5
 332.427734375 319 l 5
 205 318 l 6
 179.506835938 317.799804688 162.266601562 294.194335938 152.973632812 264 c 4
 148.994140625 251.068359375 146.770507812 235.896484375 146.770507812 220.209960938 c 4
 146.770507812 167.96484375 171.432617188 110 238 110 c 4
 309.95703125 110 328 142.338867188 328 170 c 4
 328 180.208984375 326.150390625 195.96875 313.732421875 195.96875 c 4
 308 195.96875 304 194 301 192 c 5
 257 272 l 5
 278.755859375 281.041015625 302.34765625 286.170898438 325.001953125 286.170898438 c 4
 382.525390625 286.170898438 434 253.094726562 434 167 c 4
 434 99 388 0 238 0 c 4
 113.583007812 0 38.4248046875 98.4755859375 38.4248046875 210.498046875 c 4
66.384765625 454 m 4
 66.384765625 532.131835938 116.447265625 594 207.827148438 594 c 4
 272.112304688 594 333.0078125 556.409179688 352.66796875 483 c 4
 353.918945312 478.329101562 354.483398438 473.071289062 354.483398438 467.353515625 c 4
 354.483398438 425.625 338 362.563476562 311.803710938 319 c 5
 261.454101562 403.030273438 l 5
 262.515625 409.272460938 266.868164062 420 266.868164062 434.341796875 c 4
 266.868164062 481.030273438 236.1953125 496 212 496 c 4
 175.98046875 496 159.23046875 474.291992188 159.23046875 443 c 4
 159.23046875 414 172.754882812 397.28125 190 392 c 5
 138.2890625 326.71875 l 5
 103.479492188 347 66.384765625 398 66.384765625 454 c 4
EndSplineSet
Layer: 2
SplineSet
-510.215820312 594 m 0
 -597.831054688 594 -645.831054688 532.131835938 -645.831054688 461.536132812 c 0
 -645.831054688 433.094726562 -636.568359375 403.236328125 -615.541992188 375.436523438 c 1
 -539.831054688 413.436523438 l 1
 -564.19140625 443.840820312 -555.7109375 496 -511.831054688 496 c 0
 -483.3046875 496 -459.459960938 471.944335938 -459.459960938 434.311523438 c 0
 -459.459960938 428.6484375 -459.962890625 422.678710938 -461.024414062 416.436523438 c 0
 -380.780273438 318.436523438 l 1
 -368.780273438 357.436523438 -361.831054688 396.735351562 -361.831054688 428 c 0
 -361.831054688 537.3359375 -433.225585938 594 -510.215820312 594 c 0
-657.6640625 319.563476562 m 1
 -669.830078125 287.82421875 -674.098632812 249.922851562 -674.098632812 206.94921875 c 0
 -674.098632812 101.99609375 -605.24609375 0 -483.874023438 0 c 0
 -333.874023438 0 -287.874023438 99 -287.874023438 167 c 0
 -287.874023438 217 -303.874023438 272 -362.874023438 286 c 1
 -420.874023438 192 l 1
 -396.874023438 205 -393.874023438 183 -393.874023438 170 c 0
 -393.874023438 142.338867188 -411.916992188 110 -483.874023438 110 c 0
 -554.24609375 110 -575.333007812 167.831054688 -575.333007812 216.192382812 c 0
 -575.333007812 266.505859375 -555.6640625 318 -514.899414062 318 c 2
 -389.446289062 319 l 1
 -389.446289062 416 l 1
 -463.874023438 416 l 1
 -699.446289062 416 l 1
 -699.446289062 319.666992188 l 1
 -657.6640625 319.563476562 l 1
-258.874023438 478 m 0
 -209.2890625 478 -159.874023438 439.546875 -159.874023438 292 c 0
 -159.874023438 150.340820312 -199.143554688 104 -242.24609375 104 c 0
 -283.874023438 104 -298.697265625 141.4140625 -303.874023438 158 c 1
 -368.874023438 86 l 1
 -359.588867188 50.021484375 -318.16015625 0 -242.24609375 0 c 0
 -138.646484375 0 -53.8740234375 69.42578125 -53.8740234375 292 c 0
 -53.8740234375 526.375 -151.875 584 -258.874023438 584 c 0
 -495.874023438 584 -384.874023438 331.15625 -496.874023438 255.15625 c 1
 -437.874023438 181.15625 l 1
 -300.874023438 256.15625 -390.874023438 478 -258.874023438 478 c 0
1060.49804688 105.84375 m 0
 1010.91308594 105.84375 961.498046875 144.296875 961.498046875 291.84375 c 0
 961.498046875 433.502929688 1000.76757812 479.84375 1043.87011719 479.84375 c 0
 1085.49804688 479.84375 1100.32128906 442.4296875 1105.49804688 425.84375 c 1
 1170.49804688 497.84375 l 1
 1161.21289062 533.822265625 1119.78417969 583.84375 1043.87011719 583.84375 c 0
 940.270507812 583.84375 855.498046875 514.41796875 855.498046875 291.84375 c 0
 855.498046875 57.46875 953.499023438 -0.15625 1060.49804688 -0.15625 c 0
 1191.05859375 -0.15625 1242.12597656 94.57421875 1242.12597656 189 c 0
 1242.12597656 243 1211.12597656 294.29296875 1175.12597656 306 c 1
 1112.12597656 236 l 1
 1124.38867188 231.094726562 1140.12597656 219 1140.12597656 184 c 0
 1140.12597656 146 1121.49804688 105.84375 1060.49804688 105.84375 c 0
1264.49804688 584 m 0
 1184.59082031 584 1099.49804688 526.84375 1099.49804688 400.84375 c 0
 1099.49804688 368.84375 1102.12597656 333 1050.12597656 300 c 1
 1096.49804688 219.84375 l 1
 1156.49804688 253.84375 1201.49804688 286 1201.49804688 361.84375 c 0
 1201.49804688 437.84375 1212.6875 478 1264.49804688 478 c 0
 1314.08300781 478 1363.49804688 439.546875 1363.49804688 292 c 0
 1363.49804688 150.340820312 1324.22851562 104 1281.12597656 104 c 0
 1239.49804688 104 1224.67480469 141.4140625 1219.49804688 158 c 1
 1154.49804688 86 l 1
 1163.78320312 50.021484375 1205.21191406 0 1281.12597656 0 c 0
 1384.72558594 0 1469.49804688 69.42578125 1469.49804688 292 c 0
 1469.49804688 526.375 1371.49707031 584 1264.49804688 584 c 0
220.784179688 594 m 0
 133.168945312 594 85.1689453125 532.131835938 85.1689453125 461.536132812 c 0
 85.1689453125 433.094726562 94.431640625 403.236328125 115.458007812 375.436523438 c 1
 191.168945312 413.436523438 l 1
 166.80859375 443.840820312 175.2890625 496 219.168945312 496 c 0
 247.6953125 496 271.540039062 471.944335938 271.540039062 434.311523438 c 0
 271.540039062 428.6484375 271.037109375 422.678710938 269.975585938 416.436523438 c 0
 350.219726562 318.436523438 l 1
 362.219726562 357.436523438 369.168945312 396.735351562 369.168945312 428 c 0
 369.168945312 537.3359375 297.774414062 594 220.784179688 594 c 0
247.125976562 0 m 0
 397.125976562 0 443.125976562 99 443.125976562 167 c 0
 443.125976562 217 427.125976562 272 368.125976562 286 c 1
 310.125976562 192 l 1
 334.125976562 205 337.125976562 183 337.125976562 170 c 0
 337.125976562 142.338867188 319.083007812 110 247.125976562 110 c 0
 160.5703125 110 144.864257812 208 162.099609375 264 c 0
 171.391601562 294.194335938 188.6328125 317.799804688 214.125976562 318 c 2
 341.553710938 319 l 1
 341.553710938 416 l 1
 267.125976562 416 l 1
 31.5537109375 416 l 1
 31.5537109375 319.666992188 l 1
 72.3701171875 319.563476562 l 1
 65.3486328125 306.7421875 58.9599609375 288.856445312 54.3359375 269 c 0
 23.1806640625 135.215820312 101.334960938 0 247.125976562 0 c 0
472.125976562 478 m 0
 521.7109375 478 571.125976562 439.546875 571.125976562 292 c 0
 571.125976562 150.340820312 531.856445312 104 488.75390625 104 c 0
 447.125976562 104 432.302734375 141.4140625 427.125976562 158 c 1
 362.125976562 86 l 1
 371.411132812 50.021484375 412.83984375 0 488.75390625 0 c 0
 592.353515625 0 677.125976562 69.42578125 677.125976562 292 c 0
 677.125976562 526.375 579.125 584 472.125976562 584 c 0
 235.125976562 584 346.125976562 331.15625 234.125976562 255.15625 c 1
 293.125976562 181.15625 l 1
 430.125976562 256.15625 340.125976562 478 472.125976562 478 c 0
EndSplineSet
Layer: 3
SplineSet
878.716796875 462.716796875 m 4
 878.716796875 533.3125 926.716796875 595.180664062 1014.33203125 595.180664062 c 4
 1077.15039062 595.180664062 1136.24414062 557.458007812 1155.86914062 484.180664062 c 4
 1157.12011719 479.509765625 1157.68457031 474.251953125 1157.68457031 468.534179688 c 4
 1157.68457031 426.805664062 1127.61621094 360.603515625 1115.00488281 319.6171875 c 5
 1064.65527344 404.2109375 l 4
 1065.71679688 410.453125 1070.06933594 429.859375 1070.06933594 435.522460938 c 4
 1070.06933594 482.2109375 1041.24316406 497.180664062 1018.50488281 497.180664062 c 4
 986.462890625 497.180664062 971.5625 475.47265625 971.5625 451.903320312 c 4
 971.5625 415.180664062 1003.33203125 393.180664062 1028.78613281 387.899414062 c 5
 969.075195312 327.899414062 l 5
 925.33203125 348.180664062 878.716796875 399.180664062 878.716796875 462.716796875 c 4
1040.94433594 0 m 4
 895.153320312 0 817 135.215820312 848.154296875 269 c 4
 852.778320312 288.856445312 859.166992188 306.7421875 866.188476562 319.563476562 c 5
 825.372070312 319.666992188 l 5
 825.372070312 408 l 5
 928.705078125 408 1032.0390625 408 1135.37207031 408 c 5
 1135.37207031 319 l 5
 1007.94433594 318 l 6
 982.451171875 317.799804688 965.2109375 294.194335938 955.91796875 264 c 4
 938.682617188 208 954.388671875 110 1040.94433594 110 c 4
 1112.90136719 110 1130.94433594 142.338867188 1130.94433594 170 c 4
 1130.94433594 183 1127.94433594 205 1103.94433594 192 c 5
 1161.94433594 286 l 5
 1220.94433594 272 1236.94433594 217 1236.94433594 167 c 4
 1236.94433594 99 1190.94433594 0 1040.94433594 0 c 4
1265.94433594 478 m 4
 1133.94433594 478 1223.94433594 256.15625 1086.94433594 181.15625 c 5
 1027.94433594 255.15625 l 5
 1139.94433594 331.15625 1028.94433594 584 1265.94433594 584 c 4
 1372.94335938 584 1470.94433594 526.375 1470.94433594 292 c 4
 1470.94433594 69.42578125 1386.171875 0 1282.57226562 0 c 4
 1206.65820312 0 1165.22949219 50.021484375 1155.94433594 86 c 5
 1220.94433594 158 l 5
 1226.12109375 141.4140625 1240.94433594 104 1282.57226562 104 c 4
 1325.67480469 104 1364.94433594 150.340820312 1364.94433594 292 c 4
 1364.94433594 439.546875 1315.52929688 478 1265.94433594 478 c 4
-509.215820312 594 m 0
 -596.831054688 594 -644.831054688 532.131835938 -644.831054688 461.536132812 c 0
 -644.831054688 433.094726562 -635.568359375 403.236328125 -614.541992188 375.436523438 c 1
 -538.831054688 413.436523438 l 1
 -563.19140625 443.840820312 -554.7109375 496 -510.831054688 496 c 0
 -482.3046875 496 -458.459960938 471.944335938 -458.459960938 434.311523438 c 0
 -458.459960938 428.6484375 -458.962890625 422.678710938 -460.024414062 416.436523438 c 0
 -379.780273438 318.436523438 l 1
 -367.780273438 357.436523438 -360.831054688 396.735351562 -360.831054688 428 c 0
 -360.831054688 537.3359375 -432.225585938 594 -509.215820312 594 c 0
-482.874023438 0 m 0
 -332.874023438 0 -286.874023438 99 -286.874023438 167 c 0
 -286.874023438 217 -302.874023438 272 -361.874023438 286 c 1
 -419.874023438 192 l 1
 -395.874023438 205 -392.874023438 183 -392.874023438 170 c 0
 -392.874023438 142.338867188 -410.916992188 110 -482.874023438 110 c 0
 -569.4296875 110 -585.133789062 207.999023438 -567.900390625 264 c 0
 -558.608398438 294.194335938 -541.3671875 317.799804688 -515.874023438 318 c 2
 -388.446289062 319 l 1
 -388.446289062 408 l 1
 -491.779296875 408 -595.11328125 408 -698.446289062 408 c 1
 -698.446289062 319.666992188 l 1
 -657.629882812 319.563476562 l 1
 -664.651367188 306.7421875 -671.040039062 288.856445312 -675.6640625 269 c 0
 -706.819335938 135.215820312 -628.665039062 0 -482.874023438 0 c 0
-257.874023438 478 m 0
 -208.2890625 478 -158.874023438 439.546875 -158.874023438 292 c 0
 -158.874023438 150.340820312 -198.143554688 104 -241.24609375 104 c 0
 -282.874023438 104 -297.697265625 141.4140625 -302.874023438 158 c 1
 -367.874023438 86 l 1
 -358.588867188 50.021484375 -317.16015625 0 -241.24609375 0 c 0
 -137.646484375 0 -52.8740234375 69.42578125 -52.8740234375 292 c 0
 -52.8740234375 526.375 -150.875 584 -257.874023438 584 c 0
 -494.874023438 584 -383.874023438 331.15625 -495.874023438 255.15625 c 1
 -436.874023438 181.15625 l 1
 -299.874023438 256.15625 -389.874023438 478 -257.874023438 478 c 0
212.356445312 584 m 0
 124.741210938 584 76.7412109375 522.131835938 76.7412109375 451.536132812 c 0
 76.7412109375 423.094726562 86.00390625 393.236328125 107.030273438 365.436523438 c 1
 182.741210938 403.436523438 l 1
 158.380859375 433.840820312 166.861328125 486 210.741210938 486 c 0
 239.267578125 486 263.112304688 461.944335938 263.112304688 424.311523438 c 0
 263.112304688 418.6484375 262.609375 412.678710938 261.547851562 406.436523438 c 0
 341.791992188 308.436523438 l 1
 353.791992188 347.436523438 360.741210938 386.735351562 360.741210938 418 c 0
 360.741210938 527.3359375 289.346679688 584 212.356445312 584 c 0
38.4599609375 207 m 0
 38.4599609375 103.764648438 113.125976562 0 237.125976562 0 c 0
 387.125976562 0 443.125976562 99 443.125976562 167 c 0
 443.125976562 217 434.125976562 277 368.125976562 286 c 1
 310.125976562 192 l 1
 334.125976562 205 337.125976562 194.0078125 337.125976562 170 c 0
 337.125976562 142.338867188 309.083007812 110 237.125976562 110 c 0
 173.125976562 110 145.459960938 158.58203125 145.459960938 207 c 0
 145.459960938 258.08984375 165.12890625 317.681640625 205.698242188 318 c 2
 333.125976562 319 l 1
 333.125976562 416 l 1
 258.698242188 416 l 1
 23.1259765625 416 l 1
 23.1259765625 319.666992188 l 1
 63.9423828125 319.563476562 l 1
 49.9423828125 294 38.4599609375 248.30078125 38.4599609375 207 c 0
472.125976562 0 m 0
 579.125 0 677.125976562 51.46875 677.125976562 285.84375 c 0
 677.125976562 520.21875 579.125 583.84375 472.125976562 583.84375 c 0
 235.125976562 583.84375 346.125976562 331 234.125976562 255 c 1
 293.125976562 181 l 1
 430.125976562 256 340.125976562 473.84375 472.125976562 473.84375 c 0
 521.7109375 473.84375 567.125976562 433.390625 567.125976562 285.84375 c 0
 567.125976562 135.928710938 521.706054688 107.84375 472.125976562 107.84375 c 1
 430.498046875 107.84375 415.674804688 141.4140625 410.498046875 158 c 1
 345.498046875 86 l 1
 354.783203125 50.0224609375 396.211914062 0 472.125976562 0 c 0
EndSplineSet
EndChar

StartChar: si_Ma
Encoding: 50 3512 55
Width: 552
VWidth: 0
Flags: HW
LayerCount: 5
Fore
SplineSet
22 301 m 4
 22 395.515625 60 527 164 527 c 4
 217.768834744 527 258.944189335 486.929804059 258.944189335 426.694991034 c 4
 258.944189335 393.945563444 251 365.702148438 251 335 c 4
 251 318.805664062 253 307 269 307 c 4
 288.411132812 307 292 345.962340419 292 380 c 4
 292 416 288 445 267.999023438 445 c 4
 262.298828125 445 255 440.93359375 255 430.93359375 c 13
 213 500 l 5
 221 510 243 527 277 527 c 4
 353.673828125 527 374 457 374 378.768554688 c 4
 374 289.983398438 346.221219963 221.557617188 266 221.557617188 c 4
 202.986486723 221.557617188 167 266.612304688 167 327.436523438 c 4
 167 359.977539062 174 384.150390625 174 408 c 4
 174 417.833984375 173.809599901 433 161 433 c 4
 134.53125 433 123.712890625 347.823242188 123.712890625 301 c 4
 123.712890625 191.500976562 166.479492188 115 269 115 c 4
 373.452148438 115 415 195.017578125 415 354 c 4
 415 583 342.6796875 639.884765625 259.854492188 639.884765625 c 4
 218.750976562 639.884765625 178.666015625 618.959960938 161.610351562 576.85546875 c 5
 52.578125 613.029296875 l 5
 88.5625 707.868164062 173.133789062 755 259.854492188 755 c 4
 399.326171875 755 530 675.859375 530 354 c 4
 530 118 449 0 269 0 c 4
 91.6142578125 0 22 123.690429688 22 301 c 4
EndSplineSet
Layer: 3
SplineSet
269 0 m 0
 91.6142578125 0 22 123.690429688 22 301 c 0
 22 395.515625 60 527 164 527 c 0
 204.403320312 527 239.78515625 502.5234375 252.744140625 466 c 0
 268.618164062 421.260742188 248 369.180664062 248 326.057617188 c 0
 248 309.86328125 256.130859375 302.39453125 266 302.39453125 c 0
 274.44140625 302.39453125 284.389648438 307.858398438 289 318 c 0
 293.826171875 328.616210938 298 352.341796875 298 380 c 0
 298 416 288 447.06640625 267.999023438 447.06640625 c 0
 262.298828125 447.06640625 256.361328125 443.415039062 252 436 c 0
 213 500 l 0
 225 515 243 527 277 527 c 0
 353.673828125 527 369 457 369 378.768554688 c 0
 369 332.239257812 361.484375 287.0625 346 262 c 0
 328.817382812 234.188476562 297.443359375 221.557617188 266 221.557617188 c 0
 234.975585938 221.557617188 203.865234375 233.854492188 189 256 c 0
 139.999023438 329 205.829101562 433 161 433 c 0
 134.53125 433 123.712890625 347.823242188 123.712890625 301 c 0
 123.712890625 191.500976562 166.479492188 115 269 115 c 0
 373.452148438 115 415 195.017578125 415 354 c 0
 415 583 343.6796875 640 260.854492188 640 c 0
 219.750976562 640 179.666015625 618.959960938 162.610351562 576.85546875 c 1
 53.578125 613.029296875 l 1
 89.5625 707.868164062 174.133789062 755 260.854492188 755 c 0
 400.326171875 755 531 675.859375 531 354 c 0
 530 118 449 0 269 0 c 0
EndSplineSet
EndChar

